<?xml version="1.0" encoding="utf-8"?>
<!-- Generator: Adobe Illustrator 23.0.0, SVG Export Plug-In . SVG Version: 6.00 Build 0)  -->
<svg version="1.1" id="Calque_1" xmlns="http://www.w3.org/2000/svg" xmlns:xlink="http://www.w3.org/1999/xlink" x="0px" y="0px"
	 viewBox="0 0 48 48" style="enable-background:new 0 0 48 48;" xml:space="preserve">
<g>
	<g>
		<path d="M48,40.92H0v-7.78c0-2.06,1.68-3.73,3.73-3.73h40.54c2.06,0,3.72,1.68,3.72,3.73V40.92z M0.35,40.57h47.31v-7.43
			c0-1.87-1.52-3.39-3.38-3.39H3.73c-1.87,0-3.39,1.52-3.39,3.39V40.57z"/>
	</g>
	<g>
		<path d="M42.9,29.75H5.1v-7.79c0-2.06,1.68-3.72,3.73-3.72h30.34c2.06,0,3.72,1.67,3.72,3.72V29.75z M5.45,29.41h37.1v-7.44
			c0-1.86-1.52-3.38-3.38-3.38H8.84c-1.87,0-3.39,1.52-3.39,3.38V29.41z"/>
	</g>
	<g>
		<path d="M37.79,18.59H10.22v-7.79c0-2.06,1.67-3.72,3.72-3.72h20.12c2.06,0,3.73,1.67,3.73,3.72V18.59z M10.56,18.25h26.88v-7.44
			c0-1.86-1.52-3.38-3.39-3.38H13.94c-1.86,0-3.38,1.52-3.38,3.38V18.25z"/>
	</g>
	<g>
		<path d="M37.79,18.59H10.22v-7.79c0-2.06,1.67-3.72,3.72-3.72h20.12c2.06,0,3.73,1.67,3.73,3.72V18.59z M10.56,18.25h26.88v-7.44
			c0-1.86-1.52-3.38-3.39-3.38H13.94c-1.86,0-3.38,1.52-3.38,3.38V18.25z"/>
	</g>
	<g>
		<path d="M11.52,14.05c-0.67,0-1.22-0.55-1.22-1.22c0-0.68,0.55-1.22,1.22-1.22c0.68,0,1.22,0.55,1.22,1.22
			C12.74,13.51,12.2,14.05,11.52,14.05z M11.52,11.79c-0.57,0-1.04,0.47-1.04,1.05c0,0.57,0.47,1.04,1.04,1.04
			c0.58,0,1.05-0.47,1.05-1.04C12.57,12.26,12.1,11.79,11.52,11.79z"/>
	</g>
	<g>
		<path d="M13.79,14.05c-0.68,0-1.22-0.55-1.22-1.22c0-0.69,0.54-1.22,1.22-1.22c0.67,0,1.22,0.55,1.22,1.22
			C15.01,13.51,14.46,14.05,13.79,14.05z M13.79,11.79c-0.59,0-1.05,0.46-1.05,1.05c0,0.57,0.47,1.04,1.05,1.04
			c0.57,0,1.04-0.47,1.04-1.04C14.83,12.26,14.37,11.79,13.79,11.79z"/>
	</g>
	<g>
		<path d="M16.06,14.05c-0.68,0-1.22-0.55-1.22-1.22c0-0.68,0.55-1.22,1.22-1.22c0.68,0,1.22,0.55,1.22,1.22
			C17.28,13.51,16.73,14.05,16.06,14.05z M16.06,11.79c-0.58,0-1.05,0.47-1.05,1.05c0,0.57,0.47,1.04,1.05,1.04
			c0.58,0,1.05-0.47,1.05-1.04C17.11,12.26,16.64,11.79,16.06,11.79z"/>
	</g>
	<g>
		<path d="M18.32,14.05c-0.67,0-1.22-0.55-1.22-1.22c0-0.68,0.55-1.22,1.22-1.22c0.68,0,1.22,0.55,1.22,1.22
			C19.55,13.51,19,14.05,18.32,14.05z M18.32,11.79c-0.57,0-1.04,0.47-1.04,1.05c0,0.57,0.47,1.04,1.04,1.04
			c0.58,0,1.05-0.47,1.05-1.04C19.37,12.26,18.9,11.79,18.32,11.79z"/>
	</g>
	<g>
		<path d="M20.6,14.05c-0.68,0-1.22-0.55-1.22-1.22c0-0.69,0.54-1.22,1.22-1.22c0.67,0,1.22,0.55,1.22,1.22
			C21.81,13.51,21.27,14.05,20.6,14.05z M20.6,11.79c-0.59,0-1.05,0.46-1.05,1.05c0,0.57,0.47,1.04,1.05,1.04
			c0.57,0,1.04-0.47,1.04-1.04C21.64,12.26,21.17,11.79,20.6,11.79z"/>
	</g>
	<g>
		<path d="M22.86,14.05c-0.68,0-1.22-0.55-1.22-1.22c0-0.68,0.55-1.22,1.22-1.22s1.22,0.55,1.22,1.22
			C24.09,13.51,23.54,14.05,22.86,14.05z M22.86,11.79c-0.58,0-1.05,0.47-1.05,1.05c0,0.57,0.47,1.04,1.05,1.04
			c0.58,0,1.05-0.47,1.05-1.04C23.91,12.26,23.44,11.79,22.86,11.79z"/>
	</g>
	<g>
		<path d="M25.13,14.05c-0.68,0-1.22-0.55-1.22-1.22c0-0.68,0.55-1.22,1.22-1.22s1.22,0.55,1.22,1.22
			C26.35,13.51,25.81,14.05,25.13,14.05z M25.13,11.79c-0.58,0-1.05,0.47-1.05,1.05c0,0.57,0.47,1.04,1.05,1.04
			c0.58,0,1.05-0.47,1.05-1.04C26.18,12.26,25.71,11.79,25.13,11.79z"/>
	</g>
	<g>
		<path d="M24,25.65c-0.91,0-1.65-0.74-1.65-1.65s0.74-1.65,1.65-1.65s1.65,0.74,1.65,1.65S24.91,25.65,24,25.65z M24,22.52
			c-0.82,0-1.48,0.66-1.48,1.48s0.66,1.48,1.48,1.48s1.48-0.66,1.48-1.48S24.82,22.52,24,22.52z"/>
	</g>
	<g>
		<path d="M27.4,14.05c-0.68,0-1.22-0.55-1.22-1.22c0-0.69,0.54-1.22,1.22-1.22c0.67,0,1.22,0.55,1.22,1.22
			C28.62,13.51,28.07,14.05,27.4,14.05z M27.4,11.79c-0.59,0-1.05,0.46-1.05,1.05c0,0.57,0.47,1.04,1.05,1.04
			c0.57,0,1.04-0.47,1.04-1.04C28.44,12.26,27.98,11.79,27.4,11.79z"/>
	</g>
	<g>
		<path d="M29.67,14.05c-0.68,0-1.22-0.55-1.22-1.22c0-0.68,0.55-1.22,1.22-1.22s1.22,0.55,1.22,1.22
			C30.89,13.51,30.35,14.05,29.67,14.05z M29.67,11.79c-0.58,0-1.05,0.47-1.05,1.05c0,0.57,0.47,1.04,1.05,1.04
			c0.58,0,1.05-0.47,1.05-1.04C30.72,12.26,30.25,11.79,29.67,11.79z"/>
	</g>
	<g>
		<path d="M17.19,35.8c-0.67,0-1.22-0.55-1.22-1.22c0-0.67,0.55-1.22,1.22-1.22c0.68,0,1.22,0.55,1.22,1.22
			C18.42,35.25,17.87,35.8,17.19,35.8z M17.19,33.53c-0.57,0-1.04,0.47-1.04,1.04c0,0.58,0.47,1.05,1.04,1.05
			c0.58,0,1.05-0.47,1.05-1.05C18.25,34,17.78,33.53,17.19,33.53z"/>
	</g>
	<g>
		<path d="M31.93,14.05c-0.67,0-1.22-0.55-1.22-1.22c0-0.68,0.55-1.22,1.22-1.22c0.68,0,1.22,0.55,1.22,1.22
			C33.16,13.51,32.61,14.05,31.93,14.05z M31.93,11.79c-0.57,0-1.04,0.47-1.04,1.05c0,0.57,0.47,1.04,1.04,1.04
			c0.58,0,1.05-0.47,1.05-1.04C32.98,12.26,32.52,11.79,31.93,11.79z"/>
	</g>
	<g>
		<path d="M34.2,14.05c-0.67,0-1.22-0.55-1.22-1.22c0-0.68,0.55-1.22,1.22-1.22c0.69,0,1.22,0.54,1.22,1.22
			C35.42,13.51,34.88,14.05,34.2,14.05z M34.2,11.79c-0.57,0-1.04,0.47-1.04,1.05c0,0.57,0.47,1.04,1.04,1.04
			c0.58,0,1.05-0.47,1.05-1.04C35.25,12.25,34.79,11.79,34.2,11.79z"/>
	</g>
	<g>
		<path d="M36.47,14.05c-0.68,0-1.22-0.55-1.22-1.22c0-0.68,0.55-1.22,1.22-1.22c0.68,0,1.22,0.55,1.22,1.22
			C37.7,13.51,37.15,14.05,36.47,14.05z M36.47,11.79c-0.58,0-1.05,0.47-1.05,1.05c0,0.57,0.47,1.04,1.05,1.04s1.05-0.47,1.05-1.04
			C37.52,12.26,37.05,11.79,36.47,11.79z"/>
	</g>
	<g>
		<path d="M32.99,23.77c-2.27,0-4.14-0.22-5.56-0.38c-0.89-0.1-1.6-0.18-2.14-0.18v-0.17c0.55,0,1.26,0.08,2.15,0.18
			c1.71,0.2,4.04,0.43,7,0.35c2.61-0.14,5.34-0.6,8.33-1.42l0.05,0.17c-3.01,0.82-5.75,1.29-8.38,1.42
			C33.95,23.77,33.46,23.77,32.99,23.77z"/>
	</g>
	<g>
		<path d="M33.12,26.89c-0.88,0-1.81-0.09-2.78-0.3c-2.09-0.53-3.97-1.32-4.9-2.07l0.1-0.14c0.93,0.74,2.78,1.51,4.83,2.03
			c2.95,0.69,5.37,0.11,7.72-0.41l0.61-0.13c1.63-0.36,3.04-0.9,4.05-1.59l0.1,0.16c-1.04,0.69-2.47,1.25-4.12,1.61l-0.61,0.13
			C36.54,26.53,34.92,26.89,33.12,26.89z"/>
	</g>
	<g>
		<path d="M15.06,23.77c-0.45,0-0.93-0.01-1.41-0.03c-2.64-0.13-5.37-0.6-8.38-1.42l0.05-0.17c2.99,0.82,5.72,1.28,8.34,1.42
			c2.76,0.1,5.14-0.15,6.86-0.35c0.92-0.1,1.64-0.18,2.2-0.18v0.17c-0.55,0-1.27,0.09-2.18,0.19
			C19.11,23.56,17.26,23.77,15.06,23.77z"/>
	</g>
	<g>
		<path d="M14.98,26.89c-1.8,0-3.42-0.36-5.01-0.71l-0.61-0.13c-1.66-0.36-3.08-0.92-4.12-1.61l0.1-0.16
			c1.02,0.69,2.42,1.23,4.05,1.59l0.61,0.13c2.34,0.51,4.77,1.07,7.72,0.41c2.01-0.56,3.75-1.26,4.77-1.94l0.1,0.16
			c-1.03,0.69-2.79,1.4-4.83,1.96C16.79,26.8,15.86,26.89,14.98,26.89z"/>
	</g>
	<g>
		<path d="M8.91,34.44c-0.43,0-0.86-0.01-1.29-0.03c-3.08-0.18-5.78-0.78-7.5-1.24l0.05-0.17c1.71,0.46,4.39,1.05,7.46,1.24
			c2.5,0.12,4.8-0.15,6.46-0.34c0.89-0.1,1.68-0.19,2.24-0.19v0.17c-0.56,0-1.33,0.1-2.22,0.19C12.72,34.23,10.92,34.44,8.91,34.44z
			"/>
	</g>
	<g>
		<path d="M8.94,37.56c-1.8,0-3.42-0.36-5.01-0.71l-0.61-0.13C2.08,36.36,1,36,0.1,35.65l0.07-0.17c0.89,0.36,1.96,0.71,3.19,1.07
			l0.6,0.13c2.34,0.5,4.77,1.07,7.72,0.41c1.53-0.43,3.07-1.02,4.59-1.77l0.09,0.16c-1.54,0.76-3.09,1.36-4.64,1.79
			C10.75,37.47,9.82,37.56,8.94,37.56z"/>
	</g>
	<g>
		<path d="M30.81,35.8c-0.67,0-1.22-0.55-1.22-1.22c0-0.43,0.23-0.82,0.59-1.05c0.06-0.03,0.3-0.16,0.62-0.16
			c0.68,0,1.22,0.55,1.22,1.22C32.03,35.25,31.48,35.8,30.81,35.8z M30.81,33.53c-0.3,0-0.49,0.12-0.54,0.15
			c-0.31,0.18-0.5,0.53-0.5,0.89c0,0.58,0.47,1.05,1.04,1.05c0.58,0,1.05-0.47,1.05-1.05C31.86,34,31.39,33.53,30.81,33.53z"/>
	</g>
	<g>
		<path d="M39.1,34.44c-2.02,0-3.82-0.21-5.19-0.37c-0.89-0.1-1.68-0.19-2.23-0.19V33.7c0.57,0,1.35,0.09,2.25,0.19
			c1.37,0.16,3.16,0.36,5.17,0.36c0.42,0,0.85-0.01,1.29-0.03c3.23-0.2,6.05-0.86,7.44-1.24l0.05,0.17
			c-1.41,0.38-4.24,1.04-7.48,1.24C39.96,34.43,39.53,34.44,39.1,34.44z"/>
	</g>
	<g>
		<path d="M39.05,37.55c-0.89,0-1.81-0.08-2.76-0.3c-1.56-0.43-3.12-1.03-4.65-1.79l0.09-0.16c1.51,0.75,3.06,1.35,4.61,1.77
			c2.93,0.69,5.36,0.11,7.72-0.41l0.59-0.13c1.23-0.36,2.31-0.71,3.19-1.07l0.07,0.16c-0.89,0.36-1.97,0.72-3.21,1.08l-0.6,0.13
			C42.56,37.18,40.88,37.55,39.05,37.55z"/>
	</g>
	<g>
		<path d="M23.86,39.08c-0.09,0-0.17,0-0.25-0.01c-2.62-0.1-4.96-1.47-5.95-3.46l0.16-0.09c0.96,1.94,3.24,3.27,5.79,3.38
			c0.09,0,0.17,0,0.25,0c2.4,0,4.77-1.37,6.07-3.55l0.16,0.09C28.75,37.67,26.33,39.08,23.86,39.08z"/>
	</g>
	<g>
		<path d="M24.95,34.59c-0.08,0-0.16,0-0.23,0h-0.23c-2.22,0-4.12-0.16-6.35-0.53l0.03-0.17c2.22,0.37,4.11,0.53,6.32,0.53h0.23
			c0.07,0,0.15,0,0.23,0c1.6,0,3.12-0.01,4.74-0.17l0.02,0.17C28.08,34.58,26.56,34.59,24.95,34.59z"/>
	</g>
	<g>
		<path d="M13.87,25.25c-1.67,0-3.63-0.35-5.69-1.48l0.09-0.16c4.2,2.33,8.05,1.28,9.69,0.82c0.49-0.14,0.69-0.22,0.83-0.15
			l-0.07,0.16c-0.01-0.01-0.02-0.01-0.03-0.01c-0.1,0-0.39,0.08-0.69,0.16C17.14,24.84,15.68,25.25,13.87,25.25z"/>
	</g>
	<g>
		<path d="M8.22,35.99c-1.67,0-3.64-0.35-5.69-1.48l0.09-0.16c4.2,2.33,8.04,1.28,9.69,0.83c0.49-0.15,0.69-0.24,0.82-0.15
			l-0.07,0.16c-0.01,0-0.02,0-0.03,0c-0.1,0-0.39,0.08-0.69,0.16C11.48,35.59,10.03,35.99,8.22,35.99z"/>
	</g>
	<g>
		<path d="M24.18,36.58c-1.34,0-2.9-0.28-4.54-1.19l0.09-0.16c3.35,1.86,6.4,1.02,7.7,0.66c0.43-0.12,0.58-0.18,0.67-0.11
			l-0.07,0.16l0.03-0.08l-0.03,0.09c0-0.01-0.01-0.01-0.02-0.01c-0.08,0-0.31,0.07-0.54,0.13C26.79,36.26,25.62,36.58,24.18,36.58z"
			/>
	</g>
	<g>
		<path d="M33.66,25.56c-1.81,0-3.26-0.4-4.12-0.64c-0.32-0.1-0.63-0.16-0.71-0.16l-0.07-0.16c0.03-0.02,0.06-0.02,0.1-0.02
			c0.13,0,0.34,0.05,0.73,0.16c1.64,0.44,5.48,1.48,9.69-0.83l0.09,0.16C37.3,25.22,35.33,25.56,33.66,25.56z"/>
	</g>
	<g>
		<path d="M39.68,35.99c-1.8,0-3.26-0.4-4.12-0.64c-0.3-0.08-0.58-0.16-0.69-0.16c-0.01,0-0.02,0-0.03,0l-0.07-0.16
			c0.03-0.02,0.06-0.02,0.1-0.02c0.13,0,0.34,0.05,0.73,0.16c1.62,0.44,5.47,1.48,9.69-0.83l0.09,0.16
			C43.31,35.64,41.35,35.99,39.68,35.99z"/>
	</g>
</g>
</svg>
