<?xml version="1.0" encoding="utf-8"?>
<!-- Generator: Adobe Illustrator 23.0.0, SVG Export Plug-In . SVG Version: 6.00 Build 0)  -->
<svg version="1.1" id="Calque_1" xmlns="http://www.w3.org/2000/svg" xmlns:xlink="http://www.w3.org/1999/xlink" x="0px" y="0px"
	 viewBox="0 0 48 48" style="enable-background:new 0 0 48 48;" xml:space="preserve">
<g>
	<g>
		<path d="M45.05,32.24c-0.91,0-1.7-0.32-1.75-0.34c-4.94-0.38-11.97-5.02-13.33-5.95l0.24-0.34c1.34,0.92,8.29,5.51,13.19,5.9
			c0.08,0.02,1.91,0.77,3.05-0.07c0.76-0.53,1.1-1.59,1.03-3.16c-0.12-2.29-0.37-3.09-0.64-3.94c-0.35-1.13-0.77-2.4-0.91-7.24
			c0.02-0.15,2.15-8.99,1.56-11.49c-0.05-0.19-0.26-0.81-1.04-1.07c-1.18-0.38-3.66-0.01-8.87,4.11l-11.56,8.13l-0.2-0.36l0.34-0.2
			l11.17-7.89c4.28-3.37,7.39-4.76,9.25-4.17c0.98,0.33,1.25,1.12,1.31,1.35c0.61,2.61-1.47,11.27-1.56,11.64
			c0.15,4.73,0.54,5.97,0.9,7.07c0.28,0.88,0.54,1.7,0.65,4.05c0.09,1.72-0.31,2.9-1.19,3.51C46.19,32.13,45.59,32.24,45.05,32.24z"
			/>
	</g>
	<g>
		<path d="M29.97,25.94c-0.07-0.05-0.11-0.07-0.12-0.07l0.01-0.02c-1.49-1.4-3.39-2.82-4.03-3.3l0.24-0.32
			c0.65,0.48,2.63,1.97,4.16,3.4L29.97,25.94z"/>
	</g>
	<g>
		<path d="M26.16,16.92l-0.12-0.38c1.46-0.49,4.56-1.62,8.9-3.76c0.1-0.05,9.48-4.17,12.6-7.37l0.3,0.28
			c-3.17,3.26-12.33,7.29-12.73,7.46C30.76,15.3,27.64,16.43,26.16,16.92z"/>
	</g>
	<g>
		<path d="M2.95,32.24c-0.54,0-1.14-0.11-1.65-0.47c-0.87-0.61-1.27-1.79-1.18-3.51c0.11-2.35,0.37-3.17,0.65-4.05
			c0.35-1.1,0.75-2.34,0.9-7.13C1.58,16.77-0.5,8.11,0.11,5.51c0.02-0.1,0.24-0.98,1.26-1.34c1.32-0.45,3.92-0.11,9.31,4.16
			l11.55,8.12l-0.2,0.36l-0.39-0.23L10.43,8.66C5.17,4.49,2.65,4.13,1.51,4.55c-0.83,0.3-0.99,1.01-1,1.04
			c-0.59,2.52,1.54,11.36,1.56,11.45c-0.14,4.9-0.55,6.17-0.91,7.3c-0.27,0.85-0.52,1.65-0.64,3.94c-0.07,1.57,0.27,2.63,1.02,3.16
			c1.17,0.81,2.98,0.09,3,0.08c4.36-0.35,10.17-3.89,12.46-5.39c0.37-0.24,0.64-0.42,0.8-0.52l0.22,0.34
			c-0.15,0.1-0.42,0.28-0.8,0.52c-2.33,1.52-8.2,5.09-12.59,5.44C4.62,31.93,3.86,32.24,2.95,32.24z"/>
	</g>
	<g>
		<path d="M18.03,25.94l-0.26-0.31c1.06-1,2.44-2.12,4.21-3.43l0.24,0.32c-1.7,1.27-3.04,2.36-4.08,3.32l0.01,0.01L18.03,25.94z"/>
	</g>
	<g>
		<path d="M21.9,16.94c-1.5-0.49-4.66-1.64-9.02-3.8C12.5,12.98,3.33,8.95,0.16,5.69l0.3-0.28c3.11,3.2,12.49,7.32,12.59,7.36
			c4.35,2.14,7.49,3.29,8.97,3.79L21.9,16.94z"/>
	</g>
	<g>
		<path d="M22.77,17"/>
	</g>
	<g>
		<path d="M24.05,23.16c-0.75,0-1.45-0.22-2.06-0.63c-0.35-0.24-0.68-0.56-0.97-0.96c-0.3-0.46-0.49-0.96-0.57-1.47
			c-0.03-0.19-0.05-0.39-0.05-0.59c0-0.11,0-0.22,0.01-0.31c0.09-1.11,0.68-2.11,1.62-2.74c1.18-0.78,2.79-0.81,4.01-0.03l0.19,0.14
			c0.93,0.68,1.48,1.78,1.48,2.94c0,1.24-0.61,2.38-1.64,3.05C25.44,22.96,24.77,23.16,24.05,23.16z M24.05,16.25
			c-0.64,0-1.27,0.19-1.8,0.54c-0.83,0.55-1.35,1.45-1.44,2.44c-0.01,0.09-0.01,0.18-0.01,0.27c0,0.18,0.02,0.36,0.05,0.53
			c0.07,0.45,0.25,0.89,0.51,1.3c0.25,0.34,0.54,0.63,0.86,0.85c1.07,0.75,2.51,0.73,3.62,0.03c0.91-0.6,1.46-1.61,1.46-2.71
			c0-1.03-0.49-2-1.32-2.62l-0.09-0.06C25.27,16.43,24.67,16.25,24.05,16.25z"/>
	</g>
	<g>
		<path d="M20.59,19.42c-2.13-0.07-7.69-0.63-13.29-4.29l0.22-0.34c5.52,3.59,10.98,4.15,13.09,4.23L20.59,19.42z"/>
	</g>
	<g>
		<path d="M10.21,22.61c-1.33,0-2.71-0.14-4.08-0.48l0.1-0.4c5.74,1.45,11.63-0.82,13.85-1.66l0.48-0.18l0.14,0.38l-0.48,0.18
			C18.51,21.11,14.59,22.61,10.21,22.61z"/>
	</g>
	<g>
		<path d="M7.54,26.13c-0.04,0-0.09,0-0.13-0.01v-0.4c0.05,0,0.09,0,0.13,0c5.61,0,11.33-3.1,13.53-4.45l0.22,0.36
			C19.05,22.98,13.25,26.13,7.54,26.13z"/>
	</g>
	<g>
		<path d="M27.54,19.42l-0.02-0.4c2.1-0.08,7.58-0.63,13.1-4.23l0.22,0.34C35.24,18.78,29.67,19.34,27.54,19.42z"/>
	</g>
	<g>
		<path d="M37.93,22.61c-4.38,0-8.3-1.5-10.02-2.16l-0.48-0.18l0.14-0.38l0.48,0.18c2.2,0.85,8.04,3.11,13.85,1.66l0.1,0.4
			C40.64,22.47,39.26,22.61,37.93,22.61z"/>
	</g>
	<g>
		<path d="M40.6,26.13c-5.72,0-11.52-3.14-13.76-4.5l0.22-0.36c2.2,1.35,7.92,4.45,13.54,4.45c0.04,0,0.08,0,0.13,0v0.4
			C40.69,26.13,40.64,26.13,40.6,26.13z"/>
	</g>
	<g>
		<path d="M15.91,43.98l-0.04-0.31l-0.99-7.24l-9.84,3.48l0.51-0.58l11.41-13.16l0.3,0.26L6.38,39.01l8.85-3.14l0.03,0.25l0.98,7.16
			c3.68-2.79,7.25-16.85,7.28-17l0.13-0.53l0.25,0.49c1.89,3.7,6.5,12.72,7.65,14.88c0.17-1.17,0.49-4.09,0.69-6.01l0.03-0.28
			l7.05,3.05L31.2,26.74l0.34-0.24l9,12.36l-7.93-3.43c-0.66,6.36-0.76,6.4-0.89,6.46l-0.1,0.05l-0.1-0.06
			c-0.06-0.04-0.15-0.1-7.75-14.98c-0.71,2.73-4.05,14.76-7.59,16.91L15.91,43.98z"/>
	</g>
</g>
</svg>
