<?xml version="1.0" encoding="utf-8"?>
<!-- Generator: Adobe Illustrator 23.0.0, SVG Export Plug-In . SVG Version: 6.00 Build 0)  -->
<svg version="1.1" id="Calque_1" xmlns="http://www.w3.org/2000/svg" xmlns:xlink="http://www.w3.org/1999/xlink" x="0px" y="0px"
	 viewBox="0 0 48 48" style="enable-background:new 0 0 48 48;" xml:space="preserve">
<g>
	<g>
		<g>
			<path d="M23.99,47.45c-2.91,0-6.01-0.75-8.95-2.24c-5.39-3.4-9.22-7.84-11.99-13.93C1.05,26.99,0,22.28,0,17.64v-2.21
				c0-1,1.75-1.37,3.88-1.72c0.43-0.08,0.78-0.13,1.02-0.19c2.37-0.92,6.68-3.1,8.62-7.28L13.5,1.63c0-0.43,0.43-1.08,1.1-1.08h9.38
				v0.54h-9.38c-0.38,0-0.57,0.4-0.57,0.54v4.72c-2.02,4.5-6.5,6.74-8.97,7.71c-0.3,0.05-0.65,0.11-1.08,0.19
				c-1.02,0.16-3.45,0.57-3.45,1.19v2.21c0,4.55,1.05,9.19,2.99,13.42c2.75,5.98,6.5,10.32,11.78,13.66
				c2.83,1.43,5.85,2.18,8.68,2.18V47.45z"/>
		</g>
		<g>
			<path d="M23.99,47.45v-0.54c2.86,0,5.88-0.75,8.71-2.18c5.28-3.34,9.03-7.68,11.75-13.66c1.97-4.2,3.02-8.84,3.02-13.42v-2.21
				c0-0.81-1.46-0.97-2.53-1.08c-0.35-0.03-0.67-0.05-0.89-0.11c-2.02-0.43-4.18-1.46-6.09-2.91c-1.86-1.37-3.99-3.21-4.02-4.99
				V1.63c0-0.11-0.16-0.54-0.57-0.54h-9.38V0.55h9.38c0.73,0,1.1,0.7,1.1,1.08v4.72c0.03,1.72,2.78,3.77,3.8,4.55
				c1.86,1.37,3.93,2.37,5.88,2.8c0.22,0.05,0.51,0.08,0.84,0.11c1.21,0.13,3.02,0.3,3.02,1.62v2.21c0,4.66-1.05,9.38-3.07,13.64
				c-2.72,6.01-6.63,10.56-11.97,13.93C30.02,46.69,26.92,47.45,23.99,47.45z"/>
		</g>
	</g>
	<g>
		<path d="M24.69,19.85h-1.1c-1.16,0-2.32-0.3-3.1-0.54c-4.69-0.84-8.68-4.39-10.13-9.03l0.54-0.16c1.37,4.45,5.2,7.84,9.73,8.65
			c0.78,0.24,1.89,0.54,2.96,0.54h1.1c0.89,0,1.89-0.19,2.96-0.54c4.72-1.1,8.17-4.15,9.46-8.38l0.54,0.16
			c-1.37,4.42-4.96,7.6-9.86,8.76C26.68,19.66,25.63,19.85,24.69,19.85z"/>
	</g>
	<g>
		<path d="M23.88,17.37c-6.09,0-10.75-3.23-12.15-8.46l0.54-0.16c1.32,4.99,5.79,8.09,11.62,8.09c5.01,0,9.68-3.15,11.62-7.84
			l0.49,0.22C33.96,14.08,29.11,17.37,23.88,17.37z"/>
	</g>
	<g>
		<g>
			<path d="M24.05,19.39c1.62,0,2.93,1.31,2.93,2.93s-1.31,2.93-2.93,2.93c-1.63,0-2.94-1.31-2.94-2.93S22.42,19.39,24.05,19.39z
				 M24.05,24.65c1.28,0,2.33-1.04,2.33-2.33c0-1.28-1.04-2.33-2.33-2.33c-1.28,0-2.34,1.04-2.34,2.33
				C21.71,23.61,22.76,24.65,24.05,24.65z"/>
		</g>
	</g>
	<g>
		<g>
			<path d="M20.43,19.16c0.83,0,1.5,0.66,1.5,1.5s-0.66,1.5-1.5,1.5c-0.82,0-1.48-0.66-1.48-1.5S19.62,19.16,20.43,19.16z
				 M20.43,21.55c0.5,0,0.89-0.39,0.89-0.89c0-0.48-0.41-0.89-0.89-0.89c-0.47,0-0.88,0.41-0.88,0.89S19.95,21.55,20.43,21.55z"/>
		</g>
	</g>
	<g>
		<g>
			<path d="M27.64,19.16c0.82,0,1.5,0.68,1.5,1.5c0,0.83-0.66,1.5-1.5,1.5s-1.5-0.66-1.5-1.5S26.81,19.16,27.64,19.16z M27.64,21.55
				c0.48,0,0.89-0.41,0.89-0.89s-0.41-0.89-0.89-0.89c-0.48,0-0.89,0.41-0.89,0.89C26.75,21.16,27.15,21.55,27.64,21.55z"/>
		</g>
	</g>
</g>
</svg>
