<?xml version="1.0" standalone="no"?>
<!DOCTYPE svg PUBLIC "-//W3C//DTD SVG 20010904//EN"
 "http://www.w3.org/TR/2001/REC-SVG-20010904/DTD/svg10.dtd">
<svg version="1.0" xmlns="http://www.w3.org/2000/svg"
 width="512.000000pt" height="512.000000pt" viewBox="0 0 512.000000 512.000000"
 preserveAspectRatio="xMidYMid meet">

<g transform="translate(0.000000,512.000000) scale(0.100000,-0.100000)"
fill="#000000" stroke="none">
<path d="M2530 5088 c-45 -73 -65 -206 -47 -300 l8 -38 -228 0 c-256 0 -332
-8 -401 -41 -61 -30 -141 -111 -172 -174 l-25 -50 -5 -405 -5 -405 -150 -5
c-147 -5 -151 -6 -213 -39 -72 -39 -120 -88 -159 -163 -27 -51 -28 -60 -31
-219 l-4 -166 -43 4 c-23 3 -58 0 -77 -6 -91 -30 -126 -136 -74 -225 14 -24
38 -54 53 -65 l28 -21 -28 -21 c-67 -51 -96 -156 -62 -223 9 -16 14 -29 13
-30 -38 -14 -94 -52 -140 -95 -66 -60 -122 -162 -138 -250 -6 -31 -10 -250
-10 -512 l0 -459 -161 0 c-91 0 -169 -4 -180 -10 -39 -21 -21 -54 137 -256 85
-109 161 -202 167 -206 7 -4 407 -8 890 -8 l877 0 0 -200 0 -200 -105 0 c-172
0 -247 -24 -337 -108 -56 -53 -102 -133 -93 -163 4 -10 16 -21 28 -24 12 -3
359 -4 771 -3 743 3 749 3 762 24 34 50 -92 201 -204 245 -46 18 -83 23 -194
27 l-138 4 0 199 0 199 884 0 884 0 40 48 c99 119 292 375 292 387 0 7 -7 21
-16 29 -13 13 -44 16 -184 16 l-169 0 -3 503 -3 502 -28 60 c-41 88 -98 157
-167 204 -68 45 -170 81 -231 81 l-38 0 -3 438 -3 437 -29 59 c-37 76 -101
140 -174 174 -51 24 -72 28 -202 32 l-145 5 -3 122 -3 122 30 16 c43 22 79 73
92 132 l12 51 33 -14 c45 -19 118 -18 160 2 99 47 101 200 2 277 l-32 25 32
27 c86 72 101 178 34 245 -47 48 -105 59 -181 37 l-51 -15 -6 37 c-9 54 -49
116 -90 141 -50 32 -123 24 -165 -16 -40 -37 -69 -95 -69 -134 0 -28 -2 -31
-22 -24 -114 36 -130 38 -314 41 l-192 4 -12 62 c-22 112 -86 215 -173 278
-51 37 -73 36 -97 -3z m113 -135 c19 -27 42 -66 51 -88 24 -57 31 -152 16
-214 l-12 -53 -33 32 c-74 72 -114 195 -96 295 17 92 25 95 74 28z m906 -168
c30 -39 34 -77 15 -147 -29 -110 -29 -116 0 -129 25 -12 30 -9 86 49 40 40 73
65 99 73 81 24 130 -19 98 -86 -21 -44 -48 -61 -133 -83 -85 -22 -94 -27 -94
-57 0 -28 15 -38 90 -54 73 -15 116 -43 137 -86 19 -41 13 -61 -28 -84 -42
-24 -100 0 -167 69 -57 60 -78 70 -100 48 -16 -16 -15 -44 4 -98 43 -122 -13
-237 -91 -186 -39 25 -49 84 -29 159 26 99 27 106 14 122 -22 26 -44 17 -105
-45 -64 -64 -107 -85 -155 -75 -58 13 -66 71 -17 120 31 31 73 48 169 69 31 7
44 36 29 65 -7 13 -26 21 -61 26 -109 15 -190 89 -162 149 28 61 114 42 200
-44 32 -33 66 -60 75 -60 27 0 47 39 36 69 -28 71 -37 131 -28 166 20 73 79
98 118 50z m-999 -160 c28 -45 116 -124 148 -132 35 -8 67 31 89 108 l16 59
133 0 132 0 -5 -58 c-6 -68 16 -123 69 -167 l32 -27 -26 -22 c-51 -41 -78 -94
-78 -153 0 -49 4 -58 39 -96 39 -42 40 -42 113 -42 40 0 85 4 101 9 25 8 27 6
27 -20 0 -43 39 -113 76 -137 l34 -22 0 -127 0 -128 -61 0 c-56 0 -65 3 -99
34 l-37 33 33 27 c92 73 97 212 10 265 -55 33 -98 34 -193 6 -20 -6 -23 -4
-23 21 -1 64 -54 141 -113 163 -92 35 -193 -37 -212 -150 -5 -31 -11 -39 -23
-34 -88 33 -166 23 -218 -29 -63 -63 -50 -165 30 -238 l35 -33 -39 -33 -39
-32 -378 2 -378 3 0 370 c0 423 2 437 71 514 45 51 95 80 154 92 19 4 153 7
297 8 l261 1 22 -35z m405 -509 c36 -36 41 -84 16 -165 -27 -88 -26 -99 4
-113 23 -10 30 -6 93 55 73 70 114 87 164 68 62 -23 38 -108 -42 -148 -24 -13
-65 -26 -92 -29 -55 -7 -88 -36 -72 -61 14 -22 30 -29 94 -42 72 -15 116 -42
137 -86 22 -47 7 -81 -40 -90 -49 -10 -98 15 -161 81 -51 54 -57 57 -80 46
-31 -14 -32 -29 -6 -102 26 -74 25 -119 -3 -161 -31 -47 -66 -50 -101 -9 -33
39 -34 95 -6 181 20 58 20 62 4 80 -9 11 -23 19 -29 19 -7 0 -42 -29 -77 -64
-87 -86 -155 -100 -194 -40 -15 22 -15 27 3 61 23 43 67 69 149 86 73 15 84
22 84 53 0 28 -18 38 -99 54 -95 19 -146 65 -139 126 2 18 12 34 29 43 44 25
102 1 169 -70 61 -64 81 -71 104 -38 13 19 12 27 -5 77 -10 30 -19 75 -19 99
0 97 60 143 115 89z m-485 -558 c0 -42 31 -93 72 -119 27 -16 45 -19 98 -16
36 3 75 8 88 12 19 6 22 4 22 -21 0 -41 37 -111 75 -140 98 -74 229 -5 251
133 l6 41 34 -14 c18 -8 57 -14 86 -14 88 0 144 48 155 131 l6 41 216 -4 c198
-4 220 -6 266 -26 60 -28 98 -62 133 -122 l27 -45 3 -432 3 -433 -486 0 -485
0 7 28 c5 15 8 73 8 130 0 91 -2 105 -19 118 -23 16 -37 13 -123 -26 -78 -36
-152 -108 -192 -189 l-31 -61 -83 0 -82 0 -20 36 c-20 38 -78 74 -117 74 -45
0 -95 -20 -133 -54 l-39 -33 -28 39 c-90 124 -260 110 -293 -24 -7 -27 -10
-28 -70 -28 l-63 0 5 39 c7 54 -13 107 -59 153 l-39 39 41 45 c47 51 60 80 60
133 0 105 -118 169 -237 127 l-39 -14 -12 51 c-21 89 -83 147 -157 147 -42 0
-69 -12 -107 -48 l-28 -26 0 95 c0 73 5 104 21 139 38 85 115 144 208 160 25
4 272 8 549 9 l502 1 0 -32z m-1118 -389 c24 -13 48 -67 48 -108 0 -17 -10
-60 -21 -96 -18 -53 -19 -68 -9 -80 23 -28 55 -17 98 34 22 26 56 56 75 65
103 48 175 -17 112 -100 -25 -33 -55 -46 -171 -74 -29 -7 -43 -17 -47 -31 -7
-26 25 -59 56 -59 53 0 125 -30 156 -65 53 -61 34 -115 -40 -115 -54 0 -88 20
-142 81 -33 38 -50 50 -67 47 -41 -6 -46 -29 -22 -102 26 -78 27 -104 8 -151
-20 -47 -56 -64 -91 -41 -50 33 -58 104 -23 203 18 51 19 65 8 77 -23 28 -54
18 -105 -35 -58 -59 -92 -79 -135 -79 -50 0 -70 16 -70 55 0 65 62 109 182
131 44 7 61 24 56 56 -3 24 -15 29 -110 48 -66 13 -105 40 -124 87 -27 63 22
103 99 82 29 -8 58 -28 98 -70 60 -63 91 -73 109 -38 9 16 7 34 -9 82 -12 33
-21 76 -21 94 0 40 22 88 47 102 23 13 30 13 55 0z m1598 -622 c-24 -65 -90
-142 -149 -175 l-41 -23 0 54 c0 105 60 211 155 275 l50 34 3 -54 c2 -37 -4
-73 -18 -111z m-865 21 c37 -29 53 -72 61 -158 6 -62 10 -73 30 -82 33 -15 57
8 72 70 17 64 45 108 84 132 42 25 63 25 88 0 45 -45 15 -119 -76 -185 -62
-46 -73 -65 -54 -95 7 -12 21 -12 92 -2 118 17 173 -2 192 -65 10 -30 -28 -68
-77 -77 -28 -5 -51 -1 -99 19 -83 35 -105 40 -123 25 -24 -20 -17 -48 23 -93
60 -66 72 -88 72 -134 0 -48 -26 -83 -61 -83 -12 0 -36 15 -54 33 -33 33 -55
101 -55 170 0 38 -15 57 -46 57 -28 0 -36 -12 -58 -85 -33 -106 -122 -168
-171 -118 -13 12 -16 28 -12 60 5 50 26 76 105 135 56 41 65 68 32 91 -16 11
-31 11 -94 -1 -89 -17 -134 -6 -170 41 -19 26 -19 30 -6 55 10 17 31 32 57 40
42 14 66 8 181 -39 58 -24 96 27 52 71 -11 11 -36 41 -55 66 -28 37 -35 54
-35 91 0 78 48 106 105 61z m-903 -186 c33 -71 76 -102 139 -102 73 0 139 56
156 133 l6 27 208 0 c163 0 209 -3 209 -13 0 -8 -16 -13 -46 -15 -93 -4 -174
-76 -174 -154 0 -81 52 -136 162 -172 16 -5 16 -9 -3 -52 -25 -56 -23 -137 5
-179 10 -15 38 -36 63 -47 39 -17 51 -18 93 -8 28 7 65 26 88 45 l39 34 32
-44 c75 -105 210 -111 272 -12 16 26 19 46 17 108 l-3 75 58 11 c126 24 187
121 140 220 -20 42 -82 90 -129 99 -19 3 -34 8 -34 10 0 2 10 24 22 49 l22 45
70 0 71 0 2 -75 c1 -85 19 -125 56 -125 61 0 222 109 256 174 l14 26 568 0
c383 0 585 -4 621 -11 109 -23 212 -99 257 -188 48 -94 51 -126 51 -608 l0
-453 -1890 0 -1891 0 3 488 3 487 27 58 c68 145 191 226 343 227 l70 0 27 -58z
m3618 -1298 c0 -3 -18 -28 -41 -55 l-41 -49 -484 0 -484 0 -12 -25 c-9 -21 -8
-28 7 -45 18 -19 30 -20 462 -20 l444 0 -38 -50 -38 -49 -1975 -1 -1976 0 -36
48 -37 47 1197 5 c658 3 1203 9 1210 13 15 10 16 49 0 65 -9 9 -300 12 -1248
12 l-1236 0 -37 50 c-20 27 -37 52 -37 55 0 3 990 5 2200 5 1210 0 2200 -3
2200 -6z m-2050 -584 l0 -200 -155 0 -155 0 0 200 0 200 155 0 155 0 0 -200z
m401 -318 c25 -12 61 -38 79 -57 l34 -35 -669 0 -668 0 24 26 c34 36 85 66
139 81 34 9 167 12 530 10 483 -2 485 -2 531 -25z"/>
<path d="M3473 4465 c-40 -17 -51 -59 -25 -94 54 -73 159 1 107 76 -19 27 -46
33 -82 18z"/>
<path d="M2266 4571 c-48 -10 -58 -37 -36 -98 51 -144 180 -253 338 -283 68
-14 176 -7 198 11 23 19 16 62 -21 137 -86 171 -296 273 -479 233z m233 -117
c64 -29 134 -92 162 -146 l19 -38 -43 0 c-105 0 -216 60 -279 150 -21 29 -38
58 -38 63 0 17 121 -2 179 -29z"/>
<path d="M2871 3774 c-26 -33 -27 -58 -1 -84 43 -43 110 -14 110 47 0 61 -71
85 -109 37z"/>
<path d="M1282 2824 c-31 -21 -31 -87 0 -108 30 -21 50 -20 82 5 17 13 26 30
26 49 0 19 -9 36 -26 49 -32 25 -52 26 -82 5z"/>
<path d="M2125 2260 c-39 -43 -9 -110 51 -110 36 0 64 29 64 65 0 58 -76 88
-115 45z"/>
<path d="M3269 2291 c-39 -21 -99 -84 -99 -103 0 -7 -14 3 -32 21 -66 68 -139
85 -207 49 -61 -31 -84 -76 -78 -149 3 -31 12 -70 21 -86 l15 -31 -32 -6 c-44
-8 -110 -52 -130 -85 -61 -103 10 -219 146 -237 43 -6 47 -9 40 -28 -5 -11 -8
-49 -8 -83 1 -67 16 -98 68 -137 62 -46 176 -12 229 68 l23 34 41 -38 c118
-108 274 -53 274 97 0 26 -9 66 -19 89 l-18 41 41 11 c23 6 62 28 86 50 41 36
44 42 48 98 3 50 0 64 -20 93 -29 44 -99 81 -151 81 -33 0 -38 3 -33 17 45
116 -16 241 -121 250 -34 2 -58 -2 -84 -16z m115 -93 c34 -48 15 -111 -60
-198 -24 -28 -44 -54 -44 -58 0 -11 33 -42 46 -42 6 0 36 11 66 25 85 40 177
31 200 -20 15 -33 -4 -69 -47 -90 -41 -19 -84 -19 -154 0 -108 28 -126 -26
-33 -99 66 -52 92 -91 92 -137 0 -60 -42 -84 -99 -55 -40 21 -52 39 -81 123
-14 42 -33 81 -43 87 -25 16 -50 -4 -58 -45 -30 -148 -30 -148 -65 -178 -41
-37 -77 -40 -98 -9 -34 48 -15 113 58 196 51 60 50 56 36 83 -14 25 -33 24
-105 -6 -33 -13 -77 -25 -98 -25 -108 0 -144 91 -53 134 41 19 77 20 148 4 58
-13 79 -12 90 5 17 27 5 48 -52 92 -67 52 -90 87 -90 139 0 64 60 88 115 44
29 -23 75 -110 75 -143 0 -29 28 -65 49 -65 29 0 40 21 51 99 5 40 17 85 25
101 31 60 100 80 129 38z"/>
<path d="M3150 1900 c-57 -57 15 -150 79 -103 34 26 40 74 12 102 -27 27 -65
27 -91 1z"/>
<path d="M3845 4010 c-74 -15 -95 -27 -95 -55 0 -38 35 -101 88 -158 89 -95
186 -138 318 -139 95 -1 180 23 189 53 18 55 -113 214 -215 261 -94 44 -191
57 -285 38z m191 -95 c61 -18 140 -72 177 -122 l28 -38 -37 -8 c-99 -20 -253
43 -321 131 -21 28 -23 36 -12 43 22 14 110 11 165 -6z"/>
<path d="M303 3040 c-30 -12 -30 -59 -3 -137 28 -81 82 -157 145 -205 l54 -42
-58 -21 c-79 -29 -119 -55 -178 -118 -114 -120 -105 -166 35 -196 183 -38 380
44 469 196 75 129 -1 343 -162 453 -82 56 -246 94 -302 70z m167 -102 c52 -15
126 -65 160 -108 34 -43 75 -128 66 -137 -10 -10 -124 26 -164 51 -68 42 -152
154 -152 201 0 16 14 15 90 -7z m188 -374 c30 -9 28 -15 -19 -63 -79 -79 -219
-120 -318 -94 l-34 9 33 37 c37 43 102 83 163 102 44 14 137 19 175 9z"/>
</g>
</svg>
