<?xml version="1.0" standalone="no"?>
<!DOCTYPE svg PUBLIC "-//W3C//DTD SVG 20010904//EN"
 "http://www.w3.org/TR/2001/REC-SVG-20010904/DTD/svg10.dtd">
<svg version="1.0" xmlns="http://www.w3.org/2000/svg"
 width="512.000000pt" height="512.000000pt" viewBox="0 0 512.000000 512.000000"
 preserveAspectRatio="xMidYMid meet">

<g transform="translate(0.000000,512.000000) scale(0.100000,-0.100000)"
fill="#000000" stroke="none">
<path d="M3973 5076 c-63 -21 -123 -58 -175 -112 -203 -205 -179 -570 53 -818
l69 -74 0 -66 0 -67 -32 6 c-18 3 -103 17 -188 31 -299 49 -548 106 -855 194
-342 99 -791 264 -788 291 1 8 4 49 8 91 l7 77 94 31 95 32 57 -63 c166 -186
275 -299 287 -299 8 0 21 10 29 22 13 18 16 55 16 199 0 97 3 203 6 237 l7 60
88 38 c94 39 113 53 107 80 -8 42 -31 39 -191 -29 -756 -321 -1541 -511 -2377
-578 -147 -11 -170 -18 -170 -49 0 -39 22 -43 166 -31 76 7 141 8 145 4 4 -4
55 -93 114 -198 58 -104 114 -198 124 -209 44 -44 68 15 157 391 20 81 9 74
148 94 55 8 91 9 93 3 2 -5 61 -94 131 -199 133 -199 160 -224 182 -173 5 13
27 121 48 241 22 120 42 220 45 223 4 4 161 48 193 54 1 0 68 -85 149 -190
116 -148 153 -190 171 -190 33 0 42 23 50 133 4 53 11 97 16 97 5 0 22 -7 38
-15 29 -15 30 -17 31 -98 0 -45 4 -152 7 -238 7 -157 15 -189 48 -189 11 0
130 128 295 318 l45 52 95 -32 94 -33 26 -232 c14 -127 29 -238 32 -247 4 -9
17 -16 31 -16 20 0 50 33 167 188 78 103 144 189 146 191 3 5 194 -36 200 -43
2 -2 24 -106 48 -231 25 -125 50 -234 57 -242 27 -33 50 -9 177 189 69 108
128 199 131 202 3 2 48 -2 100 -10 52 -7 100 -14 106 -14 6 0 18 -26 28 -57
10 -32 33 -86 52 -121 l34 -63 0 -359 c0 -340 -1 -360 -17 -351 -96 47 -190
47 -285 0 -10 -5 -26 -5 -35 0 -95 47 -187 47 -283 1 -24 -11 -24 -47 -1 -62
18 -11 21 -23 21 -78 0 -38 5 -71 12 -78 16 -16 200 -16 216 0 7 7 12 40 12
78 0 54 3 67 20 78 16 10 24 10 40 0 17 -11 20 -24 20 -78 0 -38 5 -71 12 -78
8 -8 47 -12 108 -12 61 0 100 4 108 12 7 7 12 40 12 78 0 54 3 67 20 78 20 12
20 10 20 -112 0 -104 -3 -125 -16 -130 -27 -10 -577 -7 -615 4 -20 6 -54 24
-74 40 -45 35 -70 38 -86 9 -16 -31 14 -67 86 -104 51 -26 70 -30 161 -33
l104 -4 0 -94 c0 -85 -3 -99 -32 -159 l-32 -65 -108 0 -108 0 0 108 c0 71 -4
112 -12 120 -7 7 -40 12 -80 12 l-68 0 0 228 c0 164 -3 231 -12 240 -8 8 -49
12 -120 12 l-108 0 0 188 c0 133 -4 192 -12 200 -7 7 -40 12 -80 12 l-67 0 -3
111 c-3 94 -6 114 -20 123 -13 8 -23 8 -35 0 -15 -9 -18 -29 -21 -123 l-3
-111 -39 0 -39 0 -3 111 c-3 94 -6 114 -20 123 -13 8 -23 8 -35 0 -15 -9 -18
-29 -21 -123 l-3 -111 -39 0 -39 0 -3 111 c-3 94 -6 114 -20 123 -13 8 -23 8
-35 0 -15 -9 -18 -29 -21 -123 l-3 -111 -67 0 c-40 0 -73 -5 -80 -12 -8 -8
-12 -67 -12 -200 l0 -188 -108 0 c-71 0 -112 -4 -120 -12 -9 -9 -12 -76 -12
-240 l0 -228 -68 0 c-40 0 -73 -5 -80 -12 -8 -8 -12 -49 -12 -120 l0 -108
-160 0 -160 0 0 188 c0 133 -4 192 -12 200 -8 8 -67 12 -200 12 l-188 0 0 269
c0 209 -3 271 -13 279 -7 6 -60 13 -117 14 l-104 3 72 54 c98 72 120 117 87
180 -18 36 -75 64 -112 55 -44 -10 -75 -47 -123 -144 -24 -49 -47 -90 -50 -90
-3 0 -26 41 -50 91 -51 103 -77 134 -121 143 -61 12 -129 -43 -129 -104 0 -40
29 -78 102 -131 l72 -54 -104 -3 c-57 -1 -110 -8 -117 -14 -10 -8 -13 -63 -13
-239 l0 -229 -68 0 c-40 0 -73 -5 -80 -12 -9 -9 -12 -76 -12 -240 l0 -228 -29
0 c-16 0 -33 -6 -39 -13 -17 -21 -97 -1874 -81 -1893 8 -10 33 -14 80 -14 l69
0 0 -68 c0 -40 5 -73 12 -80 17 -17 202 -16 216 1 6 7 13 60 14 118 l3 104 40
19 c62 29 156 32 249 7 80 -21 84 -21 1826 -21 1742 0 1746 0 1826 21 94 25
191 22 250 -7 l39 -19 3 -104 c1 -58 8 -111 14 -118 14 -17 199 -18 216 -1 7
7 12 40 12 80 l0 68 69 0 c47 0 72 4 80 14 16 19 -64 1872 -81 1893 -6 7 -23
13 -39 13 l-29 0 0 320 0 320 28 0 c41 0 52 17 52 80 0 54 -2 57 -53 108 l-53
52 -89 0 -90 0 0 45 c-1 61 -42 105 -108 112 -41 5 -48 2 -83 -30 -34 -31 -38
-41 -39 -81 0 -41 -2 -46 -22 -46 -13 0 -23 2 -23 5 0 3 21 107 46 232 45 222
47 229 83 268 48 53 91 116 129 190 22 44 40 65 68 80 99 52 240 233 284 365
100 297 -72 610 -344 628 -75 5 -167 -14 -213 -44 -22 -14 -24 -12 -54 48 -43
85 -118 161 -197 200 -53 26 -78 32 -145 35 -51 2 -98 -2 -124 -11z m189 -76
c87 -25 187 -122 223 -218 l17 -44 -29 -31 c-45 -48 -74 -94 -99 -155 -20 -49
-27 -57 -67 -72 -94 -36 -184 -124 -237 -233 l-38 -78 -47 57 c-121 149 -173
345 -131 499 54 204 232 323 408 275z m-1590 -332 c-1 -79 -4 -154 -5 -167 -2
-22 -17 -9 -109 93 -60 65 -108 121 -108 124 0 6 201 89 220 91 3 1 4 -63 2
-141z m2228 77 c94 -48 157 -130 186 -245 30 -118 4 -259 -68 -373 -31 -49
-144 -177 -157 -177 -3 0 -5 30 -3 68 12 239 -154 461 -364 488 l-54 6 26 48
c51 94 125 162 212 195 50 20 176 14 222 -10z m-2814 -177 c-3 -18 -11 -90
-17 -160 -6 -71 -14 -128 -18 -127 -8 0 -191 237 -191 246 0 6 189 67 223 72
4 0 6 -14 3 -31z m-611 -175 c-4 -27 -16 -99 -28 -162 l-22 -114 -88 133 c-49
72 -86 134 -83 137 4 4 193 49 219 52 5 1 6 -20 2 -46z m3102 3 c56 -28 122
-95 152 -155 88 -171 58 -369 -82 -556 -55 -73 -110 -118 -183 -151 l-56 -25
4 -59 3 -60 -34 0 c-27 0 -32 3 -26 18 3 9 9 37 12 62 5 45 5 45 -46 80 -89
61 -172 192 -207 330 -22 87 -15 224 15 303 78 201 281 298 448 213z m-3721
-83 c-3 -10 -19 -76 -37 -148 -17 -71 -35 -134 -39 -138 -4 -4 -41 54 -84 129
-42 75 -75 138 -73 140 2 3 174 27 225 33 8 0 11 -6 8 -16z m1571 -58 c90 -33
101 -40 90 -54 -6 -9 -55 -65 -107 -125 l-95 -109 -6 89 c-12 158 -10 247 4
241 6 -2 58 -21 114 -42z m593 -190 c52 -15 97 -28 99 -31 5 -4 -181 -253
-190 -254 -3 0 -11 51 -18 113 -6 61 -14 134 -18 161 -5 44 -4 48 13 43 10 -3
62 -18 114 -32z m608 -141 c74 -13 101 -21 98 -30 -10 -26 -158 -254 -165
-254 -6 0 -62 277 -61 304 0 4 6 6 13 3 7 -3 59 -13 115 -23z m657 -464 c-32
-112 -28 -140 21 -140 20 0 24 -5 24 -32 0 -34 -59 -602 -63 -603 -1 0 -12 -6
-24 -13 l-23 -12 0 430 0 430 35 -22 c21 -14 33 -29 30 -38z m245 -2 c0 -7
-16 -95 -36 -195 l-37 -181 -33 -4 -34 -4 6 51 c3 27 8 79 12 115 l7 65 37 3
c45 4 54 26 43 99 -5 33 -3 48 7 54 19 12 28 11 28 -3z m-3858 -134 c15 -27
28 -52 28 -57 0 -4 -22 9 -50 30 -52 39 -58 51 -38 71 19 19 31 10 60 -44z
m356 44 c20 -20 14 -32 -38 -71 -27 -21 -50 -35 -50 -32 0 8 41 88 52 103 13
15 21 15 36 0z m1912 -156 c0 -26 -23 -57 -58 -76 -7 -5 -27 5 -49 24 -31 28
-42 31 -76 27 -24 -3 -50 -16 -68 -33 l-29 -28 -29 28 c-18 17 -44 30 -68 33
-34 4 -45 1 -75 -26 -20 -17 -39 -31 -43 -31 -20 0 -65 57 -65 82 l0 28 280 0
280 0 0 -28z m1790 -67 c26 -32 -13 -81 -47 -59 -35 22 -23 74 17 74 10 0 23
-7 30 -15z m-2144 -60 c52 -45 103 -45 145 0 30 31 34 31 76 -5 35 -31 64 -37
107 -20 l26 10 0 -75 0 -75 -280 0 -280 0 0 75 0 75 26 -10 c43 -17 72 -11
106 20 18 16 36 30 39 30 3 0 19 -11 35 -25z m-1806 -85 l0 -80 -120 0 -120 0
0 80 0 80 120 0 120 0 0 -80z m320 0 l0 -80 -120 0 -120 0 0 80 0 80 120 0
120 0 0 -80z m3893 -28 c15 -15 27 -33 27 -40 0 -9 -78 -12 -320 -12 -242 0
-320 3 -320 12 0 7 12 25 27 40 l27 28 266 0 266 0 27 -28z m-4213 -212 l0
-80 -120 0 -120 0 0 80 0 80 120 0 120 0 0 -80z m320 -240 l0 -320 -40 0 -40
0 0 228 c0 164 -3 231 -12 240 -7 7 -40 12 -80 12 l-68 0 0 80 0 80 120 0 120
0 0 -320z m2080 297 c0 -19 -13 -31 -60 -55 -33 -18 -71 -32 -84 -32 -13 0
-53 13 -88 30 -81 38 -126 39 -203 0 -75 -37 -95 -37 -170 0 -77 39 -122 38
-203 0 -35 -17 -75 -30 -88 -30 -13 0 -51 14 -84 32 -47 24 -60 36 -60 55 l0
23 520 0 520 0 0 -23z m520 -17 l0 -40 -40 0 -40 0 0 40 0 40 40 0 40 0 0 -40z
m320 0 l0 -40 -40 0 -40 0 0 40 0 40 40 0 40 0 0 -40z m360 -280 l0 -320 -41
0 -42 0 6 43 c3 23 17 161 32 307 27 268 30 290 40 290 3 0 5 -144 5 -320z
m560 0 l0 -320 -240 0 -240 0 0 320 0 320 240 0 240 0 0 -320z m-2387 163 c38
-21 66 -28 107 -28 41 0 69 7 107 28 66 34 86 34 165 -3 78 -37 128 -38 194
-5 27 14 50 25 52 25 1 0 2 -58 2 -130 l0 -130 -520 0 -520 0 0 130 c0 72 1
130 3 130 1 0 24 -11 51 -25 66 -33 116 -32 191 4 76 37 103 38 168 4z m-1933
-163 l0 -80 -120 0 -120 0 0 80 0 80 120 0 120 0 0 -80z m320 0 l0 -80 -120 0
-120 0 0 80 0 80 120 0 120 0 0 -80z m3314 13 c-3 -27 -12 -100 -19 -163 l-13
-115 -1 151 c-1 105 3 154 11 162 22 22 27 13 22 -35z m-114 -168 l0 -165 -68
0 -68 0 -32 65 c-29 60 -32 74 -32 160 l0 94 93 4 c50 1 95 4 100 5 4 1 7 -72
7 -163z m-2640 -5 l0 -160 -160 0 -160 0 0 160 0 160 160 0 160 0 0 -160z
m2360 55 c0 -93 3 -112 25 -155 14 -27 25 -52 25 -55 0 -3 -40 -5 -90 -5 -49
0 -90 2 -90 5 0 3 11 28 25 55 22 43 25 62 25 155 l0 105 40 0 40 0 0 -105z
m-3240 -135 l0 -80 -120 0 -120 0 0 80 0 80 120 0 120 0 0 -80z m320 0 l0 -80
-120 0 -120 0 0 80 0 80 120 0 120 0 0 -80z m2400 0 l0 -80 -680 0 -680 0 0
80 0 80 680 0 680 0 0 -80z m-2929 -186 c13 -14 66 -60 117 -102 87 -71 93
-78 88 -106 -11 -68 -39 -494 -33 -509 3 -9 17 -17 30 -17 12 0 123 63 246
141 191 120 227 139 251 134 16 -3 33 -12 38 -18 5 -7 24 -127 42 -267 17
-140 37 -261 42 -267 25 -31 55 -10 222 155 229 224 203 206 270 191 l56 -12
83 -250 c84 -255 98 -284 134 -261 10 6 82 103 161 215 l143 204 45 0 46 0
122 -240 c109 -217 123 -240 146 -240 23 0 37 23 146 240 l122 240 45 0 45 0
149 -210 c135 -191 151 -210 178 -210 l29 0 83 256 83 255 49 12 50 11 134
-137 c73 -75 153 -158 176 -184 48 -53 77 -67 97 -46 8 8 30 118 56 275 l42
261 67 30 68 30 223 -139 c122 -76 225 -139 228 -139 3 0 14 6 24 13 18 13 17
23 -4 276 -12 144 -20 263 -18 265 21 14 168 139 182 155 14 15 31 21 62 21
l42 0 6 -82 c3 -46 19 -405 36 -798 16 -393 32 -752 35 -798 l6 -82 -70 0
c-76 0 -143 18 -202 56 -101 63 -230 80 -354 44 -69 -20 -100 -20 -1815 -20
-1715 0 -1746 0 -1815 20 -123 35 -250 20 -353 -43 -66 -41 -96 -49 -185 -55
l-88 -5 6 84 c3 46 19 406 35 799 17 393 33 752 36 798 l6 82 42 0 c33 0 48
-6 67 -26z m4383 5 c-10 -11 -59 -52 -109 -89 -379 -288 -888 -487 -1460 -569
-950 -137 -1949 82 -2590 569 -50 37 -99 78 -109 89 l-19 21 2153 0 2153 0
-19 -21z m-127 -367 c6 -75 12 -156 12 -179 l1 -42 -155 97 c-85 53 -154 99
-154 102 0 8 274 168 279 163 2 -2 10 -66 17 -141z m-3893 84 c39 -24 106 -63
149 -86 43 -23 76 -44 74 -47 -12 -11 -322 -203 -329 -203 -5 0 -6 17 -3 38 6
46 25 284 25 318 0 13 3 24 7 24 3 0 38 -20 77 -44z m649 -299 l148 -51 -135
-135 c-75 -74 -139 -132 -142 -129 -4 5 -52 341 -54 377 0 2 8 0 18 -4 9 -4
84 -30 165 -58z m2610 -94 c-13 -82 -27 -168 -31 -192 l-7 -44 -128 133 c-70
73 -127 136 -127 139 0 5 279 103 311 110 3 0 -5 -65 -18 -146z m-2008 -53
c66 -11 135 -20 154 -20 26 0 32 -3 27 -16 -5 -13 -187 -276 -206 -297 -7 -8
-120 313 -120 341 0 15 2 15 145 -8z m1415 8 c0 -20 -106 -339 -113 -341 -7
-2 -217 293 -217 305 0 4 17 8 38 9 20 0 84 8 142 18 131 23 150 24 150 9z
m-610 -63 c0 -10 -165 -335 -170 -335 -5 0 -170 325 -170 335 0 3 77 5 170 5
94 0 170 -2 170 -5z m-2370 -1060 l0 -55 -40 0 -40 0 0 43 c0 42 2 44 38 54
20 6 38 11 40 12 1 0 2 -24 2 -54z m4480 -12 l0 -43 -40 0 -40 0 0 54 0 53 40
-10 c39 -11 40 -12 40 -54z"/>
<path d="M4452 2748 c-33 -33 -2 -71 54 -66 43 4 65 28 48 56 -13 21 -84 28
-102 10z"/>
<path d="M4672 2647 c-34 -35 -39 -56 -20 -75 20 -20 42 -14 76 21 34 35 39
56 20 75 -20 20 -42 14 -76 -21z"/>
<path d="M4452 2508 c-21 -21 -13 -46 25 -77 40 -33 62 -38 81 -19 21 21 13
46 -25 77 -40 33 -62 38 -81 19z"/>
<path d="M4612 2348 c-33 -33 -2 -71 54 -66 43 4 65 28 48 56 -13 21 -84 28
-102 10z"/>
<path d="M3655 3256 c-16 -8 -43 -18 -60 -23 -37 -11 -46 -46 -16 -65 18 -11
21 -23 21 -78 0 -38 5 -71 12 -78 8 -8 47 -12 108 -12 61 0 100 4 108 12 7 7
12 40 12 78 0 55 3 67 21 78 30 19 21 54 -16 65 -16 5 -45 16 -63 23 -40 17
-87 17 -127 0z m105 -136 l0 -40 -40 0 -40 0 0 40 0 40 40 0 40 0 0 -40z"/>
</g>
</svg>
