<?xml version="1.0" encoding="UTF-8"?>
<svg version="1.1" xmlns="http://www.w3.org/2000/svg" width="512" height="512">
<path d="M0 0 C2.87029869 1.79393668 4.49131638 2.98263276 6 6 C6.08902493 7.35845193 6.11760132 8.72115974 6.11352539 10.08251953 C6.11344986 10.92324005 6.11337433 11.76396057 6.11329651 12.63015747 C6.10555458 13.99272171 6.10555458 13.99272171 6.09765625 15.3828125 C6.09553383 16.77691849 6.09553383 16.77691849 6.09336853 18.19918823 C6.08776053 21.17449124 6.07520668 24.14971964 6.0625 27.125 C6.05748603 29.13932183 6.05292295 31.15364484 6.04882812 33.16796875 C6.0377885 38.11200802 6.02051849 43.05599135 6 48 C6.61615173 48.05795746 7.23230347 48.11591492 7.86712646 48.17562866 C8.67635559 48.25737335 9.48558472 48.33911804 10.31933594 48.42333984 C11.12111267 48.5019223 11.9228894 48.58050476 12.7489624 48.66146851 C15.63478613 49.09546491 17.75044079 50.14347319 20.25 51.625 C23.66136088 53.65540683 23.66136088 53.65540683 27.53125 53.76953125 C29.90172176 53.0306342 32.02303766 52.15536115 34.25 51.0625 C40.0521838 48.39872613 45.611441 47 52 47 C51.97643433 45.221698 51.97643433 45.221698 51.95239258 43.4074707 C51.89800435 38.999988 51.86361754 34.59253485 51.83520508 30.18481445 C51.82013872 28.27883919 51.79968176 26.37289848 51.77368164 24.46704102 C51.73720358 21.72403424 51.72025208 18.98148672 51.70703125 16.23828125 C51.69154739 15.38913651 51.67606354 14.53999176 51.66011047 13.66511536 C51.65877587 8.95053802 51.89831752 5.80485753 55 2 C59.02314866 -0.68209911 62.27219919 -0.68843415 67 0 C70.49890004 2.11391877 71.70578686 3.11736059 73 7 C73.08610514 8.42718637 73.11771828 9.85806648 73.11352539 11.2878418 C73.11344986 12.14850754 73.11337433 13.00917328 73.11329651 13.8959198 C73.10813522 14.82100845 73.10297394 15.74609711 73.09765625 16.69921875 C73.09553383 18.12449638 73.09553383 18.12449638 73.09336853 19.5785675 C73.08776875 22.61491029 73.07521632 25.65117948 73.0625 28.6875 C73.05748497 30.74544164 73.05292207 32.80338444 73.04882812 34.86132812 C73.0377994 39.90758046 73.02053493 44.95377775 73 50 C74.01116379 50.29235031 74.01116379 50.29235031 75.04275513 50.59060669 C75.93372894 50.85219574 76.82470276 51.11378479 77.74267578 51.38330078 C78.62303497 51.64007599 79.50339417 51.8968512 80.41043091 52.16140747 C84.11772441 53.36195803 87.46048352 55.01710133 90.875 56.875 C91.51179688 57.20113281 92.14859375 57.52726562 92.8046875 57.86328125 C96.81791094 60.01202797 99.56993254 62.13343947 102 66 C104.46582259 76.29843554 98.90411097 88.49372558 93.90234375 97.25 C91.29119726 101.02463477 88.20688237 104.27348971 85.04882812 107.58349609 C78.35035317 114.67125656 74.55147193 121.38087406 73 131 C73.825 130.79375 74.65 130.5875 75.5 130.375 C79.75837306 129.91874574 83.08550389 130.21189684 87 132 C90.62344646 135.12366074 92.79716808 138.58552008 93.203125 143.41796875 C93.28259621 148.11339245 93.24180042 152.05445057 91.4375 156.4375 C89.84067388 160.3271893 89.84067388 160.3271893 91 164 C92.18458016 165.8740418 92.18458016 165.8740418 93.703125 167.6953125 C94.54447998 168.75347168 94.54447998 168.75347168 95.40283203 169.83300781 C96.01239746 170.58936523 96.62196289 171.34572266 97.25 172.125 C98.54650311 173.76646848 99.84072323 175.40974239 101.1328125 177.0546875 C101.78668945 177.88709961 102.44056641 178.71951172 103.11425781 179.57714844 C128.33216587 211.97778535 150.09895836 247.61416711 169 284 C169.48130371 284.9187793 169.96260742 285.83755859 170.45849609 286.78417969 C196.28181914 336.26459107 215.62201299 390.57632484 223 446 C223.16918945 447.22855713 223.16918945 447.22855713 223.34179688 448.48193359 C223.61814374 450.59020728 223.85241394 452.69672833 224.0625 454.8125 C224.17722656 455.93269531 224.29195313 457.05289062 224.41015625 458.20703125 C224 461 224 461 221.83764648 462.98291016 C216.90370376 466.49011439 211.44402678 468.95101674 206 471.5625 C205.36296143 471.86924652 204.72592285 472.17599304 204.06958008 472.49203491 C149.18741106 498.79584611 88.19454729 512.48824309 27.375 512.375 C25.71156555 512.37418427 25.71156555 512.37418427 24.01452637 512.37335205 C4.43071956 512.32948623 -14.67437688 511.15951869 -34 508 C-34.98725067 507.84017639 -34.98725067 507.84017639 -35.9944458 507.67712402 C-75.33164959 501.24888735 -140.42133545 490.57866455 -170 461 C-175.19187232 368.61129768 -107.68941387 259.73293124 -33.25 159.625 C-32.71286377 158.96234131 -32.17572754 158.29968262 -31.62231445 157.61694336 C-29.19145125 154.6319286 -26.73850475 151.68061521 -24.18359375 148.80078125 C-23.35988281 147.85589844 -22.53617188 146.91101563 -21.6875 145.9375 C-20.96949219 145.14214844 -20.25148437 144.34679687 -19.51171875 143.52734375 C-17.07410718 139.45206033 -17.69331951 135.77026951 -18.48046875 131.2265625 C-21.26849684 120.9678514 -25.58250989 114.2253542 -32.79296875 106.46484375 C-42.37843071 95.75966411 -47.95169605 82.72273375 -48.4609375 68.39453125 C-47.79709866 64.94594475 -46.48578827 63.48578827 -44 61 C-41.3743183 59.24317368 -38.62754557 57.80345707 -35.8125 56.375 C-35.09513672 55.9934375 -34.37777344 55.611875 -33.63867188 55.21875 C-27.87078477 52.22378624 -21.60175597 49 -15 49 C-15.02356567 47.18411377 -15.02356567 47.18411377 -15.04760742 45.33154297 C-15.10204969 40.82526342 -15.13640207 36.31901276 -15.16479492 31.8125 C-15.17984899 29.86485906 -15.2002968 27.91725184 -15.22631836 25.96972656 C-15.26285053 23.16462872 -15.27976033 20.35998046 -15.29296875 17.5546875 C-15.30845261 16.68883026 -15.32393646 15.82297302 -15.33988953 14.93087769 C-15.34128564 9.87613452 -14.87204749 6.34944855 -12 2 C-7.98141405 -0.6790573 -4.72358279 -0.69610694 0 0 Z M-5 9 C-6.40625551 10.17829585 -6.40625551 10.17829585 -6.11352539 13.51000977 C-6.11336626 15.07048422 -6.10767142 16.63096393 -6.09765625 18.19140625 C-6.0962413 19.01124496 -6.09482635 19.83108368 -6.09336853 20.67576599 C-6.08775289 23.30471382 -6.07519779 25.93357773 -6.0625 28.5625 C-6.05748701 30.34049357 -6.05292376 32.11848846 -6.04882812 33.89648438 C-6.03777839 38.26435545 -6.02050331 42.63216348 -6 47 C-5.01 47 -4.02 47 -3 47 C-3 34.46 -3 21.92 -3 9 C-3.66 9 -4.32 9 -5 9 Z M61 9 C61 21.54 61 34.08 61 47 C61.99 47.33 62.98 47.66 64 48 C64 35.13 64 22.26 64 9 C63.01 9 62.02 9 61 9 Z M-39 69 C-38.6767996 82.28059806 -33.08160637 92.62507266 -24.01953125 102.0625 C-13.44350437 113.19085324 -9.87997521 125.21086168 -8 140 C5.43779634 142.729191 20.15717522 142.32861102 33.8125 141.8125 C34.58746826 141.79461426 35.36243652 141.77672852 36.16088867 141.75830078 C39.66260429 141.57480821 41.66164398 141.26466004 44.45703125 139.078125 C46.05412039 137.09732274 46.05412039 137.09732274 46.875 134.9375 C48.66128572 131.86111903 50.69582805 131.20151707 54 130 C57.01962912 129.76847868 59.97883518 129.81873011 63 130 C63.20753906 129.27296875 63.41507812 128.5459375 63.62890625 127.796875 C66.9992955 116.79727827 71.68994761 107.82828787 80.0859375 99.90234375 C87.32946306 92.70316631 92.73543588 81.824198 93.1328125 71.57421875 C93.08898437 70.72472656 93.04515625 69.87523438 93 69 C78.37578007 60.08701389 62.51589606 52.61050143 44.921875 56.71875 C40.4464576 58.26889457 36.6063586 60.160418 32.6875 62.8125 C30.0748036 64.5242666 29.2205977 64.99080843 26 65.125 C23.3902918 64.14635942 21.5525562 63.13547687 19.25 61.625 C0.71498367 49.51405183 -22.13962993 57.75975329 -39 69 Z M54.27734375 139.17578125 C51.65426233 142.92189448 52.47512949 147.64596055 53 152 C54.75573061 158.12415557 58.64982071 162.60920654 64 166 C66.32628106 166.88729693 67.5187241 167.13249701 69.9296875 166.46875 C76.05588848 163.41795112 79.95060896 159.53985725 83.375 153.625 C84.30647447 149.71280721 84.60495229 145.98962209 84 142 C82.61364517 139.60572089 82.61364517 139.60572089 80 139 C75.6421719 139.71549116 75.6421719 139.71549116 72 142 C66.64022382 142.62322979 64.31577626 141.00227914 60 138 C56.20302211 137.62417096 56.20302211 137.62417096 54.27734375 139.17578125 Z M-22 160 C-22.47207382 160.67754837 -22.94414764 161.35509674 -23.43052673 162.05317688 C-24.32437278 163.3436961 -25.1712274 164.66675711 -26 166 C-3.15251622 165.16918241 22.81368922 161.86846801 44 153 C44 151.68 44 150.36 44 149 C36.72443384 148.74396417 29.4498533 148.5491138 22.17067814 148.43006611 C18.78948324 148.37289287 15.41139098 148.29552322 12.03198242 148.17016602 C8.13638832 148.03608243 4.24514348 147.97421641 0.34765625 147.92578125 C-0.8526976 147.86900711 -2.05305145 147.81223297 -3.28977966 147.7537384 C-13.24404283 147.74648686 -16.79495082 151.8831082 -22 160 Z M43.109375 162.13671875 C32.50238139 165.2355169 21.88689753 167.77843717 11 169.6875 C9.79529053 169.90043701 8.59058105 170.11337402 7.34936523 170.33276367 C0.83923291 171.41371877 -5.58513395 172.17301477 -12.16796875 172.51953125 C-26.04019215 172.47913955 -26.04019215 172.47913955 -38.10546875 178.00390625 C-41.00926088 181.35030117 -44 185.42271531 -44 190 C-35.89873674 190.35469832 -28.27675943 189.29368509 -20.3125 187.875 C-19.03882568 187.64981689 -17.76515137 187.42463379 -16.45288086 187.19262695 C6.52678765 183.00288428 29.21248703 176.85567039 50 166 C49.01 163.525 49.01 163.525 48 161 C46.2979677 161 44.73194395 161.64998379 43.109375 162.13671875 Z M82 169 C81.21625 169.61875 80.4325 170.2375 79.625 170.875 C75.45160448 173.61807687 70.97280517 174.8289776 66 175 C64.48012601 174.58408972 62.96209131 174.16143514 61.4453125 173.734375 C54.63759617 172.27179938 49.7281499 175.03455159 43.625 177.875 C19.05067124 188.54861297 -7.27403898 195.46378004 -34.03515625 197.6171875 C-35.16477783 197.71668701 -36.29439941 197.81618652 -37.45825195 197.91870117 C-39.58002262 198.09196154 -41.70560436 198.2254154 -43.83276367 198.30981445 C-48.07772339 198.65091134 -50.92877271 199.06221361 -54.19116211 201.91821289 C-56.32618573 204.51372671 -58.17191741 207.1802666 -60 210 C-60.64952637 210.94141846 -61.29905273 211.88283691 -61.96826172 212.8527832 C-64.04700504 215.89392644 -66.06133089 218.96980549 -68.0625 222.0625 C-68.605009 222.89696655 -68.605009 222.89696655 -69.15847778 223.74829102 C-80.83544041 241.72019717 -91.87268977 260.10945118 -102 279 C-102.51353027 279.94939453 -103.02706055 280.89878906 -103.55615234 281.87695312 C-117.9698409 308.6278175 -130.0610052 336.27754079 -140 365 C-140.52883789 366.52270508 -140.52883789 366.52270508 -141.06835938 368.07617188 C-150.91881971 396.77741934 -158.55528219 426.69788668 -161 457 C-157.2337275 458.84281356 -153.46127425 460.67260426 -149.6875 462.5 C-148.61564453 463.02464844 -147.54378906 463.54929687 -146.43945312 464.08984375 C-144.89741211 464.83427734 -144.89741211 464.83427734 -143.32421875 465.59375 C-142.37635498 466.05458984 -141.42849121 466.51542969 -140.4519043 466.99023438 C-137.97961982 468.19040037 -137.97961982 468.19040037 -135 468 C-132.96463922 465.99378901 -132.96463922 465.99378901 -130.9375 463.3125 C-129.74060547 461.79462891 -129.74060547 461.79462891 -128.51953125 460.24609375 C-128.10396973 459.70968262 -127.6884082 459.17327148 -127.26025391 458.62060547 C-126.04639022 457.05965484 -124.81069198 455.51575892 -123.57421875 453.97265625 C-103.28893083 428.31678173 -88.5890889 399.526617 -80 368 C-79.33924822 365.66493239 -78.66986994 363.33247506 -78 361 C-76.02 361 -74.04 361 -72 361 C-71.73383836 367.66734911 -72.48645458 373.03429853 -74.5 379.375 C-74.76989746 380.2414917 -75.03979492 381.1079834 -75.31787109 382.00073242 C-82.70519871 405.06468076 -93.78843512 427.38378763 -108 447 C-108.76054688 448.05316406 -109.52109375 449.10632813 -110.3046875 450.19140625 C-114.74845656 456.21125257 -119.41831432 462.01019453 -124.25 467.72265625 C-126.16976644 469.96379498 -126.16976644 469.96379498 -127 473 C-120.06311112 475.67962408 -113.10548943 478.29578563 -106.12109375 480.84912109 C-104.18866902 481.5616876 -102.26056406 482.2862464 -100.33984375 483.02978516 C-92.06893005 486.54867771 -92.06893005 486.54867771 -83.453125 486.16015625 C-80.98990668 484.32173236 -79.08333742 482.26109659 -77 480 C-75.36209746 478.56983653 -73.68587317 477.19373084 -72.00537109 475.81396484 C-60.83774165 466.59009685 -50.90196501 456.43504448 -42 445 C-40.98059 443.7212575 -39.96105003 442.4426186 -38.94140625 441.1640625 C-10.05606408 404.58198558 10.46858399 358.26996315 16.5703125 311.90625 C17 309 17 309 18 308 C19.66617115 307.95936168 21.33388095 307.957279 23 308 C24.68384588 312.52059525 25.64430436 317.01889999 26.54589844 321.73876953 C31.95576718 349.86917471 41.54804979 376.72420032 55 402 C55.37205566 402.71075684 55.74411133 403.42151367 56.12744141 404.15380859 C69.69935523 429.98167456 88.35675969 455.36224263 111 474 C112.05627618 474.90439782 113.1108075 475.81083553 114.1640625 476.71875 C115.31748871 477.70858932 116.4711355 478.69817164 117.625 479.6875 C118.43324219 480.3839563 118.43324219 480.3839563 119.2578125 481.09448242 C120.81940511 482.42188398 122.4028147 483.71574286 124 485 C124.97710937 485.79019531 125.95421875 486.58039063 126.9609375 487.39453125 C132.20947612 490.16721682 136.61928638 488.15290253 142.00390625 486.546875 C143.85882757 485.95431685 145.71163132 485.35509782 147.5625 484.75 C149.01100342 484.28291626 149.01100342 484.28291626 150.48876953 483.80639648 C158.04758001 481.3525236 165.54744454 478.7597347 173 476 C169.729989 471.4804726 166.30041182 467.19692296 162.625 463 C140.3196261 436.83592736 116.81058421 398.07455085 114 363 C114.33 362.34 114.66 361.68 115 361 C116.65 361 118.3 361 120 361 C121.75911087 365.52845397 123.32694359 369.98019447 124.58276367 374.67919922 C131.34742769 399.73373602 144.10279936 422.91787097 159 444 C159.4007373 444.56799316 159.80147461 445.13598633 160.21435547 445.72119141 C164.64047648 451.93312263 169.44061148 457.81477236 174.375 463.625 C174.88740234 464.22989258 175.39980469 464.83478516 175.92773438 465.45800781 C178.16513998 468.05345775 180.13160314 470.08773543 183 472 C185.54023746 471.31131422 185.54023746 471.31131422 188.26171875 469.9296875 C189.29876953 469.445 190.33582031 468.9603125 191.40429688 468.4609375 C192.48775391 467.93757813 193.57121094 467.41421875 194.6875 466.875 C195.75162109 466.37484375 196.81574219 465.8746875 197.91210938 465.359375 C203.64838668 462.65244735 209.33925944 459.86117238 215 457 C207.2049322 366.94951523 162.56383646 279.29697778 93 181.6875 C92.47196777 180.98778076 91.94393555 180.28806152 91.39990234 179.56713867 C88.48507706 175.75770563 85.47788201 172.30526654 82 169 Z M20 336 C19.84031738 336.62116699 19.68063477 337.24233398 19.51611328 337.88232422 C9.74427566 375.41303811 -5.3964177 411.01210905 -29 442 C-29.41926758 442.56058105 -29.83853516 443.12116211 -30.27050781 443.69873047 C-37.54095381 453.40267286 -45.5545656 462.30692395 -54 471 C-54.58547607 471.60376465 -55.17095215 472.2075293 -55.77416992 472.82958984 C-59.27988777 476.39526319 -62.88002124 479.64801675 -66.8125 482.75 C-69.80756699 485.11300457 -71.87583543 486.81375315 -74 490 C-64.20092986 492.99450437 -54.40187313 495.27261784 -44.3125 497.0625 C-43.60399902 497.19006683 -42.89549805 497.31763367 -42.16552734 497.44906616 C-22.63350977 500.94873451 -2.85087809 503.43471633 17 504 C18.08812988 504.03287109 18.08812988 504.03287109 19.19824219 504.06640625 C52.52705948 504.91771704 85.49754634 499.94643469 118 493 C116.16027515 488.92643891 113.48589217 486.63822983 110.0625 483.875 C108.88285969 482.89864961 107.7044963 481.92075461 106.52734375 480.94140625 C105.93550293 480.45043457 105.34366211 479.95946289 104.73388672 479.45361328 C98.39123432 474.13621644 92.23551889 468.63673346 86.9140625 462.28125 C85.44051636 460.52502358 83.9274838 458.8018738 82.3984375 457.09375 C51.80378541 422.76766514 32.63415107 380.12464615 21 336 C20.67 336 20.34 336 20 336 Z " fill="#000000" transform="translate(229,0)"/>
</svg>
