<?xml version="1.0" standalone="no"?>
<!DOCTYPE svg PUBLIC "-//W3C//DTD SVG 20010904//EN"
 "http://www.w3.org/TR/2001/REC-SVG-20010904/DTD/svg10.dtd">
<svg version="1.0" xmlns="http://www.w3.org/2000/svg"
 width="512.000000pt" height="512.000000pt" viewBox="0 0 512.000000 512.000000"
 preserveAspectRatio="xMidYMid meet">

<g transform="translate(0.000000,512.000000) scale(0.100000,-0.100000)"
fill="#000000" stroke="none">
<path d="M943 5025 c-313 -57 -589 -273 -741 -581 -77 -155 -110 -286 -119
-464 -16 -339 104 -650 345 -887 l62 -62 125 -990 c69 -544 125 -997 125
-1006 0 -9 11 -27 25 -40 23 -24 30 -25 140 -25 63 0 115 -3 115 -7 0 -5 -7
-44 -15 -88 -18 -103 -19 -236 -1 -305 8 -30 28 -84 45 -120 41 -87 42 -144 1
-217 -36 -64 -38 -96 -5 -128 53 -54 113 -23 163 83 23 49 27 70 27 152 0 90
-2 99 -39 175 -31 64 -39 94 -43 155 -5 72 7 183 28 263 l10 37 174 0 174 0
20 26 c21 26 21 35 21 635 l0 609 53 0 c70 0 133 32 172 88 29 42 30 48 33
171 2 74 -1 144 -7 168 -24 87 -100 143 -196 143 l-56 0 3 33 3 32 95 17 c52
9 237 42 410 73 854 152 1446 256 1465 257 11 1 132 -47 268 -105 137 -59 258
-107 268 -107 11 0 31 11 44 25 l25 24 0 861 c0 532 -4 868 -10 879 -5 10 -23
24 -39 31 -28 11 -46 5 -286 -98 l-256 -111 -732 130 c-1716 304 -1625 289
-1727 288 -52 0 -127 -7 -167 -14z m1381 -345 c622 -110 1141 -202 1154 -205
l22 -5 -2 -547 -3 -546 -1140 -203 c-966 -172 -1155 -203 -1240 -203 -500 -3
-902 462 -872 1009 24 437 314 797 712 885 141 31 161 29 1369 -185z m1676
-755 c0 -388 -3 -705 -6 -705 -5 0 -250 104 -306 130 l-28 13 0 562 0 561 163
72 c89 39 165 71 170 71 4 1 7 -316 7 -704z m-3219 -1055 c166 -62 351 -76
542 -41 l97 17 0 -858 0 -858 -265 0 c-146 0 -265 3 -265 6 0 3 -49 398 -110
878 -60 480 -110 878 -110 885 0 9 6 11 18 6 9 -4 51 -20 93 -35z m887 -232
c8 -8 12 -48 12 -113 0 -65 -4 -105 -12 -113 -7 -7 -29 -12 -50 -12 l-38 0 0
125 0 125 38 0 c21 0 43 -5 50 -12z"/>
<path d="M970 4373 c-48 -7 -145 -46 -185 -73 -143 -98 -223 -279 -196 -443
30 -181 161 -326 336 -372 328 -85 635 222 550 550 -58 223 -283 374 -505 338z
m197 -189 c57 -27 101 -72 135 -137 34 -64 32 -184 -4 -252 -132 -251 -493
-200 -549 77 -29 143 65 294 208 334 64 18 145 10 210 -22z"/>
<path d="M4264 4537 c-73 -63 9 -165 170 -212 86 -25 153 -16 229 31 76 47
123 53 202 24 96 -35 120 -36 149 -6 48 47 30 106 -42 138 -148 66 -272 62
-382 -12 -67 -45 -118 -38 -210 29 -51 37 -80 39 -116 8z"/>
<path d="M4259 4061 c-16 -16 -29 -36 -29 -45 0 -77 169 -176 299 -176 44 0
86 17 181 71 43 25 115 21 186 -10 61 -27 89 -26 119 4 55 54 19 118 -88 155
-131 44 -232 36 -328 -26 -31 -20 -66 -34 -84 -34 -35 0 -96 27 -144 64 -45
34 -76 33 -112 -3z"/>
<path d="M4272 3604 c-63 -44 -47 -105 40 -164 133 -88 271 -92 374 -11 43 34
100 36 187 7 96 -32 112 -32 142 -1 79 78 -50 177 -235 179 -87 0 -126 -12
-202 -65 -40 -29 -94 -24 -157 14 -91 54 -96 57 -111 57 -9 0 -26 -7 -38 -16z"/>
</g>
</svg>
