<?xml version="1.0" standalone="no"?>
<!DOCTYPE svg PUBLIC "-//W3C//DTD SVG 20010904//EN"
 "http://www.w3.org/TR/2001/REC-SVG-20010904/DTD/svg10.dtd">
<svg version="1.0" xmlns="http://www.w3.org/2000/svg"
 width="512.000000pt" height="512.000000pt" viewBox="0 0 512.000000 512.000000"
 preserveAspectRatio="xMidYMid meet">

<g transform="translate(0.000000,512.000000) scale(0.100000,-0.100000)"
fill="#000000" stroke="none">
<path d="M1232 4943 c-23 -20 -192 -434 -192 -470 0 -13 17 -42 38 -66 21 -23
120 -133 220 -244 l182 -202 -42 -11 c-912 -231 -1458 -1149 -1223 -2056 149
-574 605 -1036 1177 -1193 187 -51 437 -73 601 -53 l88 11 94 -81 c234 -203
491 -329 797 -390 150 -30 440 -32 593 -4 353 64 650 220 900 470 252 253 407
550 471 901 25 139 25 431 0 570 -64 352 -218 647 -471 901 -248 250 -554 409
-900 469 -126 22 -332 30 -439 16 l-88 -11 -87 76 c-200 176 -448 307 -709
374 l-42 11 182 202 c100 111 199 221 220 244 21 24 38 53 38 66 0 36 -169
450 -192 470 -19 16 -63 17 -608 17 -545 0 -589 -1 -608 -17z m197 -250 c24
-60 45 -114 48 -120 4 -10 -23 -13 -117 -13 -94 0 -121 3 -117 13 3 6 24 60
48 120 39 99 44 107 69 107 25 0 30 -8 69 -107z m688 95 c-3 -7 -24 -61 -48
-120 l-42 -108 -187 0 -187 0 -42 108 c-24 59 -45 113 -48 120 -4 9 55 12 277
12 222 0 281 -3 277 -12z m272 -95 c24 -60 45 -114 48 -120 4 -10 -23 -13
-117 -13 -94 0 -121 3 -117 13 3 6 24 60 48 120 39 99 44 107 69 107 25 0 30
-8 69 -107z m-824 -373 c12 -41 39 -129 58 -195 l36 -120 -57 61 c-31 33 -113
122 -181 197 l-123 138 122 -3 123 -3 22 -75z m405 73 c0 -5 -27 -93 -59 -198
-37 -121 -63 -190 -71 -190 -8 0 -34 69 -71 190 -32 105 -59 193 -59 198 0 4
59 7 130 7 72 0 130 -3 130 -7z m288 -130 c-68 -75 -149 -164 -180 -197 -51
-54 -57 -57 -48 -31 5 17 30 100 55 185 25 85 48 161 50 168 3 9 37 12 125 12
l122 0 -124 -137z m-138 -448 c196 -38 400 -122 571 -236 126 -84 324 -282
408 -408 444 -668 309 -1541 -317 -2042 -40 -32 -104 -77 -143 -100 -65 -39
-72 -41 -96 -28 -25 14 -159 157 -152 163 2 1 34 19 71 39 456 252 719 782
644 1297 -41 281 -161 518 -365 721 -185 186 -394 300 -651 355 -118 25 -381
26 -498 0 -518 -112 -899 -491 -1009 -1006 -25 -117 -25 -382 0 -497 122 -571
574 -973 1155 -1028 39 -4 72 -10 72 -14 0 -5 32 -56 70 -114 39 -58 70 -109
70 -113 0 -14 -305 4 -406 25 -547 112 -987 502 -1152 1021 -58 182 -67 246
-67 470 0 224 9 288 67 470 177 556 674 966 1264 1040 100 13 365 4 464 -15z
m-133 -386 c43 -5 112 -19 153 -30 74 -21 270 -106 270 -118 0 -4 -15 -15 -32
-26 -67 -38 -182 -129 -260 -203 -437 -418 -614 -1037 -464 -1629 14 -55 34
-123 45 -152 12 -28 21 -54 21 -58 0 -10 -113 9 -195 32 -373 108 -670 412
-772 790 -25 92 -27 115 -27 285 0 169 3 194 27 285 146 544 678 899 1234 824z
m1587 -99 c306 -61 551 -193 777 -419 230 -231 366 -487 425 -806 26 -138 26
-392 0 -530 -56 -302 -191 -566 -400 -783 -222 -230 -480 -374 -791 -440 -103
-22 -146 -26 -300 -26 -261 -1 -449 41 -670 149 -438 214 -736 609 -832 1100
-25 128 -24 396 1 530 55 294 191 564 389 772 98 102 231 211 323 264 51 29
58 30 81 18 36 -19 161 -161 146 -166 -26 -9 -179 -105 -230 -144 -81 -63
-215 -208 -277 -302 -92 -138 -155 -292 -193 -467 -25 -118 -24 -371 1 -490
55 -256 169 -466 355 -651 260 -261 597 -393 956 -376 479 23 885 290 1096
722 177 362 172 776 -14 1139 -201 393 -582 647 -1034 691 -40 4 -73 10 -73
14 0 5 -31 56 -70 114 -38 58 -70 109 -70 113 0 14 305 -6 404 -26z m21 -415
c373 -108 670 -413 772 -790 24 -92 27 -116 27 -285 0 -169 -3 -193 -27 -285
-182 -675 -927 -1023 -1559 -728 -54 26 -98 49 -98 52 0 3 28 23 61 45 454
289 750 842 749 1399 -1 177 -44 425 -99 566 -12 28 -21 54 -21 58 0 10 113
-9 195 -32z m-747 -112 c144 -287 146 -649 7 -951 -100 -215 -294 -419 -497
-523 l-58 -29 -28 57 c-262 523 -44 1186 482 1469 33 19 62 34 63 34 2 0 16
-26 31 -57z"/>
</g>
</svg>
