<?xml version="1.0" standalone="no"?>
<!DOCTYPE svg PUBLIC "-//W3C//DTD SVG 20010904//EN"
 "http://www.w3.org/TR/2001/REC-SVG-20010904/DTD/svg10.dtd">
<svg version="1.0" xmlns="http://www.w3.org/2000/svg"
 width="512.000000pt" height="512.000000pt" viewBox="0 0 512.000000 512.000000"
 preserveAspectRatio="xMidYMid meet">

<g transform="translate(0.000000,512.000000) scale(0.100000,-0.100000)"
fill="#000000" stroke="none">
<path d="M3180 4764 c-56 -22 -103 -53 -153 -102 l-58 -57 -142 0 c-141 0
-143 0 -210 -34 -90 -43 -163 -118 -259 -261 -205 -306 -544 -592 -946 -798
l-141 -73 -3 58 c-2 41 2 69 16 96 23 48 20 197 -6 237 -14 21 -18 72 -23 320
-4 162 -11 313 -17 335 -15 60 -91 130 -156 144 -100 21 -200 -30 -243 -124
-15 -35 -18 -84 -25 -383 -6 -306 -9 -348 -25 -380 -24 -47 -27 -252 -4 -292
21 -36 20 -203 -1 -235 -12 -19 -14 -40 -9 -107 11 -150 17 -451 10 -545 -6
-83 -9 -92 -29 -97 -12 -3 -35 -19 -51 -36 l-30 -31 -3 -332 c-3 -355 0 -392
43 -425 l25 -20 0 -572 0 -572 22 -40 c13 -22 41 -51 64 -64 39 -23 49 -24
208 -24 181 0 198 4 248 57 44 46 48 72 48 288 0 195 1 204 20 210 26 8 32 34
28 120 -3 62 -6 71 -25 80 -32 14 -32 66 0 80 21 10 22 14 22 155 0 141 -1
145 -22 155 -20 8 -23 17 -23 68 0 52 4 62 30 88 16 16 32 44 35 62 3 18 5
177 3 354 -3 308 -4 323 -24 350 -11 15 -37 36 -57 46 l-37 17 0 243 c0 133
-3 251 -6 262 -5 19 6 24 128 54 242 60 508 170 705 291 l78 48 17 -137 c25
-185 24 -336 0 -426 -37 -135 -174 -591 -219 -730 -45 -137 -46 -140 -107
-200 -137 -133 -251 -329 -303 -520 l-27 -100 -4 -443 c-2 -332 0 -447 9 -458
14 -17 63 -18 77 -1 7 8 12 163 14 442 4 426 4 431 30 526 31 115 81 225 143
320 26 38 48 69 49 69 2 0 1 -33 -1 -72 -9 -141 54 -325 147 -431 67 -75 103
-58 115 55 3 37 10 70 14 73 5 2 11 -20 15 -49 14 -119 71 -260 152 -373 48
-68 84 -87 111 -60 12 12 16 48 18 183 3 221 24 317 100 467 31 59 62 136 70
170 19 79 19 219 0 322 -8 44 -15 83 -15 88 0 4 12 7 28 7 26 0 28 -4 39 -62
36 -189 190 -341 390 -383 86 -18 130 -18 218 0 199 42 352 193 388 383 l12
62 40 0 c113 0 286 -47 409 -110 245 -126 426 -341 509 -605 41 -130 47 -211
47 -616 0 -243 4 -387 10 -400 12 -22 59 -26 78 -7 20 20 17 821 -4 928 -44
233 -165 454 -341 620 -53 51 -77 83 -109 150 -77 157 -128 356 -154 590 -15
138 -15 432 0 600 17 177 8 424 -20 553 -77 360 -243 634 -467 767 -32 19 -85
56 -117 82 -98 78 -177 111 -271 115 -44 1 -87 0 -95 -3z m165 -111 c27 -9 85
-44 129 -77 45 -34 104 -75 131 -91 112 -64 256 -236 321 -381 117 -261 149
-494 119 -869 -33 -420 -1 -765 99 -1057 18 -54 29 -97 22 -94 -197 90 -308
115 -548 123 l-188 6 0 153 0 153 54 36 c170 112 312 339 367 584 24 109 35
313 21 411 l-11 74 -73 65 c-232 205 -339 357 -401 572 -31 108 -55 154 -105
202 -46 45 -78 47 -101 6 -14 -26 -13 -29 28 -75 l42 -48 -48 -11 c-69 -16
-105 -38 -175 -106 -72 -70 -146 -123 -234 -167 -87 -44 -161 -108 -244 -212
-67 -84 -234 -250 -252 -250 -5 0 -6 10 -4 23 3 12 8 51 11 87 10 109 53 304
89 404 107 299 263 425 486 389 92 -15 134 0 203 69 94 95 161 116 262 81z
m-2255 -140 c58 -40 59 -46 61 -373 l1 -255 -58 -27 c-56 -25 -170 -55 -178
-47 -2 2 -1 148 3 324 5 282 8 323 23 345 36 50 102 65 148 33z m2199 -295 c5
-13 24 -61 42 -107 53 -138 133 -248 292 -406 l142 -140 7 -75 c8 -94 -6 -264
-31 -361 -79 -309 -275 -528 -512 -570 -243 -43 -506 141 -619 434 -57 146
-73 237 -74 402 -1 170 12 243 56 326 39 75 143 187 209 225 30 17 87 50 128
74 41 23 109 76 151 116 79 76 124 103 173 104 19 0 30 -7 36 -22z m-1055
-285 c-22 -93 -44 -268 -44 -347 l0 -74 -92 -60 c-318 -204 -677 -329 -1082
-377 -71 -8 -132 -12 -137 -9 -5 3 -9 27 -9 53 l0 48 63 23 c509 183 932 432
1227 723 41 40 78 74 81 75 4 1 0 -24 -7 -55z m-1044 -228 l0 -75 -60 -39
c-69 -45 -176 -90 -223 -93 l-32 -3 -3 70 c-2 39 -1 84 2 100 6 30 9 31 89 47
45 8 109 27 142 40 87 37 85 39 85 -47z m1246 -307 c0 -174 4 -203 50 -370 20
-73 20 -64 -22 -328 -11 -68 -17 -163 -16 -270 0 -145 4 -183 32 -320 58 -287
53 -369 -35 -545 -64 -128 -90 -218 -108 -370 l-13 -110 -26 72 c-40 108 -51
189 -46 335 6 127 5 129 -18 144 -31 21 -56 11 -98 -38 -41 -47 -71 -109 -90
-181 l-14 -52 -17 40 c-32 73 -45 139 -45 230 0 84 4 101 61 265 53 155 231
736 273 895 28 105 31 242 7 421 -31 239 -33 228 47 296 37 31 69 57 72 57 3
1 5 -77 6 -171z m-1278 35 l-3 -48 -120 -47 c-66 -26 -124 -47 -128 -48 -4 0
-7 21 -5 46 l3 47 90 31 c50 18 104 39 120 49 44 24 46 22 43 -30z m15 -580
c4 -75 7 -192 7 -260 l0 -123 -145 0 -145 0 0 233 c0 127 4 237 8 243 5 8 158
34 253 43 14 1 17 -19 22 -136z m1447 -94 c36 -59 136 -159 208 -208 l62 -42
0 -149 0 -150 -164 0 -163 0 -7 53 c-11 95 -6 290 10 415 9 67 19 122 23 122
3 0 17 -19 31 -41z m535 -304 c50 0 107 4 128 8 l37 8 0 -183 c0 -214 -7 -238
-81 -276 -80 -42 -169 -21 -223 52 -19 25 -21 44 -24 217 l-3 190 38 -8 c21
-4 79 -8 128 -8z m-1865 -410 l0 -325 -254 0 c-222 0 -255 2 -260 16 -8 20 -8
598 0 618 5 14 38 16 260 16 l254 0 0 -325z m1611 14 c30 -98 137 -170 254
-170 117 0 211 62 250 164 l18 47 68 0 c38 0 69 -4 69 -9 0 -5 -9 -37 -20 -72
-38 -122 -129 -212 -253 -250 -149 -46 -319 -8 -422 96 -46 46 -97 140 -110
203 l-7 32 71 0 70 0 12 -41z m-1673 -1010 l-3 -561 -24 -19 c-20 -17 -40 -19
-168 -19 -139 0 -145 1 -168 25 l-25 24 0 556 0 555 195 0 195 0 -2 -561z"/>
<path d="M990 2291 c-18 -35 -12 -119 10 -141 23 -23 39 -25 64 -7 27 20 34
108 12 142 -21 31 -70 35 -86 6z"/>
<path d="M970 2062 c-72 -36 -100 -122 -64 -198 36 -75 151 -101 214 -48 87
74 78 191 -20 242 -53 27 -84 28 -130 4z m100 -112 c8 -14 8 -26 0 -40 -19
-35 -80 -20 -80 20 0 40 61 55 80 20z"/>
<path d="M392 4014 c-38 -23 -43 -30 -40 -56 4 -44 35 -62 72 -43 36 19 60 19
76 1 6 -8 31 -23 56 -32 41 -16 47 -16 89 0 74 29 97 81 49 113 -25 16 -28 16
-56 0 -39 -22 -39 -22 -95 13 -58 37 -95 38 -151 4z"/>
<path d="M426 3790 c-71 -22 -103 -98 -51 -122 20 -9 31 -8 59 7 l35 19 38
-27 c69 -48 143 -45 193 8 45 48 -3 109 -62 79 -37 -19 -46 -18 -87 10 -43 29
-86 38 -125 26z"/>
<path d="M389 3527 c-22 -15 -35 -32 -37 -50 -6 -53 34 -72 87 -41 26 15 29
15 76 -15 71 -45 137 -39 189 18 44 49 -16 102 -76 67 -28 -17 -29 -17 -75 13
-58 39 -114 41 -164 8z"/>
<path d="M393 3284 c-34 -20 -43 -31 -43 -53 0 -49 46 -67 93 -36 21 14 26 13
57 -10 68 -50 139 -51 194 0 31 28 33 55 8 78 -23 21 -37 21 -73 0 -24 -14
-33 -15 -47 -5 -42 29 -93 52 -119 52 -15 0 -47 -12 -70 -26z"/>
</g>
</svg>
