<?xml version="1.0" standalone="no"?>
<!DOCTYPE svg PUBLIC "-//W3C//DTD SVG 20010904//EN"
 "http://www.w3.org/TR/2001/REC-SVG-20010904/DTD/svg10.dtd">
<svg version="1.0" xmlns="http://www.w3.org/2000/svg"
 width="512.000000pt" height="512.000000pt" viewBox="0 0 512.000000 512.000000"
 preserveAspectRatio="xMidYMid meet">

<g transform="translate(0.000000,512.000000) scale(0.100000,-0.100000)"
fill="#000000" stroke="none">
<path d="M4280 5031 c-78 -25 -137 -80 -173 -160 -15 -34 -20 -67 -21 -126 0
-91 20 -149 78 -220 l34 -41 -59 -53 -59 -53 -60 55 c-79 73 -170 118 -253
124 -153 13 -289 -71 -357 -219 -30 -64 -35 -85 -38 -173 -5 -115 15 -190 72
-279 38 -59 575 -586 612 -600 15 -6 33 -6 49 0 36 14 577 545 615 604 66 103
90 270 55 386 l-14 49 103 105 c62 63 115 127 132 160 26 50 29 64 29 155 0
86 -3 106 -24 145 -53 102 -120 144 -226 144 -75 0 -109 -12 -177 -66 l-38
-30 -37 30 c-21 16 -53 37 -72 47 -39 19 -133 29 -171 16z m121 -174 c18 -12
48 -42 67 -67 67 -89 119 -89 186 1 76 102 161 117 201 34 19 -42 19 -118 0
-159 -8 -17 -78 -94 -155 -171 l-140 -140 -141 140 c-181 179 -204 227 -159
320 32 66 83 81 141 42z m-594 -472 c60 -25 137 -91 182 -155 62 -88 117 -94
170 -17 16 24 57 69 92 101 l62 57 107 -105 c114 -113 139 -125 187 -91 20 14
22 13 25 -2 7 -34 -10 -123 -32 -169 -15 -31 -90 -112 -239 -258 -119 -118
-231 -226 -249 -241 l-32 -27 -38 32 c-20 18 -134 128 -253 245 -194 191 -219
219 -238 269 -23 63 -28 156 -10 215 37 124 158 191 266 146z"/>
<path d="M1887 3746 c-49 -18 -100 -58 -125 -98 -12 -19 -49 -145 -83 -281
l-61 -247 -89 0 -89 0 0 96 c0 121 -13 164 -67 224 -68 76 -88 80 -411 80
-186 0 -288 -4 -316 -12 -55 -16 -138 -99 -154 -154 -7 -23 -12 -84 -12 -137
l0 -95 -55 -7 c-75 -9 -183 -65 -235 -121 -23 -25 -56 -75 -73 -112 l-32 -67
0 -1216 0 -1215 37 -76 c45 -91 103 -147 196 -191 l67 -32 2176 0 2175 0 76
37 c91 45 147 103 191 196 l32 67 0 1215 0 1215 -32 67 c-44 93 -100 151 -191
196 l-76 37 -617 3 -617 3 -62 251 c-70 278 -85 310 -170 358 l-45 25 -650 2
c-526 2 -657 0 -688 -11z m1317 -168 c21 -19 34 -59 80 -240 l54 -218 -778 0
-778 0 54 218 c46 181 59 221 80 240 l25 22 619 0 619 0 25 -22z m-1949 -243
c23 -22 25 -32 25 -120 l0 -95 -320 0 -320 0 0 95 c0 88 2 98 25 120 l24 25
271 0 271 0 24 -25z m3459 -387 c55 -16 138 -99 154 -154 7 -24 12 -100 12
-178 l0 -136 -750 0 -750 0 -92 71 c-229 174 -510 262 -792 245 -266 -15 -496
-105 -701 -275 l-50 -41 -752 0 -753 0 0 136 c0 78 5 154 12 178 15 51 99 137
148 153 53 17 4257 18 4314 1z m-1988 -323 c199 -34 372 -116 519 -244 166
-145 288 -358 337 -586 17 -79 17 -324 0 -395 -82 -340 -272 -585 -567 -733
-338 -169 -760 -132 -1066 94 -74 55 -199 182 -246 249 -80 118 -145 280 -168
425 -89 543 265 1062 805 1180 129 28 259 32 386 10z m-1170 -372 c-135 -210
-191 -402 -191 -653 0 -251 56 -443 191 -652 l44 -68 -680 0 -680 0 0 720 0
720 680 0 680 0 -44 -67z m3324 -653 l0 -720 -680 0 -680 0 44 68 c135 209
191 401 191 652 0 251 -56 443 -191 653 l-44 67 680 0 680 0 0 -720z m-3085
-921 c441 -365 1068 -371 1511 -15 l69 56 753 0 752 0 0 -136 c0 -78 -5 -154
-12 -178 -16 -55 -99 -138 -154 -154 -60 -18 -4248 -18 -4308 0 -55 16 -138
99 -154 154 -7 24 -12 100 -12 178 l0 136 753 0 752 0 50 -41z"/>
<path d="M2450 2473 c-433 -65 -742 -400 -767 -828 -23 -416 249 -786 662
-898 107 -29 316 -30 419 -3 513 136 793 647 626 1143 -81 241 -293 457 -531
540 -127 44 -297 63 -409 46z m295 -177 c160 -42 323 -161 416 -304 149 -228
156 -523 18 -760 -44 -73 -178 -207 -251 -251 -237 -138 -532 -131 -760 18
-145 94 -261 255 -305 421 -28 103 -23 293 9 392 39 119 92 204 182 294 111
110 236 177 381 204 69 12 237 5 310 -14z"/>
</g>
</svg>
