<?xml version="1.0" standalone="no"?>
<!DOCTYPE svg PUBLIC "-//W3C//DTD SVG 20010904//EN"
 "http://www.w3.org/TR/2001/REC-SVG-20010904/DTD/svg10.dtd">
<svg version="1.0" xmlns="http://www.w3.org/2000/svg"
 width="512.000000pt" height="512.000000pt" viewBox="0 0 512.000000 512.000000"
 preserveAspectRatio="xMidYMid meet">

<g transform="translate(0.000000,512.000000) scale(0.100000,-0.100000)"
fill="#000000" stroke="none">
<path d="M2480 4901 c-43 -13 -67 -28 -1036 -606 -518 -309 -953 -565 -967
-569 -37 -9 -88 -55 -103 -93 -9 -21 -14 -73 -14 -146 0 -106 2 -115 27 -155
16 -25 43 -50 65 -60 l37 -17 3 -387 3 -386 24 -33 24 -33 -77 -592 c-72 -552
-76 -594 -62 -627 17 -43 52 -67 106 -74 l40 -6 0 -57 0 -57 -72 -5 c-112 -7
-191 -57 -241 -152 -19 -36 -22 -60 -25 -213 -5 -218 6 -264 81 -339 92 -92
-122 -84 2267 -84 2389 0 2175 -8 2267 84 75 75 86 121 81 339 -3 153 -6 177
-25 213 -52 99 -129 145 -250 152 l-83 5 0 57 0 57 40 6 c53 7 87 30 107 73
16 33 14 54 -61 629 l-77 594 23 32 c23 30 23 33 28 416 l5 386 30 10 c36 11
81 52 101 89 17 33 19 232 3 275 -15 40 -57 81 -96 94 -18 6 -275 152 -570
326 -1263 741 -1430 838 -1463 850 -39 13 -102 15 -140 4z m967 -651 c474
-278 862 -508 863 -513 0 -4 -226 -6 -502 -5 l-503 3 3 65 c11 203 -103 378
-293 450 -46 17 -81 23 -150 23 -103 0 -171 -21 -256 -79 l-50 -35 -32 24
c-151 114 -369 122 -520 19 -134 -93 -206 -240 -194 -399 l5 -73 -511 0 c-319
0 -507 4 -501 9 5 6 333 203 729 439 396 236 776 464 845 506 107 65 131 75
165 73 33 -2 199 -95 902 -507z m-1069 -149 c24 -12 63 -37 88 -56 38 -29 54
-35 94 -35 40 0 56 6 94 35 105 80 195 101 301 71 46 -14 70 -29 115 -74 74
-75 95 -132 87 -244 -12 -186 -164 -383 -436 -566 -155 -105 -165 -105 -321 0
-198 132 -326 266 -398 417 -95 198 -23 407 161 467 59 19 162 12 215 -15z
m-503 -531 c3 -10 28 -53 55 -95 l50 -75 -734 0 c-660 0 -734 2 -740 16 -11
28 -6 150 6 162 9 9 175 12 684 12 658 0 673 0 679 -20z m2733 8 c12 -12 17
-134 6 -162 -6 -14 -80 -16 -740 -16 l-734 0 50 75 c27 42 52 85 55 95 6 20
21 20 679 20 509 0 675 -3 684 -12z m-3164 -385 c-32 -74 -138 -232 -204 -305
-60 -67 -182 -161 -277 -215 -67 -37 -271 -113 -305 -113 -17 0 -18 23 -18
345 l0 345 415 0 415 0 -26 -57z m741 12 c79 -64 198 -143 258 -171 58 -27
149 -32 208 -13 40 14 197 115 283 183 l59 46 242 0 242 0 28 -70 c63 -156
187 -333 320 -458 l83 -77 -106 -537 c-98 -505 -104 -541 -92 -582 17 -61 69
-119 135 -152 47 -23 64 -26 125 -22 68 4 70 3 70 -20 0 -15 14 -38 35 -58
l35 -33 0 -120 0 -121 -395 0 -395 0 0 55 0 55 36 0 c87 0 166 48 207 123 21
40 22 56 25 299 2 168 -1 277 -8 313 -15 72 -61 132 -127 165 l-50 25 -4 105
c-5 118 -18 155 -77 216 -19 20 -56 46 -81 58 -45 21 -56 21 -686 21 -715 0
-703 1 -781 -68 -71 -62 -87 -103 -92 -229 l-4 -106 -45 -29 c-49 -31 -100
-99 -108 -147 -4 -17 -5 -160 -3 -318 l3 -286 30 -44 c38 -54 119 -98 182 -98
l43 0 0 -55 0 -55 -395 0 -395 0 0 120 0 121 34 30 c20 17 36 42 38 56 3 26 4
27 70 24 49 -2 79 3 111 17 91 40 157 125 156 202 0 19 -46 269 -102 555
l-103 520 90 85 c120 114 203 228 282 388 l66 132 249 0 249 0 55 -45z m2275
-300 c0 -299 -2 -345 -15 -345 -8 0 -56 14 -107 30 -291 94 -512 284 -658 562
l-51 98 415 0 416 0 0 -345z m-3301 -836 c50 -257 91 -478 91 -491 0 -46 -74
-93 -129 -82 -59 12 -57 2 -90 514 -17 261 -31 483 -31 492 0 18 51 51 61 40
4 -4 47 -217 98 -473z m2916 469 c21 -10 25 -18 25 -57 0 -85 -58 -936 -65
-953 -10 -25 -76 -41 -112 -27 -36 14 -73 48 -73 69 0 15 171 900 185 958 6
26 6 26 40 10z m-3224 -80 c0 -2 15 -246 33 -543 l33 -540 -21 -18 c-39 -33
-118 -68 -185 -83 -72 -15 -157 -18 -164 -6 -3 4 28 261 69 572 41 311 74 567
74 570 0 7 159 54 161 48z m3491 -23 c63 -17 68 -20 73 -49 21 -121 143 -1111
138 -1119 -8 -13 -143 -2 -206 17 -27 8 -73 29 -103 47 -50 31 -54 36 -54 71
0 43 46 850 56 976 4 57 10 82 17 79 7 -2 42 -12 79 -22z m-1872 -490 l0 -345
-232 2 -233 3 -5 135 c-4 100 -10 143 -22 166 -20 37 -90 101 -124 114 -23 9
-24 13 -24 96 0 63 5 94 17 115 33 55 52 59 351 59 l272 0 0 -345z m713 331
c53 -22 70 -59 75 -157 4 -87 4 -87 -24 -105 -103 -64 -127 -113 -134 -279
l-5 -130 -242 -3 -243 -2 0 338 c0 186 3 342 7 345 3 4 125 7 270 7 200 0 272
-3 296 -14z m-1366 -401 c32 -22 43 -75 43 -201 0 -107 1 -113 29 -151 55 -75
41 -74 682 -71 l566 3 36 28 c62 47 71 75 75 224 4 126 5 133 29 158 37 36 95
35 134 -4 l29 -29 0 -260 c0 -247 -1 -261 -21 -286 l-20 -26 -845 0 -845 0
-24 25 -25 24 0 251 c0 264 5 294 47 319 27 15 86 13 110 -4z m-967 -795 l0
-80 -75 0 -75 0 0 60 0 59 43 11 c23 6 53 15 67 20 14 5 28 9 33 9 4 1 7 -35
7 -79z m3548 -19 l3 -61 -71 0 -70 0 0 78 0 78 68 -17 67 -17 3 -61z m-1218
-6 l0 -55 -625 0 -625 0 0 55 0 55 625 0 625 0 0 -55z m1520 -220 c52 -27 60
-57 60 -230 0 -173 -8 -203 -60 -230 -26 -13 -273 -15 -2142 -15 -2072 0
-2114 1 -2142 19 -51 34 -55 52 -56 224 0 122 3 165 15 187 33 64 -135 59
2183 60 1870 0 2116 -2 2142 -15z"/>
</g>
</svg>
