<svg class="logo" id="Calque_1" data-name="Calque 1" xmlns="http://www.w3.org/2000/svg"
                        xmlns:xlink="http://www.w3.org/1999/xlink" viewBox="0 0 4000 2000">
                        <defs>
                            <style>
                                .cls-1 {
                                    fill: #3a1010;
                                }

                                .cls-2 {
                                    opacity: 0.5;
                                }

                                .cls-3 {
                                    opacity: 0.2;
                                    fill: url(#linear-gradient);
                                }

                                .cls-4 {
                                    fill: url(#linear-gradient-2);
                                }
                            </style>
                            <linearGradient id="linear-gradient" x1="347.9" y1="-811.39" x2="723.23" y2="1829.86"
                                gradientUnits="userSpaceOnUse">
                                <stop offset="0" stop-color="#ec615c" />
                                <stop offset="1" stop-color="#a9254e" />
                            </linearGradient>
                            <linearGradient id="linear-gradient-2" x1="394.78" y1="-818.05" x2="770.11" y2="1823.2"
                                xlink:href="#linear-gradient" />
                        </defs>
                        <title>Plan de travail 1</title>
                        <path class="cls-1"
                            d="M1915,1288.87c-9,77.86-119.55,210.12-244.59,210.12H1541.83V1035.24h41.58c119.64,0,203,83.25,203,163h25.31V803.26h-25.31c0,77.87-83.36,163-203,163h-41.58V549.63h183c112.33,0,164.78,77.86,164.78,150.35H1915V489.85H1268.17v25.32c36.29,0,72.48,39.84,72.48,103.28v811.72c0,63.43-36.19,103.28-72.48,103.28v25.31h641.35l29.07-269.89Z" />
                        <path class="cls-1"
                            d="M2473,1044.28c157.67-36.29,246.42-132.35,246.42-270,0-173.94-143.13-284.44-393.21-284.44H1992.87v25.32c36.29,0,72.48,39.84,72.48,103.28v811.72c0,63.43-36.19,103.28-72.48,103.28v25.31h344.21v-25.31c-34.36,0-70.65-39.85-70.65-103.28V1053.33c175.76,0,121.48,539.89,427.56,539.89,40,0,83.36-10.87,130.53-34.46v-25.31C2654.14,1533.45,2628.83,1158.34,2473,1044.28ZM2326.2,998.94h-59.77V549.63h59.77c134.09,0,192.13,108.67,192.13,224.66C2518.33,892,2460.29,998.94,2326.2,998.94Z" />
                        <path class="cls-1"
                            d="M3803.16,548.91c13.62-21.65,33.14-33.74,52.15-33.74V489.85H3511.1v25.32c36.19,0,72.48,39.84,72.48,103.28v811.72c0,63.43-36.29,103.28-72.48,103.28v25.31h344.21v-25.31c-34.36,0-70.65-39.85-70.65-103.28V618.45C3784.66,590,3791.87,566.4,3803.16,548.91Z" />
                        <path class="cls-1"
                            d="M3487.29,1241.79c0,100.6-32.66,179.86-97.1,235.43-64,55.27-145.74,83.25-243.13,83.25-60.63,0-117.76-9.26-169.72-27.49-43.19-15.11-79.45-34.12-108.41-56.54-6.14-4.78-11.89-9.65-17.35-14.72l-1.37-1.27c0-2.73,0-5.46.1-8.38v-.3c.1-62.88.1-164.94.29-219.83h34.22c2.34,6.34,7.7,34.22,8.29,36.75,4.78,20.86,9.84,41,19.3,60.54,36.46,75.85,116.4,129.86,200.24,135.9,53.62,3.9,110.35-20.38,150.71-55,61.32-52.45,60.74-142.53,3.12-198.58-29.34-28.57-84.32-59.57-163.48-91.93-85-33.35-149.94-74.39-192.83-122-43.48-48.26-65.61-114.74-65.61-197.51,0-91.54,29-167.19,86.08-224.71s133.46-86.66,226.85-86.66c112.8,0,205.9,29.73,276.77,88.22l3.61,2.93v1.75c0,4.88-.1,10-.3,15.4v.39c-.09,61.13-.09,160.66-.19,213.4h-31.59c-14.33-79.94-42-149.44-113.47-195.36-63.08-40.56-153.25-59.76-218-12.48-64.05,46.79-72.34,160.85-17.84,217.3,25.73,26.61,74.57,54.5,145,83.06,97.1,39.19,169.63,83.64,215.45,132C3463.6,1084.74,3487.29,1154.15,3487.29,1241.79Z" />
                        <g class="cls-2">
                            <path class="cls-1"
                                d="M210.34,1879.49v3.25c4.58,0,9.25,5,9.25,13v28.06c-3.66,3.15-8.33,4.27-12.91,4.27-26.12,0-34.86-33.65-34.86-54.39,0-29.48,12.8-60.08,35.07-60.08,4.67,0,10.57,2.14,12.91,5.8a14.34,14.34,0,0,0-5.49,11.38c0,9.66,6.6,14.74,13.21,14.74,6.91,0,13.62-4.57,13.62-14.74,0-14.64-18.4-25.41-34.25-25.41-36.7,0-60.79,31.41-60.79,68.31,0,29.68,22.06,69.13,55.09,69.13a29.62,29.62,0,0,0,20.84-8.75c5.49,0,13.32,3,19.72,7.32H245v-47.88c0-8,3.05-10.77,7.52-10.77v-3.25Z" />
                            <path class="cls-1"
                                d="M373.7,1806.09v3.15c4.27,0,8.85,5.08,8.85,13.11V1901c0,21.55-9.86,32.83-30.19,32.83-7.63,0-19.32-5.08-19.32-19.92v-91.6c0-8,4.58-13.11,8.95-13.11v-3.15H298.38v3.15c4.57,0,9.15,5.08,9.15,13.11V1901c0,30.49,25.31,41.07,44.83,41.07s38.73-10.58,38.73-41.07v-78.69c0-8,4.57-13.11,8.94-13.11v-3.15Z" />
                            <path class="cls-1"
                                d="M496.3,1809.24v-3.15H452.69v3.15c4.68,0,9.25,5.08,9.25,13.11v102.78c0,8-4.57,13.11-9.25,13.11v3.15H496.3v-3.15c-4.37,0-8.95-5.08-8.95-13.11V1822.35C487.35,1814.32,491.93,1809.24,496.3,1809.24Z" />
                            <path class="cls-1"
                                d="M591.75,1806.09H549.06v3.15c4.57,0,9.15,5.08,9.15,13.11v102.78c0,8-4.58,13.11-9.15,13.11v3.15h32.83a61.49,61.49,0,0,0,9.86.72c36.91,0,60.08-31.42,60.08-68.42S628.66,1806.09,591.75,1806.09Zm0,127.78a29.61,29.61,0,0,1-8-1.12V1813.61h8c21.76,0,33.45,23.69,33.45,60.08S613.51,1933.87,591.75,1933.87Z" />
                            <path class="cls-1"
                                d="M781.85,1907.24c-1.12,9.86-15.15,26.63-31,26.63H734.58v-58.76h5.29c15.14,0,25.72,10.58,25.72,20.64h3.15v-50h-3.15c0,9.86-10.58,20.63-25.72,20.63h-5.29v-52.76h23.18c14.23,0,20.84,9.86,20.84,19.11h3.25v-26.63H699.92v3.15c4.67,0,9.25,5.08,9.25,13.11v102.78c0,8-4.58,13.11-9.25,13.11v3.15h81.22l3.66-34.15Z" />
                            <path class="cls-1"
                                d="M972,1806.09h-42.7v3.15c4.58,0,9.15,5.08,9.15,13.11v102.78c0,8-4.57,13.11-9.15,13.11v3.15h32.84a62.27,62.27,0,0,0,9.86.72c36.9,0,60.08-31.42,60.08-68.42S1008.85,1806.09,972,1806.09Zm0,127.78a30.06,30.06,0,0,1-8-1.12V1813.61h8c21.75,0,33.54,23.69,33.54,60.08S993.7,1933.87,972,1933.87Z" />
                            <path class="cls-1"
                                d="M1155.94,1806.09v3.15c4.37,0,9,5.08,9,13.11V1901c0,21.55-9.86,32.83-30.29,32.83-7.63,0-19.32-5.08-19.32-19.92v-91.6c0-8,4.58-13.11,9-13.11v-3.15h-43.61v3.15c4.67,0,9.25,5.08,9.25,13.11V1901c0,30.49,25.21,41.07,44.73,41.07s38.73-10.58,38.73-41.07v-78.69c0-8,4.57-13.11,8.94-13.11v-3.15Z" />
                            <path class="cls-1"
                                d="M1471.08,1809.24v-3.15h-34.67L1399,1906.32l-37.61-100.23h-34.67v3.15c4.58,0,9.15,5.08,9.15,13.11v102.78c0,8-4.57,13.11-9.15,13.11v3.15h26.33v-3.15c-4.37,0-8.94-5.08-8.94-13.11v-97.08l42.49,113.34h7.32l42.49-113v96.78c0,8-4.57,13.11-8.94,13.11v3.15h43.61v-3.15c-4.68,0-9.26-5.08-9.26-13.11V1822.35C1461.82,1814.32,1466.4,1809.24,1471.08,1809.24Z" />
                            <path class="cls-1"
                                d="M1637.49,1925.13l-46-119c-6.21,4.78-15.46,8-22.06,9l4.06,10.57-33.75,99.52c-2.23,6.91-9.76,13.11-16,13.11v3.15h30.5v-3.15c-6.71,0-8.23-6.4-6.2-13.11l7.52-22.26h47.78l8.74,22.26c3,8,.41,13.11-4.17,13.11v3.15h44.94v-3.15C1647.55,1938.24,1640.74,1933.16,1637.49,1925.13Zm-78.89-30.9,19.21-57.14,22.06,57.14Z" />
                            <path class="cls-1"
                                d="M1765.17,1876.33c20-4.67,31.31-16.77,31.31-34.25,0-22.06-18.2-36-49.82-36h-42.28v3.15c4.67,0,9.25,5.08,9.25,13.11v102.78c0,8-4.58,13.11-9.25,13.11v3.15H1748v-3.15c-4.38,0-9-5.08-9-13.11v-47.68c22.26,0,15.35,68.31,54.18,68.31a36,36,0,0,0,16.47-4.37v-3.15C1788.14,1938.24,1785,1890.77,1765.17,1876.33Zm-18.51-5.79H1739v-56.93h7.62c17,0,24.3,13.83,24.3,28.47C1771,1857,1763.64,1870.54,1746.66,1870.54Z" />
                            <path class="cls-1"
                                d="M1904.84,1809.24v-3.15h-43.61v3.15c4.68,0,9.25,5.08,9.25,13.11v102.78c0,8-4.57,13.11-9.25,13.11v3.15h43.61v-3.15c-4.37,0-8.95-5.08-8.95-13.11V1822.35C1895.89,1814.32,1900.47,1809.24,1904.84,1809.24Z" />
                            <path class="cls-1"
                                d="M2071.35,1925.13l-46-119c-6.2,4.78-15.35,8-22.06,9l4.17,10.57-33.75,99.52c-2.34,6.91-9.86,13.11-16.06,13.11v3.15h30.5v-3.15c-6.61,0-8.24-6.4-6.2-13.11l7.62-22.26h47.68l8.74,22.26c2.95,8,.4,13.11-4.17,13.11v3.15h44.93v-3.15C2081.52,1938.24,2074.61,1933.16,2071.35,1925.13Zm-78.88-30.9,19.21-57.14,22.06,57.14Z" />
                            <path class="cls-1"
                                d="M2188.05,1879.49v3.25c4.58,0,9.25,5,9.25,13v28.06c-3.66,3.15-8.33,4.27-12.91,4.27-26.12,0-34.86-33.65-34.86-54.39,0-29.48,12.8-60.08,35.07-60.08,4.67,0,10.57,2.14,12.91,5.8a14.34,14.34,0,0,0-5.49,11.38c0,9.66,6.61,14.74,13.31,14.74s13.52-4.57,13.52-14.74c0-14.64-18.4-25.41-34.25-25.41-36.7,0-60.79,31.41-60.79,68.31,0,29.68,22.06,69.13,55.09,69.13a29.62,29.62,0,0,0,20.84-8.75c5.59,0,13.32,3,19.83,7.32h3.15v-47.88c0-8,3.05-10.77,7.62-10.77v-3.25Z" />
                            <path class="cls-1"
                                d="M2359.14,1907.24c-1.12,9.86-15,26.63-30.9,26.63H2312v-58.76h5.29c15.14,0,25.61,10.58,25.61,20.64h3.26v-50h-3.26c0,9.86-10.47,20.63-25.61,20.63H2312v-52.76h23.18c14.23,0,20.84,9.86,20.84,19.11h3.15v-26.63h-81.83v3.15c4.57,0,9.15,5.08,9.15,13.11v102.78c0,8-4.58,13.11-9.15,13.11v3.15h81.22l3.66-34.15Z" />
                            <path class="cls-1"
                                d="M2588.47,1907.24c-1.11,9.86-15.14,26.63-30.9,26.63H2541.2v-58.76h5.29c15.15,0,25.72,10.58,25.72,20.64h3.25v-50h-3.25c0,9.86-10.57,20.63-25.72,20.63h-5.29v-52.76h23.18c14.23,0,20.94,9.86,20.94,19.11h3.15v-26.63h-81.83v3.15c4.58,0,9.15,5.08,9.15,13.11v102.78c0,8-4.57,13.11-9.15,13.11v3.15h81.22l3.66-34.15Z" />
                            <path class="cls-1"
                                d="M2711.88,1806.09v3.15c4.38,0,8.95,5.08,8.95,13.11v67.91l-42-84.17h-34.67v3.15c4.68,0,9.25,5.08,9.25,13.11v102.78c0,8-4.57,13.11-9.25,13.11v3.15h26.43v-3.15c-4.37,0-8.94-5.08-8.94-13.11V1822.86l59.16,118.53h8.23v-119c0-8,4.58-13.11,9.25-13.11v-3.15Z" />
                            <path class="cls-1"
                                d="M2992,1925.13l-46.16-119c-6.2,4.78-15.35,8-22.06,9l4.17,10.57-33.75,99.52c-2.23,6.91-9.86,13.11-16.06,13.11v3.15h30.5v-3.15c-6.61,0-8.24-6.4-6.2-13.11l7.62-22.26h47.68l8.74,22.26c3,8,.51,13.11-4.17,13.11v3.15h45v-3.15C3002,1938.24,2995.1,1933.16,2992,1925.13Zm-79-30.9,19.31-57.14,22,57.14Z" />
                            <path class="cls-1"
                                d="M3145.34,1907.24c-1.22,9.86-15.14,26.63-31,26.63H3093.5V1822.35c0-8,4.57-13.11,8.94-13.11v-3.15h-43.61v3.15c4.58,0,9.15,5.08,9.15,13.11v102.78c0,8-4.57,13.11-9.15,13.11v3.15h85.8l3.66-34.15Z" />
                            <path class="cls-1"
                                d="M3259.5,1879.49v3.25c4.58,0,9.15,5,9.15,13v28.06c-3.66,3.15-8.23,4.27-12.81,4.27-26.12,0-34.86-33.65-34.86-54.39,0-29.48,12.8-60.08,35.07-60.08,4.67,0,10.57,2.14,12.91,5.8a14.34,14.34,0,0,0-5.49,11.38c0,9.66,6.61,14.74,13.21,14.74,6.92,0,13.62-4.57,13.62-14.74,0-14.64-18.4-25.41-34.25-25.41-36.7,0-60.79,31.41-60.79,68.31,0,29.68,22.06,69.13,55.09,69.13a29.79,29.79,0,0,0,20.84-8.75c5.49,0,13.32,3,19.72,7.32h3.26v-47.88c0-8,2.95-10.77,7.52-10.77v-3.25Z" />
                            <path class="cls-1"
                                d="M3573.92,1876.33c19.93-4.67,31.21-16.77,31.21-34.25,0-22.06-18.09-36-49.81-36h-42.19v3.15c4.58,0,9.15,5.08,9.15,13.11v102.78c0,8-4.57,13.11-9.15,13.11v3.15h43.61v-3.15c-4.37,0-8.94-5.08-8.94-13.11v-47.68c22.26,0,15.35,68.31,54.08,68.31a36.38,36.38,0,0,0,16.57-4.37v-3.15C3596.9,1938.24,3593.65,1890.77,3573.92,1876.33Zm-18.6-5.79h-7.52v-56.93h7.52c17,0,24.4,13.83,24.4,28.47C3579.72,1857,3572.3,1870.54,3555.32,1870.54Z" />
                            <path class="cls-1"
                                d="M3713.6,1809.24v-3.15H3670v3.15c4.57,0,9.15,5.08,9.15,13.11v102.78c0,8-4.58,13.11-9.15,13.11v3.15h43.61v-3.15c-4.37,0-8.95-5.08-8.95-13.11V1822.35C3704.65,1814.32,3709.23,1809.24,3713.6,1809.24Z" />
                            <path class="cls-1"
                                d="M3848.19,1907.24c-1.12,9.86-15.15,26.63-31,26.63h-16.27v-58.76h5.29c15.14,0,25.72,10.58,25.72,20.64h3.15v-50h-3.15c0,9.86-10.58,20.63-25.72,20.63h-5.29v-52.76h23.18c14.23,0,20.94,9.86,20.94,19.11h3.15v-26.63h-81.93v3.15c4.67,0,9.25,5.08,9.25,13.11v102.78c0,8-4.58,13.11-9.25,13.11v3.15h81.32l3.66-34.15Z" />
                            <path class="cls-1"
                                d="M3453.77,1907.24c-1.12,9.86-15.15,26.63-31,26.63H3406.5v-58.76h5.28c15.15,0,25.72,10.58,25.72,20.64h3.26v-50h-3.26c0,9.86-10.57,20.63-25.72,20.63h-5.28v-52.76h23.17c14.24,0,20.95,9.86,20.95,19.11h3.15v-26.63h-81.84v3.15c4.58,0,9.15,5.08,9.15,13.11v102.78c0,8-4.57,13.11-9.15,13.11v3.15h81.23l3.66-34.15Z" />
                        </g>
                        <polygon class="cls-3"
                            points="591.55 671.66 791.76 346.42 667.78 163.11 327.19 196.08 240.68 399.78 591.55 671.66" />
                        <path class="cls-4"
                            d="M936.3,607.55a539.44,539.44,0,0,0-100.2-50.19l107.19-202,14.49-27.41L940,302.43,783.38,79.09,766,54.24,289.47,110.15l-11.16,28.21L177.5,391.91l-15,37.67L470.26,578.5,267.43,420.6l94-216.75L717.71,162,835.35,329.79,826.52,359l-91,171.21-61.2,115.28A437.8,437.8,0,0,1,778,667a420.56,420.56,0,0,1,92.11,43.66c81,52.28,144.18,132,174.86,223.75,30.71,91.89,30.18,194.77-4.17,286.46-34,91.82-100.49,172.14-186.07,223.21-42.62,25.6-90.31,42.77-139.58,52.3-49.18,10.19-100.51,10.94-150.41,3.35-100.39-14.1-196.1-65.17-266-141.73a457.23,457.23,0,0,1-84.63-130.84c-20.65-48.31-32.59-100.7-36.44-153.86C170.57,966.71,201,856.4,264.81,766,228.69,807.71,198.54,855.5,178,908c-20.59,52.29-31.31,108.87-33.12,165.94-2.94,114.22,35.74,230.54,108.82,322.4C327.19,1487.59,433.2,1554,550.57,1578c58.59,11.85,119.58,13.71,178.89,4.2,59.44-8.51,118.06-26.79,171.54-55.54,107-57.49,193.53-152.42,241.14-265.93,46.53-114.06,51.54-244,15.51-362.52C1119.93,779.89,1040.76,675.3,936.3,607.55Z" />
                    </svg>