<svg
                        xmlns="http://www.w3.org/2000/svg"
                        width="1rem"
                        height="1rem"
                        viewBox="0 0 24 24"
                      >
                        <path
                          fill="none"
                          stroke="currentColor"
                          stroke-linecap="round"
                          stroke-linejoin="round"
                          stroke-width="1.5"
                          d="m5 14l.804 5.626C5.948 20.636 6.308 21 7.385 21H10m-5-7h4m-4 0c-1.303-.604-2-2.236-2-3.666c0-1.536 1.03-2.85 2.49-3.397A.79.79 0 0 0 6 6.208c0-1.265 1.12-2.291 2.5-2.291c.668 0 1.31.322 1.941-.066A5.83 5.83 0 0 1 13.5 3C16.538 3 19 5.257 19 8.042c0 1.256 2 1.594 2 3.208c0 1.277-.712 2.44-2 2.75m0 0h-4m4 0l-.804 5.628C18.044 20.693 17.635 21 16.615 21H14m1-7H9m6 0l-1 7m-5-7l1 7m0 0h4"
                        />
                      </svg>