<svg
                        xmlns="http://www.w3.org/2000/svg"
                        width="1rem"
                        height="1rem"
                        viewBox="0 0 24 24"
                      >
                        <g
                          fill="none"
                          stroke="currentColor"
                          stroke-linecap="round"
                          stroke-linejoin="round"
                          stroke-width="1.5"
                        >
                          <path
                            d="M3 18V9a2 2 0 0 1 2-2h.93a2 2 0 0 0 1.664-.89l.812-1.22A2 2 0 0 1 10.07 4h3.86a2 2 0 0 1 1.664.89l.812 1.22A2 2 0 0 0 18.07 7H19a2 2 0 0 1 2 2v9a2 2 0 0 1-2 2H5a2 2 0 0 1-2-2"
                          />
                          <circle cx="12" cy="13" r="3" />
                        </g>
                      </svg>