<svg xmlns="http://www.w3.org/2000/svg" width="1.5rem" height="1.5rem" viewBox="0 0 48 48"><defs><mask id="ipTCheckOne0"><g fill="none" stroke="#fff" stroke-linejoin="round" stroke-width="2.5"><path fill="#000" d="M24 44a19.94 19.94 0 0 0 14.142-5.858A19.94 19.94 0 0 0 44 24a19.94 19.94 0 0 0-5.858-14.142A19.94 19.94 0 0 0 24 4A19.94 19.94 0 0 0 9.858 9.858A19.94 19.94 0 0 0 4 24a19.94 19.94 0 0 0 5.858 14.142A19.94 19.94 0 0 0 24 44Z"/><path stroke-linecap="round" d="m16 24l6 6l12-12"/></g></mask></defs><path fill="currentColor" d="M0 0h48v48H0z" mask="url(#ipTCheckOne0)"/></svg>