<svg xmlns="http://www.w3.org/2000/svg" width="1.5rem" height="1.5rem" viewBox="0 0 24 24"><path fill="currentColor" d="M10.116 13.442q.213 0 .356-.143q.144-.144.144-.357v-2.826q0-.213-.144-.357t-.357-.143t-.356.143t-.143.357v2.826q0 .213.143.357q.144.143.357.143m-4.289-1.115q-1.035-.517-1.68-1.48Q3.5 9.885 3.5 8.725q0-1.548 1.086-2.636Q5.67 5 7.219 5q.295 0 .603.05t.603.125l.173.039l.096-.155q.548-.909 1.404-1.484T12 3t1.902.575t1.423 1.484l.096.154l.154-.038q.286-.075.572-.125t.595-.05q1.568 0 2.663 1.088T20.5 8.744q0 1.16-.637 2.113q-.636.953-1.69 1.466v4.908H5.827zm8.078 1.115q.212 0 .356-.143t.143-.357v-2.826q0-.213-.144-.357q-.144-.143-.357-.143t-.356.143t-.143.357v2.826q0 .213.144.357t.357.143m-7.078 2.789h10.346v-4.552l.812-.396q.707-.344 1.12-1.018t.414-1.482q0-1.169-.828-1.976T16.704 6q-.256 0-.49.04q-.235.04-.466.116l-.79.228l-.487-.819q-.408-.69-1.047-1.128T12.01 4t-1.415.438t-1.047 1.128l-.487.819l-.815-.23q-.23-.068-.468-.112T7.29 6q-1.16 0-1.975.803T4.5 8.768q0 .803.411 1.473t1.124 1.042l.792.396zm-1 1h1v2.153q0 .27.173.443t.442.173h9.116q.269 0 .442-.173t.173-.443v-2.153h1v2.153q0 .667-.474 1.141T16.558 21H7.442q-.666 0-1.14-.475t-.475-1.14zm6.192-1" stroke-width="0.5" stroke="currentColor"/></svg>