<svg xmlns="http://www.w3.org/2000/svg" width="1.3rem" height="1.3rem" viewBox="0 0 16 16"><path fill="currentColor" fill-rule="evenodd" d="M13 11.567C13 12.36 12.36 13 11.567 13H4.433C3.64 13 3 12.36 3 11.567V4.433C3 3.64 3.64 3 4.433 3H6v-.495a.51.51 0 0 1 .412-.497L6.5 2c.276 0 .5.214.5.505V3h2v-.495a.51.51 0 0 1 .412-.497L9.5 2c.276 0 .5.214.5.505V3h1.567C12.36 3 13 3.64 13 4.433zM4 6v5.33c0 .37.3.67.67.67h6.66c.37 0 .67-.3.67-.67V6zm1.5 4c.245 0 .45.183.492.412L6 10.5c0 .245-.183.45-.412.492L5.5 11a.505.505 0 0 1-.5-.5c0-.245.183-.45.412-.492zM8 10c.245 0 .45.183.492.412l.008.088c0 .245-.183.45-.412.492L8 11a.505.505 0 0 1-.5-.5c0-.245.183-.45.412-.492zm2.5 0c.245 0 .45.183.492.412L11 10.5c0 .245-.183.45-.412.492L10.5 11a.505.505 0 0 1-.5-.5c0-.245.183-.45.412-.492zm-5-1.5c.245 0 .45.183.492.412L6 9c0 .245-.183.45-.412.492L5.5 9.5A.505.505 0 0 1 5 9c0-.245.183-.45.412-.492zm2.5 0c.245 0 .45.183.492.412L8.5 9c0 .245-.183.45-.412.492L8 9.5a.505.505 0 0 1-.5-.5c0-.245.183-.45.412-.492zm2.5 0c.245 0 .45.183.492.412L11 9c0 .245-.183.45-.412.492L10.5 9.5A.505.505 0 0 1 10 9c0-.245.183-.45.412-.492zM5.5 7c.245 0 .45.183.492.412L6 7.5c0 .245-.183.45-.412.492L5.5 8a.505.505 0 0 1-.5-.5c0-.245.183-.45.412-.492zM8 7c.245 0 .45.183.492.412L8.5 7.5c0 .245-.183.45-.412.492L8 8a.505.505 0 0 1-.5-.5c0-.245.183-.45.412-.492zm2.5 0c.245 0 .45.183.492.412L11 7.5c0 .245-.183.45-.412.492L10.5 8a.505.505 0 0 1-.5-.5c0-.245.183-.45.412-.492zM4 5h8v-.33c0-.37-.3-.67-.67-.67H4.67C4.3 4 4 4.3 4 4.67z" stroke-width="0" stroke="currentColor"/></svg>