<svg
                    xmlns="http://www.w3.org/2000/svg"
                    width="1rem"
                    height="1rem"
                    viewBox="0 0 24 24"
                  >
                    <g
                      fill="none"
                      stroke="currentColor"
                      stroke-linecap="round"
                      stroke-linejoin="round"
                      stroke-width="1"
                      color="currentColor"
                    >
                      <path
                        d="M19.5 18h-1.323c-.328 0-.492 0-.619-.086s-.188-.238-.31-.543l-.497-1.242c-.121-.305-.182-.457-.31-.543c-.126-.086-.29-.086-.618-.086H13.5c-.471 0-.707 0-.854-.146c-.146-.147-.146-.383-.146-.854v-4m0-2.5v2.5m0 0h3.889M12.5 6a2 2 0 1 1 0-4a2 2 0 0 1 0 4"
                      />
                      <path
                        d="M9.558 10c-2.87.48-5.058 2.964-5.058 5.958C4.5 19.295 7.217 22 10.57 22a6.07 6.07 0 0 0 4.93-2.517"
                      />
                    </g>
                  </svg>