<svg xmlns="http://www.w3.org/2000/svg" width="1.5rem" height="1.5rem" viewBox="0 0 24 24"><path fill="" fill-rule="evenodd" d="M9.765 2.998a3 3 0 0 1 4.47 0l.7.782a1 1 0 0 0 .801.332l1.05-.058a3 3 0 0 1 3.16 3.16l-.058 1.05a1 1 0 0 0 .332.8l.783.7a3 3 0 0 1 0 4.471l-.783.7a1 1 0 0 0-.332.801l.058 1.05a3 3 0 0 1-3.16 3.16l-1.05-.058a1 1 0 0 0-.8.332l-.7.783a3 3 0 0 1-4.471 0l-.7-.783a1 1 0 0 0-.801-.332l-1.05.058a3 3 0 0 1-3.16-3.16l.058-1.05a1 1 0 0 0-.332-.8l-.782-.7a3 3 0 0 1 0-4.471l.782-.7a1 1 0 0 0 .332-.801l-.058-1.05a3 3 0 0 1 3.16-3.16l1.05.058a1 1 0 0 0 .8-.332zm5.942 5.295a1 1 0 0 1 0 1.414l-6 6a1 1 0 0 1-1.414-1.414l6-6a1 1 0 0 1 1.414 0M9.5 8A1.5 1.5 0 0 0 8 9.5v.01a1.5 1.5 0 0 0 1.5 1.5h.01a1.5 1.5 0 0 0 1.5-1.5V9.5A1.5 1.5 0 0 0 9.51 8zm5 5a1.5 1.5 0 0 0-1.5 1.5v.01a1.5 1.5 0 0 0 1.5 1.5h.01a1.5 1.5 0 0 0 1.5-1.5v-.01a1.5 1.5 0 0 0-1.5-1.5z" clip-rule="evenodd"/></svg>