<svg
                        xmlns="http://www.w3.org/2000/svg"
                        width="1rem"
                        height="1rem"
                        viewBox="0 0 48 48"
                      >
                        <g
                          fill="none"
                          stroke="currentColor"
                          stroke-linecap="round"
                          stroke-linejoin="round"
                          stroke-width="4"
                        >
                          <path
                            d="m19.193 21.544l2.319 18.552a3.473 3.473 0 0 1-6.892.862l-2.374-18.989"
                          />
                          <path
                            d="M13 4a9 9 0 0 0 0 18c1.578 0 3.74-.175 6.193-.456l12.403-2.022L44 17.5v-9L28.5 6.25zm24 4.2v9.6m7-.3l-12.403 2.022M44 8.5L28.5 6.25"
                          />
                          <path d="M16 13a3 3 0 1 1-6 0a3 3 0 0 1 6 0" />
                        </g>
                      </svg>