<svg
                        xmlns="http://www.w3.org/2000/svg"
                        width="1rem"
                        height="1rem"
                        viewBox="0 0 24 24"
                      >
                        <path
                          fill="currentColor"
                          d="m9 1.842l6.074 3.544L22 2.5V11h-2V5.5l-4 1.667V11h-2V7.074l-4-2.333v12.185l1.868 1.09l-1.008 1.727l-1.934-1.129L2 21.5V5.926zM8 16.833V4.741L4 7.074V18.5zM18 14a2.75 2.75 0 0 0-2.75 2.75c0 1.252.735 2.454 1.615 3.422c.407.448.817.814 1.135 1.075c.318-.26.728-.627 1.135-1.075c.88-.968 1.615-2.17 1.615-3.422A2.75 2.75 0 0 0 18 14m0 9.701l-.555-.369l-.002-.001l-.004-.003l-.012-.008l-.04-.028l-.137-.097a13 13 0 0 1-1.865-1.677c-.995-1.094-2.135-2.767-2.135-4.768a4.75 4.75 0 1 1 9.5 0c0 2.001-1.14 3.674-2.135 4.768a13 13 0 0 1-2.002 1.774l-.04.028l-.012.008l-.004.003h-.002zM16.75 16h2.5v2h-2.5z"
                        />
                      </svg>