<svg width="123" height="56" viewBox="0 0 123 56" fill="none" xmlns="http://www.w3.org/2000/svg">
<path d="M58.8862 36.0884C58.6095 38.2684 55.2101 41.9717 51.3651 41.9717H47.4113V28.9867H48.6898C52.3688 28.9867 54.9321 31.3177 54.9321 33.5507H55.7104V22.4913H54.9321C54.9321 24.6716 52.3688 27.0553 48.6898 27.0553H47.4113V15.3896H53.0385C56.4927 15.3896 58.1055 17.5697 58.1055 19.5994H58.8862V13.7158H38.9962V14.4247C40.1121 14.4247 41.225 15.5403 41.225 17.3166V40.0448C41.225 41.8208 40.1121 42.9366 38.9962 42.9366V43.6453H58.7177L59.6116 36.0884H58.8862Z" fill="#3A1010"/>
<path d="M76.0448 29.2398C80.8931 28.2237 83.6222 25.534 83.6222 21.6798C83.6222 16.8095 79.2209 13.7155 71.531 13.7155H61.2808V14.4245C62.3967 14.4245 63.5095 15.54 63.5095 17.3163V40.0445C63.5095 41.8205 62.3967 42.9363 61.2808 42.9363V43.645H71.8652V42.9363C70.8087 42.9363 69.6927 41.8205 69.6927 40.0445V29.4932C75.0974 29.4932 73.4282 44.6102 82.8402 44.6102C84.0702 44.6102 85.4035 44.3058 86.854 43.6453V42.9366C81.6148 42.9366 80.8365 32.4335 76.0448 29.2398ZM71.5307 27.9703H69.6927V15.3896H71.5307C75.6539 15.3896 77.4387 18.4324 77.4387 21.6801C77.4387 24.976 75.6539 27.9703 71.5307 27.9703Z" fill="#3A1010"/>
<path d="M116.947 15.3695C117.366 14.7633 117.966 14.4247 118.551 14.4247V13.7158H107.966V14.4247C109.079 14.4247 110.195 15.5403 110.195 17.3166V40.0448C110.195 41.8208 109.079 42.9366 107.966 42.9366V43.6453H118.551V42.9366C117.494 42.9366 116.378 41.8208 116.378 40.0448V17.3166C116.378 16.52 116.6 15.8592 116.947 15.3695Z" fill="#3A1010"/>
<path d="M107.234 34.7701C107.234 37.5869 106.23 39.8062 104.248 41.3622C102.28 42.9097 99.7668 43.6932 96.7721 43.6932C94.9077 43.6932 93.151 43.4339 91.5532 42.9234C90.2251 42.5004 89.1101 41.9681 88.2196 41.3403C88.0308 41.2065 87.854 41.0701 87.6861 40.9282L87.6439 40.8926C87.6439 40.8162 87.644 40.7397 87.647 40.658V40.6496C87.6501 38.8889 87.6501 36.0312 87.6559 34.4943H88.7082C88.7802 34.6718 88.945 35.4525 88.9631 35.5233C89.1101 36.1074 89.2657 36.6713 89.5566 37.2184C90.6777 39.3422 93.1359 40.8545 95.714 41.0236C97.3628 41.1328 99.1072 40.453 100.348 39.4836C102.234 38.015 102.216 35.4928 100.444 33.9234C99.542 33.1234 97.8514 32.2554 95.4172 31.3494C92.8035 30.4156 90.8066 29.2664 89.4877 27.9334C88.1507 26.5821 87.4702 24.7206 87.4702 22.4031C87.4702 19.84 88.362 17.7218 90.1172 16.1112C91.8724 14.5006 94.2211 13.6847 97.0928 13.6847C100.561 13.6847 103.424 14.5172 105.603 16.1549L105.715 16.2369V16.2859C105.715 16.4226 105.711 16.5659 105.705 16.7171V16.728C105.703 18.4397 105.703 21.2265 105.699 22.7032H104.728C104.287 20.4649 103.437 18.5189 101.239 17.2332C99.2991 16.0975 96.5264 15.5599 94.5353 16.8837C92.5658 18.1938 92.3109 21.3875 93.9868 22.9681C94.778 23.7132 96.2798 24.4941 98.4455 25.2938C101.431 26.3911 103.662 27.6357 105.071 28.9898C106.506 30.3727 107.234 32.3162 107.234 34.7701Z" fill="#3A1010"/>
<path opacity="0.2" d="M18.1901 18.8065L24.3466 9.69976L20.5342 4.56708L10.0611 5.49024L7.40088 11.1938L18.1901 18.8065Z" fill="url(#paint0_linear_1_6)"/>
<path d="M28.7912 17.0114C27.8205 16.4468 26.7879 15.9758 25.7101 15.6061L29.0062 9.95007L29.4517 9.18259L28.905 8.46803L24.0889 2.21451L23.5545 1.51871L8.9012 3.08419L8.55803 3.87407L5.45812 10.9735L4.99687 12.0282L14.4605 16.198L8.22347 11.7768L11.114 5.70779L22.0696 4.53599L25.687 9.23411L25.4155 10.052L22.6172 14.8459L20.7353 18.0737C21.8209 18.1563 22.8914 18.3585 23.9235 18.676C24.9186 18.9774 25.8697 19.3879 26.7559 19.8985C29.2466 21.3623 31.1894 23.5945 32.1328 26.1635C33.0772 28.7364 33.0609 31.617 32.0046 34.1843C30.9591 36.7553 28.9145 39.0043 26.2829 40.4342C24.9724 41.151 23.5059 41.6318 21.9909 41.8986C20.4786 42.1839 18.9002 42.2049 17.3657 41.9924C14.2788 41.5976 11.3357 40.1677 9.18625 38.024C8.09497 36.9474 7.21474 35.7082 6.58388 34.3605C5.94889 33.0078 5.58174 31.5409 5.46335 30.0524C5.24502 27.0679 6.18075 23.9792 8.1429 21.448C7.03221 22.6159 6.1051 23.954 5.4735 25.424C4.84035 26.8881 4.51071 28.4723 4.45506 30.0703C4.36465 33.2685 5.55406 36.5254 7.80127 39.0975C10.0611 41.6525 13.3209 43.512 16.93 44.184C18.7317 44.5158 20.6071 44.5679 22.4309 44.3016C24.2587 44.0633 26.0612 43.5515 27.7057 42.7465C30.996 41.1367 33.6568 38.4787 35.1208 35.3004C36.5516 32.1067 36.7057 28.4684 35.5977 25.1499C34.4378 21.8369 32.0034 18.9084 28.7912 17.0114Z" fill="url(#paint1_linear_1_6)"/>
<defs>
<linearGradient id="paint0_linear_1_6" x1="10.6979" y1="-22.7189" x2="20.2998" y2="51.487" gradientUnits="userSpaceOnUse">
<stop stop-color="#EC615C"/>
<stop offset="1" stop-color="#A9254E"/>
</linearGradient>
<linearGradient id="paint1_linear_1_6" x1="12.1395" y1="-22.9054" x2="21.7413" y2="51.3006" gradientUnits="userSpaceOnUse">
<stop stop-color="#EC615C"/>
<stop offset="1" stop-color="#A9254E"/>
</linearGradient>
</defs>
</svg>
