<svg xmlns="http://www.w3.org/2000/svg" width="1.5rem" height="1.5rem" viewBox="0 0 24 24"><path fill="currentColor" fill-rule="evenodd" d="M13.809 1.61c.36-.22.82-.1 1.03.25c.58.97.86 3.12-1.36 4.97c-.32.26-.79.22-1.06-.1a.76.76 0 0 1 .1-1.06c1.62-1.35 1.25-2.67 1.03-3.03a.76.76 0 0 1 .26-1.03m5.72 4.17c.29-.29.29-.77 0-1.06a.755.755 0 0 0-1.06 0l-3 3c-.29.29-.29.77 0 1.06s.77.29 1.06 0zm-6.63 3.64l1.93 1.93c.93.94 1.7 1.7 2.19 2.36c.51.69.85 1.42.69 2.26c-.15.84-.73 1.4-1.45 1.86c-.71.45-1.69.89-2.9 1.42l-3.43 1.53c-2.03.9-3.64 1.61-4.86 1.96c-1.19.35-2.36.45-3.18-.38c-.83-.82-.73-1.99-.38-3.18c.35-1.22 1.06-2.83 1.96-4.86l1.5-3.37l.03-.06c.53-1.21.97-2.19 1.42-2.9c.46-.72 1.02-1.3 1.86-1.45c.84-.16 1.57.18 2.26.69c.66.49 1.42 1.26 2.36 2.19m-3.26-.99c-.55-.41-.85-.46-1.09-.42c-.24.05-.5.2-.87.79c-.22.35-.45.8-.71 1.37c.02.01.04.03.06.05l7 7s.04.04.05.06c.57-.26 1.02-.49 1.37-.71c.59-.37.74-.63.79-.87c.04-.24-.01-.54-.42-1.09c-.42-.57-1.11-1.25-2.1-2.24l-1.84-1.84c-.99-.99-1.67-1.68-2.24-2.1m-4.77 6.44l1.44-3.25l6.32 6.32l-3.25 1.44l-.19.08a.6.6 0 0 0-.16-.24l-4-4a.6.6 0 0 0-.24-.16zm-.71 1.6l3.62 3.62c-1.3.57-2.32.98-3.12 1.21c-1.15.33-1.53.19-1.71 0c-.19-.18-.33-.56 0-1.71c.23-.8.64-1.82 1.21-3.12m18.23-7.06c-.97-.58-3.12-.86-4.97 1.36c-.26.32-.22.79.1 1.06c.32.26.79.22 1.06-.1c1.35-1.62 2.67-1.25 3.03-1.03c.36.21.82.09 1.03-.26c.22-.36.1-.82-.25-1.03m-4.39-7.91c.41 0 .75.34.75.75v.02c0 .41-.34.75-.75.75s-.75-.34-.75-.75v-.02c0-.41.34-.75.75-.75m4.75 4.75c0-.41-.34-.75-.75-.75s-.75.34-.75.75v.02c0 .41.34.75.75.75s.75-.34.75-.75zm-1.75 6.25c.41 0 .75.34.75.75v.02c0 .41-.34.75-.75.75s-.75-.34-.75-.75v-.02c0-.41.34-.75.75-.75m-9.25-9.25c0-.41-.34-.75-.75-.75s-.75.34-.75.75v.02c0 .41.34.75.75.75s.75-.34.75-.75z" color="currentColor"/></svg>