<svg
                        xmlns="http://www.w3.org/2000/svg"
                        width="1rem"
                        height="1rem"
                        viewBox="0 0 24 24"
                      >
                        <path
                          fill="currentColor"
                          d="M3.5 8a5.5 5.5 0 1 1 8.596 4.547a9.005 9.005 0 0 1 5.9 8.18a.751.751 0 0 1-1.5.045a7.5 7.5 0 0 0-14.993 0a.75.75 0 0 1-1.499-.044a9.005 9.005 0 0 1 5.9-8.181A5.5 5.5 0 0 1 3.5 8M9 4a4 4 0 1 0 0 8a4 4 0 0 0 0-8m8.29 4q-.221 0-.434.03a.75.75 0 1 1-.212-1.484a4.53 4.53 0 0 1 3.38 8.097a6.69 6.69 0 0 1 3.956 6.107a.75.75 0 0 1-1.5 0a5.19 5.19 0 0 0-3.696-4.972l-.534-.16v-1.676l.41-.209A3.03 3.03 0 0 0 17.29 8"
                        />
                      </svg>