<svg
                    xmlns="http://www.w3.org/2000/svg"
                    width="1rem"
                    height="1rem"
                    viewBox="0 0 24 24"
                  >
                    <path
                      fill="currentColor"
                      d="M12 4.5a2.5 2.5 0 1 0 0 5a2.5 2.5 0 0 0 0-5M8.5 7a3.5 3.5 0 1 1 7 0a3.5 3.5 0 0 1-7 0m.87 5.546q-.35.09-.693.202l-.959.315a2.48 2.48 0 0 0-1.626 1.71l-.399 2.88c-.09.647.253 1.18.796 1.31c1.067.255 2.851.537 5.51.537c2.66 0 4.445-.282 5.512-.537c.543-.13.885-.663.796-1.31l-.4-2.88a2.48 2.48 0 0 0-1.626-1.71l-.959-.315q-.343-.113-.692-.202a4.5 4.5 0 0 1-.572.382a4.2 4.2 0 0 1-2.058.558c-.86 0-1.57-.283-2.058-.558a4.5 4.5 0 0 1-.573-.382m.285-1.095l.194.191l.005.005l.024.022q.035.032.111.092c.1.08.251.188.444.296c.387.218.927.429 1.567.429s1.18-.21 1.567-.429a3.5 3.5 0 0 0 .554-.388l.025-.023l.004-.003l.194-.192l.268.062q.516.118 1.022.285l.96.315a3.47 3.47 0 0 1 2.29 2.44l.007.027l.406 2.936c.147 1.06-.42 2.15-1.554 2.42c-1.15.274-3.013.564-5.743.564s-4.593-.29-5.743-.564c-1.134-.27-1.701-1.36-1.555-2.42l.407-2.936l.007-.027a3.47 3.47 0 0 1 2.29-2.44l.96-.315q.506-.166 1.022-.285z"
                    />
                  </svg>