<svg xmlns="http://www.w3.org/2000/svg" width="1.5rem" height="1.5rem" viewBox="0 0 24 24"><g fill="none"><path d="m12.593 23.258l-.011.002l-.071.035l-.02.004l-.014-.004l-.071-.035q-.016-.005-.024.005l-.004.01l-.017.428l.005.02l.01.013l.104.074l.015.004l.012-.004l.104-.074l.012-.016l.004-.017l-.017-.427q-.004-.016-.017-.018m.265-.113l-.013.002l-.185.093l-.01.01l-.003.011l.018.43l.005.012l.008.007l.201.093q.019.005.029-.008l.004-.014l-.034-.614q-.005-.018-.02-.022m-.715.002a.02.02 0 0 0-.027.006l-.006.014l-.034.614q.001.018.017.024l.015-.002l.201-.093l.01-.008l.004-.011l.017-.43l-.003-.012l-.01-.01z"/><path fill="currentColor" d="M12 2q.563 0 1.11.061a1 1 0 0 1-.22 1.988a8 8 0 1 0 7.061 7.061a1 1 0 1 1 1.988-.22q.06.547.061 1.11c0 5.523-4.477 10-10 10S2 17.523 2 12S6.477 2 12 2m-.032 5.877a1 1 0 0 1-.719 1.217A3.002 3.002 0 0 0 12 15a3 3 0 0 0 2.906-2.25a1 1 0 0 1 1.936.5A5.002 5.002 0 0 1 7 12a5 5 0 0 1 3.75-4.842a1 1 0 0 1 1.218.719m6.536-5.75a1 1 0 0 1 .617.923v1.83h1.829a1 1 0 0 1 .707 1.707L18.12 10.12a1 1 0 0 1-.707.293H15l-1.828 1.829a1 1 0 0 1-1.415-1.415L13.586 9V6.586a1 1 0 0 1 .293-.707l3.535-3.536a1 1 0 0 1 1.09-.217m-1.383 3.337L15.586 7v1.414H17l1.536-1.535h-.415a1 1 0 0 1-1-1z"/></g></svg>