<svg
                  role="button"
                  aria-label="visitez notre compte Tik Tok"
                  xmlns="http://www.w3.org/2000/svg"
                  width="2em"
                  height="2em"
                  viewBox="0 0 48 48"
                >
                  <path
                    fill="none"
                    stroke="#6c6c6c"
                    stroke-linejoin="round"
                    stroke-width="3.833"
                    d="M21.358 19.14q-8.833-.426-12.28 6.298c-3.446 6.725-.598 17.729 10.9 17.729c11.5 0 11.832-11.112 11.832-12.276V17.875q3.69 2.336 6.22 2.813q2.533.476 3.22.422v-6.476q-2.342-.282-4.05-1.076c-1.709-.794-5.096-2.997-5.096-6.226q.003.024 0-2.499h-7.118q-.031 23.724 0 26.058c.031 2.334-1.78 5.6-5.45 5.6c-3.672 0-5.483-3.263-5.483-5.367c0-1.288.443-3.155 2.272-4.538c1.085-.82 2.59-1.148 5.033-1.148z"
                  />
                </svg>