<svg xmlns="http://www.w3.org/2000/svg" width="1.5rem" height="1.5rem" viewBox="0 0 24 24"><path fill="currentColor" d="M7 15.5a.5.5 0 0 0 0 1h2a.5.5 0 0 0 0-1z"/><path fill="currentColor" d="M3.5 10.8c0-.666 0-1.193.031-1.622c.033-.44.1-.812.25-1.165a3.5 3.5 0 0 1 1.157-1.455c.31-.225.657-.374 1.079-.504c.411-.127.924-.246 1.572-.395l3.443-.795c.984-.227 1.755-.405 2.377-.492c.632-.088 1.168-.093 1.667.069a3.5 3.5 0 0 1 1.927 1.533c.143.239.243.498.313.783l.023.01a3.5 3.5 0 0 1 1.895 1.894c.143.346.206.72.236 1.164c.03.435.03.973.03 1.657v.018H19a1.5 1.5 0 0 1 0 3h.5v.018c0 .684 0 1.222-.03 1.657c-.03.444-.093.818-.236 1.164a3.5 3.5 0 0 1-1.895 1.895c-.346.143-.72.206-1.163.236c-.436.03-.974.03-1.658.03h-5.74c-.821 0-1.468 0-1.99-.043c-.53-.043-.974-.133-1.377-.338a3.5 3.5 0 0 1-1.53-1.53c-.205-.403-.295-.847-.338-1.378c-.043-.52-.043-1.167-.043-1.989zm7.733-4.956L8.39 6.5h6.129c.68 0 1.217 0 1.651.03l-.024-.043a2.5 2.5 0 0 0-1.376-1.095c-.29-.093-.651-.11-1.221-.03c-.574.08-1.302.248-2.315.482m7.24 4.049c-.027-.393-.079-.645-.163-.85a2.5 2.5 0 0 0-1.39-1.367l-.156-.04c-.504-.13-1.203-.136-2.48-.136H8.8c-.848 0-1.455 0-1.93.04c-.469.038-.766.11-1.005.232a2.5 2.5 0 0 0-1.136 1.185c-.096.224-.156.503-.19.913l-.013.185A33 33 0 0 0 4.5 11.8v2.4c0 .848 0 1.455.04 1.93c.038.469.11.766.232 1.005a2.5 2.5 0 0 0 1.093 1.092c.239.122.536.195 1.005.234c.475.039 1.082.039 1.93.039h5.7c.706 0 1.21 0 1.607-.027c.393-.027.645-.079.85-.163a2.5 2.5 0 0 0 1.353-1.353c.084-.205.136-.457.163-.85c.027-.397.027-.901.027-1.607H17a1.5 1.5 0 0 1 0-3h1.5c0-.706 0-1.21-.027-1.607M17 12.5a.5.5 0 0 0 0 1h2a.5.5 0 0 0 0-1z"/></svg>