<svg
                  role="button"
                  aria-label="visitez notre compte youtube"
                  xmlns="http://www.w3.org/2000/svg"
                  width="2em"
                  height="2em"
                  viewBox="0 0 24 24"
                >
                  <g fill="#6c6c6c" fill-rule="evenodd" clip-rule="evenodd">
                    <path
                      d="M10.386 8.357A.75.75 0 0 0 9.25 9v6a.75.75 0 0 0 1.136.643l5-3a.75.75 0 0 0 0-1.286zM13.542 12l-2.792 1.675v-3.35z"
                    />
                    <path
                      d="M17.03 4.641a64.5 64.5 0 0 0-10.06 0l-2.241.176a2.975 2.975 0 0 0-2.703 2.475a28.6 28.6 0 0 0 0 9.416a2.975 2.975 0 0 0 2.703 2.475l2.24.176c3.349.262 6.713.262 10.062 0l2.24-.176a2.975 2.975 0 0 0 2.703-2.475c.52-3.117.52-6.299 0-9.416a2.975 2.975 0 0 0-2.703-2.475zM7.087 6.137a63 63 0 0 1 9.828 0l2.24.175c.676.053 1.229.56 1.34 1.228a27 27 0 0 1 0 8.92a1.475 1.475 0 0 1-1.34 1.228l-2.24.175a63 63 0 0 1-9.828 0l-2.24-.175a1.475 1.475 0 0 1-1.34-1.228a27 27 0 0 1 0-8.92a1.475 1.475 0 0 1 1.34-1.228z"
                    />
                  </g>
                </svg>