<?xml version="1.0" encoding="utf-8"?>
<!-- Generator: Adobe Illustrator 23.0.0, SVG Export Plug-In . SVG Version: 6.00 Build 0)  -->
<svg version="1.1" id="Calque_1" xmlns="http://www.w3.org/2000/svg" xmlns:xlink="http://www.w3.org/1999/xlink" x="0px" y="0px"
	 viewBox="0 0 48 48" style="enable-background:new 0 0 48 48;" xml:space="preserve">
<style type="text/css">
	<!-- .st0{fill:none;stroke:#000000;stroke-width:0.02;stroke-miterlimit:10;} -->
</style>
<g>
	<g>
		<g>
			<g>
				<g>
					<path d="M37.95,11h-6.5l-0.06-0.11l-2.11-3.78c0,0.02-0.01,0.03-0.01,0.03s-0.01-0.02-0.01-0.04l-0.05-0.28
						c0-0.07,0.01-0.13,0.02-0.18c0.33-1.94,4.62-2.02,5.47-2.02c0.86,0,5.15,0.09,5.48,1.97c0.01,0.11,0.02,0.16,0.02,0.23
						l-0.02,0.12l0,0c0.01,0,0,0.04-0.01,0.07l-0.1,0.24L37.95,11z M31.71,10.58h5.99l2.06-3.77c0-0.01,0-0.03-0.01-0.05V6.64
						c-0.23-1.24-3.4-1.58-5.05-1.58s-4.81,0.34-5.04,1.63l-0.02,0.15l-0.18,0.16l0.26,0.05v0.07L31.71,10.58z"/>
				</g>
				<g>
					<path d="M37.56,13.64h-5.71V11.9h5.71V13.64z M32.27,13.21h4.86v-0.89h-4.86V13.21z"/>
				</g>
				<g>
					<path d="M30.03,12.98h-5.17l-0.04-0.14c-0.17-0.49-0.26-1.01-0.23-1.52c0-1.82,1.78-3.41,2.32-3.86l0.11-0.05
						c0,0,0.04-0.03,0.1-0.05c0.07-0.03,0.14-0.05,0.21-0.05c0.03-0.02,0.17-0.01,0.3,0l0.12,0.03c0.11,0.04,0.17,0.07,0.21,0.13
						c0.58,0.45,2.35,2.03,2.35,3.86l0,0c0.02,0.5-0.06,1.01-0.21,1.51L30.03,12.98z M25.18,12.56h4.53
						c0.11-0.41,0.16-0.82,0.16-1.23l0,0c0-1.67-1.8-3.22-2.16-3.52H27.7l-0.26-0.09l-0.29,0.1c-0.34,0.29-2.15,1.84-2.15,3.51
						C25.01,11.75,25.06,12.15,25.18,12.56z"/>
				</g>
				<g>
					<path d="M43.48,43.37H6.12V25.35c0-2.81,1.87-5.25,4.59-6.01v-3.94c0-0.69,0.52-1.43,1.34-1.54v-1.26h5.01v1.26
						c0.79,0.1,1.34,0.72,1.34,1.54v3.8h0.91v-6.59h4.35v6.59h1.58v-2.67h4.35v2.67h2.25v-4.68h5.69v4.89h-0.43v-4.47h-4.84v4.68
						h-3.11v-2.67h-3.5v2.67h-2.44v-6.59h-3.5v6.59h-1.77v-4.22c0-0.65-0.48-1.13-1.13-1.13h-0.21v-1.24h-4.16v1.24h-0.21
						c-0.66,0-1.13,0.6-1.13,1.13v4.28l-0.16,0.04c-2.61,0.65-4.44,2.97-4.44,5.63v17.59h36.51V25.35c0-1.5-0.47-2.78-1.38-3.78
						l0.32-0.3c0.99,1.1,1.49,2.46,1.49,4.07V43.37z M8.34,40.69c-0.51,0-0.88-0.37-0.88-0.88v-2.58c0-0.51,0.37-0.88,0.88-0.88
						c0.43,0,0.79,0.4,0.79,0.88v2.58C9.13,40.28,8.76,40.69,8.34,40.69z M8.34,36.76c-0.27,0-0.46,0.19-0.46,0.46v2.58
						c0,0.27,0.19,0.46,0.46,0.46c0.17,0,0.36-0.2,0.36-0.46v-2.58C8.7,36.97,8.51,36.76,8.34,36.76z M8.34,35.42
						c-0.51,0-0.88-0.37-0.88-0.88v-8.52c0-0.51,0.37-0.88,0.88-0.88c0.43,0,0.79,0.4,0.79,0.88v8.52
						C9.13,35.02,8.76,35.42,8.34,35.42z M8.34,25.56c-0.27,0-0.46,0.19-0.46,0.46v8.52c0,0.27,0.19,0.46,0.46,0.46
						c0.17,0,0.36-0.2,0.36-0.46v-8.52C8.7,25.77,8.51,25.56,8.34,25.56z M44.11,16.46v-0.1h0.43L44.11,16.46z"/>
				</g>
				<g>
					<path d="M17.75,11.66h-6.37V6.17c0-0.84,0.68-1.53,1.53-1.54h3.31c0.85,0.01,1.53,0.7,1.53,1.54V11.66z M11.81,11.24h5.52V6.17
						c0-0.61-0.5-1.11-1.11-1.12h-3.31c-0.61,0.01-1.11,0.51-1.11,1.12V11.24z"/>
				</g>
				<g>
					<path d="M29.63,15.63h-4.38v-1.75h4.38V15.63z M25.68,15.2h3.53v-0.9h-3.53V15.2z"/>
				</g>
				<g>
					<path d="M23.62,11.66h-4.25L20,8.48c0.15-0.7,0.78-1.2,1.49-1.2c0.01,0,0.02,0,0.02,0c0.69,0,1.32,0.48,1.49,1.16L23.62,11.66z
						 M19.9,11.24h3.19l-0.52-2.7c-0.12-0.48-0.56-0.83-1.06-0.83c0,0-0.01,0-0.02,0c-0.51,0-0.96,0.36-1.06,0.86L19.9,11.24z"/>
				</g>
			</g>
			<g>
				<polygon points="10.93,19.73 10.93,19.31 37.61,19.18 37.61,19.61 				"/>
			</g>
			<g>
				<g>
					<path d="M42.02,21.52l-0.38-0.19l2.49-4.97l3.35-6.89c0.24-0.93,0-1.58-0.79-2.12C46.5,7.24,44.23,6.23,43.58,6l-0.21,0.49
						l2.86,1.44l-0.64,1.65l-3.07-1.53L42.3,8.51l3.12,1.65l-0.94,1.2l-3.01-1.32l-0.22,0.56l3.07,1.53l-0.56,1.26l-3.17-1.44
						l-0.37,0.67l3.07,1.54l-0.7,1.13l-3.02-1.32l-0.24,0.74l2.88,1.44l-0.54,1.36l-3.08-1.54l-0.29,0.58l3.53,1.93h-0.77
						c-0.15,0.23-0.53,1.11-0.74,1.58l-0.4-0.17c0.38-0.85,0.6-1.31,0.73-1.56l-2.92-1.61l0.67-1.33l3.04,1.52l0.22-0.55l-2.86-1.44
						l0.52-1.55l3.11,1.36l0.26-0.4l-3.05-1.52l0.78-1.44l3.15,1.44l0.2-0.47l-3.05-1.53l0.54-1.35l3.12,1.36l0.4-0.52l-3.01-1.61
						l0.55-1.26l0.2,0.11l2.85,1.43l0.32-0.84l-2.88-1.44l0.53-1.18h0.14c0.3,0,3.39,1.38,3.5,1.5c0.93,0.61,1.23,1.46,0.93,2.6
						L42.02,21.52z"/>
				</g>
			</g>
			<g>
				<path d="M41.65,21.54c-0.45-0.71-0.99-1.17-1.61-1.34c-1.32-0.67-2.69-0.61-2.7-0.57l-0.02-0.43c0.04-0.05,1.52-0.09,2.88,0.6
					c0.68,0.19,1.31,0.7,1.81,1.51L41.65,21.54z"/>
			</g>
		</g>
		<g>
			<g>
				<path d="M7.78,21.28L4.4,12.65c-0.23,0.23-0.56,0.51-0.9,0.68c-1.19,0.49-2.87-0.21-3.35-1.41c-0.46-1.37,0.17-2.84,1.43-3.34
					C2.97,8.14,4.4,8.76,4.91,10l0.58,1.77l0.67-0.27L5.38,9.74c-0.22-0.55-0.2-1.17,0.04-1.74C5.7,7.37,6.2,6.87,6.81,6.62
					c0.79-0.27,1.54-0.23,2.18,0.07c0.55,0.28,0.95,0.74,1.15,1.37c0.22,0.53,0.2,1.15-0.04,1.72c-0.28,0.63-0.78,1.13-1.38,1.37
					C8.36,11.34,8,11.39,7.66,11.4l1.05,2.3L7.4,14.21c-0.05,0.02-0.09,0.13-0.09,0.45c0.02,0.02,0.06,0.09,0.21,0.1
					c0.02,0,0.05-0.01,0.07-0.02l0.1-0.06l1.05-0.27l2.25,5.18l-0.4,0.17L8.5,14.92l-0.64,0.17c-0.15,0.12-0.39,0.13-0.6,0.05
					c-0.23-0.1-0.37-0.29-0.37-0.48c0-0.28,0-0.86,0.43-0.86l0.81-0.34l-1.15-2.49h0.34c0.43,0,0.82,0,1.21-0.2
					c0.52-0.21,0.94-0.63,1.16-1.15c0.2-0.47,0.22-0.97,0.04-1.4c-0.17-0.52-0.5-0.9-0.94-1.13C8.26,6.84,7.62,6.82,6.97,7.02
					c-0.5,0.2-0.91,0.62-1.14,1.14c-0.2,0.47-0.22,0.97-0.04,1.4l0.96,2.17l-1.52,0.61l-0.06-0.22l-0.65-1.97
					C4.08,9.13,2.86,8.66,1.72,8.98C0.7,9.4,0.18,10.62,0.55,11.77c0.39,0.96,1.83,1.55,2.77,1.17c0.39-0.2,0.81-0.62,1.02-0.82
					l0.23-0.24l0.12,0.32l3.49,8.93L7.78,21.28z"/>
			</g>
			<g>
				<path d="M2.54,12.43c-0.2,0-0.4-0.04-0.6-0.13c-0.36-0.16-0.64-0.45-0.79-0.81c-0.15-0.37-0.14-0.78,0.02-1.14
					s0.45-0.64,0.81-0.79l0,0c0.36-0.15,0.76-0.16,1.14,0.01c0.36,0.15,0.64,0.45,0.79,0.81c0.15,0.37,0.15,0.78-0.01,1.14
					c-0.16,0.37-0.45,0.65-0.83,0.8C2.9,12.4,2.72,12.43,2.54,12.43z M2.55,9.9c-0.14,0-0.27,0.02-0.39,0.07l0,0
					c-0.27,0.11-0.47,0.3-0.58,0.55c-0.11,0.26-0.12,0.54-0.01,0.8c0.11,0.27,0.3,0.47,0.55,0.58c0.28,0.11,0.56,0.12,0.8,0.01
					c0.27-0.11,0.48-0.3,0.58-0.56c0.12-0.26,0.12-0.54,0.01-0.8c-0.11-0.27-0.3-0.47-0.55-0.58C2.82,9.92,2.68,9.9,2.55,9.9z"/>
			</g>
			<g>
				<path d="M7.78,10.34c-0.19,0-0.38-0.03-0.57-0.12c-0.36-0.15-0.64-0.45-0.79-0.81c-0.3-0.78,0.07-1.64,0.83-1.94
					C7.61,7.33,8,7.33,8.38,7.5c0.36,0.16,0.64,0.45,0.79,0.81c0.15,0.37,0.14,0.78-0.02,1.14c-0.16,0.36-0.45,0.64-0.81,0.79
					C8.16,10.31,7.97,10.34,7.78,10.34z M7.8,7.81c-0.14,0-0.27,0.02-0.38,0.07C6.87,8.1,6.61,8.72,6.82,9.26
					c0.11,0.26,0.3,0.46,0.55,0.57c0.3,0.13,0.55,0.12,0.8,0c0.27-0.11,0.47-0.3,0.58-0.55c0.11-0.26,0.12-0.54,0.01-0.8
					C8.66,8.22,8.47,8.01,8.21,7.9C8.07,7.84,7.93,7.81,7.8,7.81z"/>
			</g>
			<g>
				<path class="st0" d="M7.33,7.68"/>
			</g>
		</g>
	</g>
</g>
</svg>
