<?xml version="1.0" standalone="no"?>
<!DOCTYPE svg PUBLIC "-//W3C//DTD SVG 20010904//EN"
 "http://www.w3.org/TR/2001/REC-SVG-20010904/DTD/svg10.dtd">
<svg version="1.0" xmlns="http://www.w3.org/2000/svg"
 width="512.000000pt" height="512.000000pt" viewBox="0 0 512.000000 512.000000"
 preserveAspectRatio="xMidYMid meet">

<g transform="translate(0.000000,512.000000) scale(0.100000,-0.100000)"
fill="#000000" stroke="none">
<path d="M2202 5102 c-147 -53 -236 -200 -236 -387 1 -157 65 -285 233 -466
l80 -86 -82 -12 c-367 -55 -748 -223 -1067 -469 -198 -154 -424 -414 -558
-645 -167 -285 -273 -618 -304 -948 l-12 -127 -47 -6 c-67 -9 -134 -58 -173
-126 -27 -47 -31 -65 -31 -125 1 -80 22 -130 77 -181 50 -48 95 -66 176 -73
l74 -6 -121 -109 c-67 -59 -128 -121 -136 -137 -36 -69 -28 -93 191 -620 131
-315 215 -504 232 -523 32 -34 80 -56 124 -56 65 0 108 34 273 217 88 98 186
204 217 235 l57 58 725 0 c492 0 742 4 778 11 112 23 144 50 620 500 l452 428
596 3 c661 3 621 -1 698 72 55 51 76 101 77 181 0 60 -4 78 -31 125 -39 69
-106 117 -175 126 l-49 7 0 43 c0 63 -28 264 -51 368 -174 789 -753 1432
-1515 1686 -141 46 -369 100 -428 100 -26 0 -22 6 55 90 141 154 200 251 226
374 34 165 -28 349 -149 436 -116 84 -277 76 -399 -21 l-39 -31 -39 31 c-93
74 -218 99 -319 63z m163 -171 c38 -17 105 -76 105 -92 0 -4 12 -21 26 -38 20
-25 34 -31 64 -31 30 0 44 6 64 31 14 17 26 34 26 38 0 17 68 76 109 94 118
52 224 -51 224 -218 0 -125 -54 -215 -252 -417 l-114 -118 -57 0 -57 0 -110
113 c-140 145 -189 206 -227 287 -40 86 -42 179 -4 261 45 98 117 130 203 90z
m406 -932 c594 -60 1126 -358 1490 -834 163 -213 297 -492 364 -759 31 -124
65 -338 65 -412 l0 -34 -2130 0 -2130 0 0 34 c0 63 30 267 55 370 226 957
1076 1637 2056 1645 70 1 173 -4 230 -10z m2140 -2222 c46 -35 50 -88 10 -128
l-29 -29 -2332 0 -2332 0 -29 29 c-40 40 -36 93 10 128 23 18 4679 18 4702 0z
m-2301 -343 c84 -50 76 -165 -15 -221 -28 -17 -67 -18 -503 -23 l-474 -5 -19
-24 c-26 -32 -24 -74 5 -108 l24 -28 484 0 483 0 56 26 c72 34 134 96 166 166
21 46 24 65 21 126 -3 40 -8 80 -12 90 -8 16 12 17 330 17 l339 0 -40 -39
c-226 -222 -729 -688 -760 -704 -40 -22 -45 -22 -805 -27 -877 -6 -786 5 -900
-109 -36 -36 -133 -141 -215 -233 -141 -159 -150 -167 -161 -145 -6 12 -96
226 -199 475 l-188 452 24 26 c45 49 214 186 302 245 l88 59 971 0 c880 0 972
-2 998 -16z"/>
<path d="M1957 3675 c-424 -150 -792 -476 -994 -880 -68 -134 -123 -285 -123
-334 0 -48 35 -81 85 -81 43 0 66 29 99 125 115 335 343 633 631 826 100 68
280 158 367 185 71 22 102 52 102 99 0 75 -62 97 -167 60z"/>
</g>
</svg>
