<?xml version="1.0" encoding="utf-8"?><!-- Uploaded to: SVG Repo, www.svgrepo.com, Generator: SVG Repo Mixer Tools -->
<svg version="1.1" id="designs" xmlns="http://www.w3.org/2000/svg" xmlns:xlink="http://www.w3.org/1999/xlink" 
	 width="800px" height="800px" viewBox="0 0 32 32" xml:space="preserve">
<style type="text/css">
	.sketchy_een{fill:#111918;}
</style>
<path class="sketchy_een" d="M28.701,11.297c-0.026-0.468-0.37-0.86-0.86-0.86c-0.049,0-0.096,0.021-0.144,0.03
	c-0.005,0-0.009-0.003-0.014-0.003c-0.098-0.002-0.196-0.002-0.294-0.002c-0.369,0-0.739,0.01-1.108,0.016
	c-0.498,0.008-0.995,0.017-1.492,0.046c0.005-0.248,0.008-0.497,0.014-0.745c0.02-0.769,0.012-1.537,0.01-2.306
	c-0.004-0.832,0-1.666,0.089-2.494c0.02-0.184,0.04-0.368,0.059-0.553c0.024-0.216-0.107-0.465-0.254-0.612
	c-0.026-0.026-0.061-0.038-0.09-0.06c-0.113-0.301-0.376-0.547-0.72-0.524c-0.329,0.024-0.666,0.002-0.996-0.012
	c-0.275-0.012-0.551-0.014-0.824-0.02c-0.303-0.006-0.604-0.002-0.907-0.006c-0.234-0.002-0.469-0.02-0.703-0.032
	c-0.648-0.036-1.296-0.042-1.943-0.055c-0.727-0.016-1.452-0.091-2.179-0.103C16.258,3.001,16.173,3,16.087,3
	c-0.586,0-1.17,0.032-1.756,0.044c-0.664,0.012-1.327,0.03-1.991,0.032c-0.662,0-1.323,0-1.985-0.018
	C9.783,3.044,9.209,3.089,8.638,3.135c-0.13,0.01-0.245,0.044-0.353,0.094c-0.39,0.044-0.7,0.371-0.704,0.77
	c-0.002,0.414,0.002,0.826-0.01,1.24C7.564,5.457,7.544,5.675,7.538,5.892C7.522,6.411,7.522,6.927,7.542,7.447
	c0.041,1.121,0.083,2.243,0.121,3.364c-0.285-0.018-0.57-0.021-0.855-0.016c-0.154,0.004-0.309,0.008-0.462,0.006
	c-0.291,0-0.582-0.036-0.874-0.061c-0.408-0.034-0.814-0.052-1.222-0.058c-0.005,0-0.009,0-0.014,0c-0.452,0-0.826,0.391-0.826,0.84
	c0,0.084,0.025,0.16,0.049,0.236c-0.012,0.056-0.034,0.109-0.035,0.168c-0.048,1.821,0.002,3.643-0.04,5.464
	c-0.008,0.409-0.038,0.814-0.046,1.223c-0.01,0.436-0.012,0.874-0.016,1.311c-0.008,0.884,0.01,1.768,0.022,2.651
	c0.012,0.95,0.022,1.9,0.024,2.85c0,0.448-0.002,0.894-0.032,1.342c-0.024,0.374-0.053,0.75-0.077,1.125
	c-0.019,0.31,0.164,0.575,0.409,0.734c0.146,0.181,0.359,0.306,0.605,0.303c0.681-0.008,1.363-0.049,2.044-0.047
	c0.353,0,0.707,0.03,1.06,0.032c0.345,0.002,0.687-0.024,1.03-0.046c0.703-0.042,1.408-0.048,2.114-0.048
	c0.721,0,1.438-0.002,2.157,0.036c0.365,0.02,0.731,0.042,1.095,0.056c0.343,0.014,0.687,0.01,1.032,0.012
	c0.745,0.008,1.492,0.008,2.238,0.006c0.737-0.002,1.474,0.016,2.211,0.02c0.345,0.002,0.687,0.002,1.032,0
	c0.394,0,0.788-0.002,1.183,0c1.072,0.01,2.143,0.032,3.215,0.034c0.45,0.002,0.897,0.026,1.347,0.012
	c0.464-0.016,0.923-0.065,1.389-0.067c0.164-0.001,0.309-0.065,0.436-0.155c0.112-0.014,0.222-0.051,0.32-0.109
	c0.129-0.075,0.23-0.176,0.305-0.305c0.077-0.133,0.117-0.275,0.117-0.43c0.087-0.725,0.032-1.468,0.032-2.199
	c0-0.818-0.004-1.634,0.026-2.452c0.059-1.632,0.057-3.262,0.065-4.897c0.002-0.561,0-1.123,0.008-1.686
	c0.008-0.578,0.04-1.159,0.052-1.737C28.808,13.739,28.77,12.515,28.701,11.297z M24.808,12.16c0.344-0.032,0.689-0.055,1.035-0.069
	c-0.35,0.27-0.697,0.544-1.042,0.821c0.004-0.245,0.004-0.49,0.007-0.735C24.808,12.172,24.808,12.166,24.808,12.16z M24.407,15.155
	c0.502-0.409,1.004-0.819,1.514-1.218c0.38-0.286,0.775-0.545,1.164-0.815c0.017,0.375,0.034,0.749,0.04,1.125
	c0.014,0.828-0.054,1.652-0.073,2.48c-0.022,0.856-0.012,1.714-0.01,2.569c0.002,0.802-0.008,1.604-0.018,2.405
	c-0.014,1.058-0.046,2.114-0.052,3.169c-0.004,0.481-0.006,0.965-0.01,1.446c0,0.015,0,0.03,0,0.045
	c-0.948-1.244-1.87-2.508-2.797-3.768c-0.513-0.697-1.03-1.391-1.513-2.11c-0.527-0.779-1.046-1.559-1.533-2.363
	c-0.036-0.06-0.081-0.111-0.128-0.159c0.03-0.024,0.059-0.051,0.089-0.075c0.628-0.499,1.236-1.024,1.852-1.537
	C23.418,15.943,23.915,15.553,24.407,15.155z M10.455,4.635c0.517,0.028,1.036,0.028,1.555,0.026c0.226,0,0.45,0,0.675,0
	c0.709,0.006,1.422,0.014,2.131-0.008c0.719-0.022,1.44-0.071,2.161-0.052c0.317,0.01,0.634,0.038,0.951,0.046
	c0.366,0.01,0.731,0.02,1.097,0.024c0.545,0.008,1.086,0.047,1.628,0.079c0.511,0.028,1.022,0.038,1.535,0.04
	c0.252,0.002,0.501,0.022,0.753,0.02c0.089-0.001,0.178-0.004,0.267-0.006c-0.047,0.729-0.055,1.459-0.077,2.191
	c-0.024,0.79-0.002,1.583-0.014,2.373c-0.006,0.402-0.016,0.802-0.014,1.204c0,0.39,0.016,0.778,0.034,1.169
	c0.03,0.695,0.024,1.389,0.024,2.086c0,0.103,0.002,0.204,0.006,0.307c0.001,0.022,0.011,0.04,0.013,0.062
	c-0.541,0.424-1.08,0.851-1.612,1.288c-0.63,0.519-1.248,1.054-1.892,1.555c0.01-0.007,0.02-0.015,0.029-0.022
	c-0.701,0.548-1.373,1.133-2.07,1.686c-0.341,0.269-0.679,0.545-1.02,0.814c-0.19,0.151-0.375,0.308-0.56,0.464
	c-0.454-0.322-0.906-0.645-1.35-0.984c0.029,0.022,0.058,0.045,0.086,0.068c-0.033-0.026-0.066-0.052-0.1-0.078
	c-0.022-0.017-0.044-0.034-0.067-0.051c0.019,0.014,0.037,0.028,0.056,0.042c-1.121-0.873-2.234-1.759-3.35-2.637
	c-0.671-0.527-1.339-1.058-2.006-1.591c0-0.154,0.007-0.307,0.014-0.457c0.012-0.281,0.022-0.561,0.036-0.842
	c0.034-0.681,0.022-1.363,0.008-2.044C9.372,10.704,9.364,9.999,9.323,9.3c-0.036-0.58-0.04-1.165-0.073-1.747
	C9.24,7.354,9.214,7.156,9.198,6.956C9.172,6.637,9.174,6.314,9.16,5.993C9.153,5.766,9.135,5.538,9.129,5.31
	C9.121,5.108,9.125,4.905,9.13,4.703C9.571,4.655,10.013,4.61,10.455,4.635z M10.989,18.448c-0.123,0.158-0.246,0.318-0.369,0.477
	c0.014-0.018,0.027-0.035,0.041-0.053c-0.439,0.566-0.908,1.108-1.366,1.658c-0.465,0.562-0.939,1.119-1.406,1.682
	c-0.454,0.545-0.905,1.094-1.343,1.654c-0.473,0.605-0.957,1.202-1.426,1.81c0.012-0.016,0.024-0.031,0.036-0.047
	c-0.032,0.042-0.064,0.083-0.095,0.124c0.011-0.793,0.01-1.588,0.012-2.383c0-0.861-0.03-1.72-0.032-2.579
	c-0.004-0.878-0.014-1.755,0.01-2.633c0.026-0.975,0.03-1.947,0.038-2.92c0.005-0.61,0.028-1.219,0.045-1.828
	c0.294,0.235,0.587,0.472,0.877,0.712c0.426,0.352,0.871,0.681,1.309,1.017c0.627,0.496,1.233,1.015,1.858,1.511
	c0.646,0.513,1.289,1.028,1.935,1.543c0.015,0.012,0.03,0.024,0.046,0.036C11.099,18.302,11.044,18.375,10.989,18.448z
	 M7.119,12.449c0.19,0,0.382-0.008,0.574-0.002c0.001,0.331,0.001,0.663-0.004,0.994c-0.41-0.326-0.815-0.658-1.212-1
	C6.691,12.447,6.906,12.449,7.119,12.449z M23.343,27.5c-0.737,0-1.474-0.014-2.213-0.012c-0.735,0.004-1.472,0-2.207-0.006
	c-0.757-0.008-1.511-0.042-2.266-0.042c-0.733,0.002-1.464,0.008-2.195,0c-0.719-0.008-1.438-0.032-2.157-0.073
	c-0.513-0.031-1.029-0.038-1.544-0.038c-0.185,0-0.371,0.001-0.556,0.002c-0.172,0.002-0.345,0-0.517,0
	c-0.329-0.002-0.658-0.004-0.987,0.01c-0.495,0.022-0.988,0.054-1.484,0.038c-0.238-0.006-0.477-0.02-0.715-0.028
	c-0.227-0.007-0.454,0.004-0.68,0.01c0.084-0.107,0.169-0.213,0.252-0.321c0.369-0.48,0.732-0.964,1.098-1.447
	c-0.008,0.011-0.017,0.022-0.025,0.033c0.038-0.051,0.077-0.102,0.116-0.153c-0.008,0.011-0.017,0.022-0.026,0.033
	c-0.021,0.027-0.041,0.055-0.062,0.082c-0.02,0.026-0.04,0.051-0.06,0.076c0.051-0.066,0.101-0.132,0.152-0.198
	c-0.009,0.013-0.019,0.025-0.029,0.038c0.015-0.019,0.03-0.038,0.044-0.057c0.021-0.027,0.042-0.055,0.063-0.082
	c-0.006,0.008-0.012,0.016-0.018,0.024c0.773-0.99,1.578-1.951,2.381-2.916c0.9-1.081,1.856-2.115,2.723-3.222
	c0.197,0.158,0.396,0.313,0.591,0.472c0.626,0.511,1.258,1.012,1.912,1.488c0.081,0.059,0.163,0.119,0.245,0.178
	c0.094,0.224,0.271,0.411,0.517,0.473c0.248,0.061,0.46,0.018,0.679-0.099c0.099-0.053,0.186-0.139,0.273-0.208
	c0.105-0.083,0.21-0.166,0.311-0.254c0.269-0.228,0.527-0.468,0.8-0.691c0.271-0.222,0.537-0.452,0.812-0.669
	c0.285-0.228,0.574-0.448,0.858-0.677c0.089-0.073,0.177-0.148,0.265-0.222c0.267,0.425,0.544,0.842,0.836,1.25
	c0.24,0.337,0.485,0.669,0.725,1.006c0.501,0.705,1.008,1.406,1.515,2.108c0.977,1.349,1.987,2.672,2.979,4.007
	c0.017,0.023,0.034,0.046,0.051,0.069c-0.124,0.002-0.248,0.006-0.371,0.008C24.736,27.504,24.041,27.502,23.343,27.5z
	 M14.684,18.976c0.008,0.006,0.016,0.012,0.024,0.019c-0.004-0.003-0.009-0.007-0.013-0.01
	C14.691,18.982,14.688,18.979,14.684,18.976z M7.331,25.39c-0.022,0.029-0.044,0.057-0.066,0.085
	c0.007-0.009,0.014-0.018,0.021-0.027C7.301,25.429,7.316,25.409,7.331,25.39z M7.226,25.525c0.004-0.006,0.009-0.011,0.013-0.017
	c0.001-0.001,0.001-0.002,0.002-0.003C7.236,25.512,7.231,25.518,7.226,25.525z M6.024,27.109c0.017-0.023,0.034-0.046,0.052-0.068
	c0.009-0.012,0.018-0.023,0.027-0.035C6.076,27.04,6.05,27.075,6.024,27.109z M12.299,9.541c-0.149-0.148-0.234-0.354-0.234-0.566
	c0-0.21,0.085-0.416,0.234-0.565c0.126-0.126,0.331-0.238,0.518-0.238c0.016,0,0.032,0.001,0.048,0.003
	c0.368,0.04,0.739,0.077,1.109,0.109c0.196,0.018,0.39,0.038,0.586,0.01c-0.067,0.01-0.135,0.018-0.204,0.028
	c0.422-0.057,0.848-0.046,1.272-0.042c0.359,0.004,0.717,0,1.076-0.004c0.497-0.004,0.994,0.008,1.49,0.01
	c0.364,0,0.727-0.012,1.089-0.026c0.434-0.018,0.796,0.376,0.796,0.796c0,0.426-0.362,0.808-0.796,0.796
	c-0.511-0.012-1.022-0.057-1.533-0.057c-0.572,0-1.147,0-1.719-0.01c-0.452-0.008-0.909,0.02-1.361,0.042
	c-0.6,0.03-1.206,0.002-1.805-0.049C12.646,9.756,12.46,9.701,12.299,9.541z M11.954,12.005c0-0.438,0.37-0.818,0.814-0.812
	c0.083,0,0.166,0.002,0.25,0.004c0.357,0.008,0.713,0.024,1.072,0.03c0.36,0.004,0.723-0.026,1.082-0.044
	c0.335-0.018,0.668-0.018,1-0.026c0.283-0.004,0.567-0.026,0.852-0.028c0.216-0.002,0.434-0.008,0.65-0.01
	c0.119,0,0.238,0.006,0.357,0.01c0.127,0.006,0.255,0.01,0.384,0.008c0.093,0,0.188,0,0.281,0c0.198,0,0.396,0,0.595-0.017
	c0.067-0.017,0.135-0.025,0.202-0.025c0.354,0,0.684,0.231,0.782,0.589c0.115,0.412-0.135,0.885-0.561,0.989
	c-0.109,0.026-0.222,0.036-0.333,0.043c-0.353,0.026-0.703,0.03-1.058,0.016c-0.236-0.008-0.473-0.004-0.709-0.002
	c-0.246,0.004-0.493,0.006-0.737-0.004c-0.285-0.012-0.568,0.002-0.854,0.01c-0.347,0.008-0.691,0.004-1.038,0.012
	c-0.739,0.02-1.478,0.062-2.217,0.071C12.324,12.825,11.954,12.445,11.954,12.005z"/>
</svg>