<?xml version="1.0" encoding="utf-8"?>
<!-- Generator: Adobe Illustrator 23.0.0, SVG Export Plug-In . SVG Version: 6.00 Build 0)  -->
<svg version="1.1" id="Calque_1" xmlns="http://www.w3.org/2000/svg" xmlns:xlink="http://www.w3.org/1999/xlink" x="0px" y="0px"
	 viewBox="0 0 48 48" style="enable-background:new 0 0 48 48;" xml:space="preserve">
<g>
	<g>
		<g>
			<path d="M36.16,47.87h-0.13c0.06-3.88-0.53-7.7-1.76-11.36c-1.62-4.84-3.9-7.97-3.92-8C30,28,29.67,27.55,29.39,27.15
				c-0.85-1.16-1.47-1.99-1.84-3.36c-0.53-2-0.28-4.21,0.73-6.57l0.11,0.05c-1.01,2.33-1.25,4.51-0.72,6.48
				c0.36,1.35,0.97,2.18,1.81,3.32c0.29,0.4,0.62,0.85,0.97,1.36c0.03,0.03,2.31,3.17,3.95,8.04
				C35.63,40.15,36.23,43.99,36.16,47.87z"/>
		</g>
		<g>
			<path d="M24.06,25.14c-0.15-1.99,0.42-3.65,0.87-4.99c0.16-0.5,0.31-0.93,0.4-1.32c0.49-2.15,0.95-4.17,2.43-4.98
				c0.08-0.05,0.18-0.09,0.3-0.15c0.29-0.14,0.66-0.31,0.98-0.68c0.22-0.27,0.37-0.62,0.44-1.07l0.01-0.05h0.13l-0.01,0.13
				c-0.08,0.44-0.23,0.8-0.46,1.08c-0.35,0.4-0.73,0.58-1.03,0.72c-0.1,0.05-0.2,0.09-0.28,0.15c-1.43,0.78-1.89,2.78-2.37,4.89
				c-0.09,0.39-0.23,0.83-0.41,1.33c-0.44,1.33-1,2.98-0.86,4.94L24.06,25.14z"/>
		</g>
		<g>
			<path d="M11.84,48c-0.06-3.89,0.53-7.73,1.76-11.4c1.64-4.87,3.92-8,3.95-8.04c0.35-0.51,0.68-0.96,0.97-1.36
				c0.84-1.15,1.46-1.98,1.81-3.33c0.53-1.96,0.28-4.14-0.72-6.47l0.11-0.05c1.01,2.36,1.26,4.57,0.73,6.56
				c-0.37,1.37-0.98,2.21-1.83,3.38c-0.29,0.39-0.62,0.84-0.98,1.36c-0.02,0.03-2.29,3.15-3.92,8c-1.23,3.66-1.82,7.48-1.76,11.37
				H11.84z"/>
		</g>
		<g>
			<path d="M20.42,23.47c-0.8-1.28-1.9-3.39-2.54-6.17l-0.02-0.08c-0.08-0.33-0.3-1.2-0.3-2.27c-0.06-1-0.07-1.82,0.4-2.5
				c0.05-0.05,0.09-0.1,0.13-0.15c0.09-0.1,0.18-0.21,0.28-0.26c0.3-0.3,0.7-0.45,1.17-0.63c0.13-0.04,0.26-0.09,0.4-0.15
				c0.54-0.2,0.96-0.27,1.3-0.34c0.41-0.07,0.68-0.12,0.88-0.36c0.15-0.2,0.26-0.96-0.08-2.12l0.13-0.04
				c0.32,1.09,0.27,1.95,0.06,2.24c-0.23,0.28-0.54,0.33-0.96,0.41c-0.33,0.06-0.73,0.13-1.27,0.34c-0.14,0.05-0.27,0.1-0.4,0.15
				c-0.47,0.17-0.84,0.31-1.14,0.6c-0.09,0.05-0.18,0.15-0.25,0.25c-0.04,0.05-0.09,0.1-0.14,0.15c-0.44,0.63-0.42,1.43-0.37,2.41
				c0,1.06,0.22,1.93,0.3,2.25L18,17.27c0.64,2.76,1.72,4.86,2.53,6.14L20.42,23.47z"/>
		</g>
		<g>
			<path d="M24.19,25.14l-0.13-0.01c0.13-1.88-0.49-3.43-0.99-4.67c-0.23-0.56-0.42-1.04-0.53-1.48c-0.47-2.11-0.92-4.1-2.36-4.88
				c-0.09-0.05-0.19-0.1-0.3-0.15c-0.3-0.15-0.68-0.32-1.02-0.7c-0.23-0.3-0.38-0.65-0.46-1.09H18.4V12.1l0,0v-0.08h0.12l0.01,0.05
				c0.07,0.44,0.22,0.79,0.44,1.08c0.32,0.36,0.68,0.53,0.97,0.66c0.11,0.06,0.22,0.11,0.31,0.16c1.49,0.81,1.94,2.83,2.43,4.97
				c0.1,0.42,0.29,0.91,0.52,1.46C23.7,21.66,24.33,23.23,24.19,25.14z"/>
		</g>
		<g>
			<path d="M23.73,11.21c-0.68,0-1.3-0.24-1.68-0.49l0.08-0.11c0.47,0.32,1.35,0.61,2.28,0.38c0.76-0.15,1.16-0.46,1.33-0.63
				l0.09,0.09c-0.31,0.32-0.8,0.55-1.39,0.67C24.19,11.18,23.96,11.21,23.73,11.21z"/>
		</g>
		<g>
			<path d="M27.59,23.35l-0.11-0.06c1.82-3.32,2.39-5.54,2.52-6.14c0.09-0.42,0.17-1.06,0.32-2.32c0.03-0.2,0.08-0.73,0-1.37
				c0-0.01-0.08-0.68-0.37-1.05c-0.08-0.11-0.19-0.21-0.19-0.22c0,0-0.09-0.08-0.18-0.16c-0.64-0.49-1.53-0.77-1.54-0.77
				c-0.75-0.23-1.22-0.34-1.53-0.42c-0.46-0.11-0.56-0.13-0.71-0.32c-0.47-0.56-0.41-1.47-0.08-2.02c0.13-0.21,0.27-0.33,0.4-0.43
				C26.15,8.04,26.18,8.02,26.2,8c1.18-0.98,0.99-3.29,0.94-3.74c-0.1-0.71-0.25-1.75-1.11-2.5c-0.26-0.24-0.96-0.77-1.9-0.77
				c-0.05,0-0.1,0.01-0.15,0.01c-0.86,0.05-1.65,0.54-2.23,1.36c-0.72,1.07-0.82,1.92-0.79,2.44l0.01,0.09
				c0.11,1.86,0.65,3.17,1.61,3.9c0.25,0.2,1.48,0.59,2.19,0.3c0.07-0.03,0.27-0.12,0.6-0.56c0.29-0.39,0.83-1.1,0.9-2.15
				c0.04-0.53,0.11-1.65-0.67-2.24c-0.48-0.35-1.3-0.52-1.89-0.11c-0.76,0.53-0.61,1.7-0.35,2.32c0.13,0.3,0.49,1.01,1.09,1.01
				c0.48,0,0.82-0.46,0.96-0.72c0.18-0.37,0.2-0.85,0.04-1.24c-0.09-0.26-0.25-0.44-0.44-0.53c-0.2-0.09-0.49-0.06-0.7,0.09
				C23.97,5.19,23.93,5.68,24.11,6c0.09,0.18,0.31,0.37,0.46,0.37c0.02,0,0.04,0,0.06-0.01c0.06-0.02,0.11-0.08,0.14-0.15
				c0.02-0.04,0.02-0.07,0.01-0.09c-0.03-0.04-0.14-0.09-0.24-0.04l-0.04-0.13c0.2-0.05,0.34,0,0.39,0.11c0.03,0.06,0.03,0.13,0,0.2
				c-0.04,0.1-0.12,0.19-0.21,0.23c-0.04,0.01-0.07,0.02-0.11,0.02c-0.22,0-0.47-0.24-0.58-0.44c-0.2-0.36-0.16-0.94,0.23-1.22
				c0.24-0.16,0.58-0.22,0.82-0.1c0.22,0.09,0.41,0.3,0.51,0.6c0.16,0.42,0.15,0.94-0.05,1.34c-0.14,0.3-0.53,0.8-1.07,0.8
				c-0.67,0-1.07-0.76-1.2-1.09c-0.29-0.65-0.44-1.9,0.39-2.47c0.63-0.45,1.51-0.29,2.05,0.11c0.84,0.63,0.76,1.79,0.72,2.36
				c-0.07,1.08-0.63,1.82-0.92,2.21c-0.35,0.47-0.56,0.57-0.65,0.61c-0.77,0.3-2.05-0.11-2.32-0.32c-0.99-0.75-1.55-2.1-1.66-4
				l-0.01-0.08c-0.04-0.55,0.08-1.43,0.81-2.52c0.61-0.87,1.43-1.37,2.32-1.42c0.06-0.01,0.11-0.01,0.16-0.01
				c0.99,0,1.72,0.55,1.99,0.8c0.9,0.79,1.05,1.86,1.15,2.56v0.03c0.06,0.46,0.26,2.83-0.98,3.86c-0.03,0.03-0.06,0.04-0.09,0.07
				c-0.12,0.09-0.25,0.2-0.37,0.39c-0.3,0.51-0.36,1.36,0.06,1.87c0.12,0.15,0.2,0.17,0.64,0.28c0.31,0.08,0.77,0.19,1.53,0.41
				c0.04,0.01,0.92,0.28,1.58,0.79c0.11,0.08,0.2,0.18,0.2,0.18c0.01,0,0.11,0.1,0.2,0.23c0.31,0.39,0.4,1.08,0.4,1.11
				c0.09,0.65,0.03,1.19,0,1.39c-0.15,1.27-0.23,1.91-0.32,2.34C29.99,17.78,29.42,20,27.59,23.35z"/>
		</g>
		<g>
			<path d="M26.93,9.27l-0.1-0.08c0.3-0.41,0.06-0.9,0.06-0.9c-0.15-0.35-0.2-0.61-0.2-0.87V7.35h0.13v0.07
				c0,0.24,0.06,0.49,0.19,0.82C27.02,8.26,27.28,8.8,26.93,9.27z"/>
		</g>
		<g>
			<path d="M27.19,8.23l-0.1-0.08c0.37-0.54,0.13-1.1,0.13-1.1L27.2,6.98c-0.06-0.23-0.12-0.48-0.12-0.73h0.13
				c0,0.23,0.06,0.47,0.11,0.7l0.02,0.07C27.34,7.03,27.6,7.62,27.19,8.23z"/>
		</g>
		<g>
			<path d="M21.52,9.27c-0.34-0.47-0.15-1.01-0.15-1.03c0.07-0.18,0.13-0.37,0.13-0.56h0.13c0,0.2-0.06,0.41-0.13,0.6
				c-0.01,0.01-0.18,0.49,0.12,0.91L21.52,9.27z"/>
		</g>
		<g>
			<path d="M20.86,8.23C20.46,7.62,20.78,7.02,20.8,7c0.14-0.41,0.19-0.79,0.19-1.01c0-0.32-0.05-0.66-0.13-0.89l0.13-0.04
				c0.04,0.11,0.13,0.44,0.13,0.92c0,0.3-0.08,0.7-0.2,1.06c-0.02,0.03-0.3,0.57,0.06,1.11L20.86,8.23z"/>
		</g>
		<g>
			<path d="M23.1,8.05c-1.3-1.58-1.16-4.22-1.16-4.26l0.13,0.01c0,0.03-0.14,2.62,1.13,4.15L23.1,8.05z"/>
		</g>
		<g>
			<path d="M26.46,4.38l-0.11-0.05c0.09-0.2,0.08-0.79,0.07-1l0.13-0.01C26.55,3.35,26.58,4.11,26.46,4.38z"/>
		</g>
		<g>
			<path d="M26.79,4.71l-0.11-0.05c0.09-0.2,0.08-0.79,0.07-1l0.13-0.01C26.87,3.68,26.91,4.44,26.79,4.71z"/>
		</g>
		<g>
			<path d="M21.75,2.34l-0.13-0.03l0.21-1.08l0.07,0.02c0.01,0,0.01,0.01,0.02,0.01c0.24,0,1.22-0.69,1.86-1.2L23.84,0l0.04,0.08
				c0.25,0.65,2.18,0.77,2.2,0.77h0.06V1.7h-0.13V0.98c-0.34-0.03-1.86-0.17-2.22-0.77c-0.35,0.28-1.46,1.13-1.86,1.17L21.75,2.34z"
				/>
		</g>
		<g>
			<circle cx="21.57" cy="17.25" r="0.12"/>
		</g>
		<g>
			<circle cx="21.88" cy="18.43" r="0.12"/>
		</g>
		<g>
			<circle cx="22.19" cy="19.53" r="0.12"/>
		</g>
		<g>
			<circle cx="22.58" cy="20.84" r="0.12"/>
		</g>
		<g>
			<circle cx="23.02" cy="22.42" r="0.12"/>
		</g>
		<g>
			<circle cx="23.41" cy="24.12" r="0.12"/>
		</g>
		<g>
			<circle cx="26.48" cy="17.25" r="0.12"/>
		</g>
		<g>
			<circle cx="26.17" cy="18.43" r="0.12"/>
		</g>
		<g>
			<circle cx="25.85" cy="19.53" r="0.12"/>
		</g>
		<g>
			<circle cx="25.46" cy="20.84" r="0.12"/>
		</g>
		<g>
			<circle cx="25.02" cy="22.42" r="0.12"/>
		</g>
		<g>
			<circle cx="24.64" cy="24.12" r="0.12"/>
		</g>
		<g>
			<path d="M21.77,27.17l-0.13-0.04c0.11-0.32,0.16-0.61,0.16-0.92c0-0.51-0.14-0.89-0.26-1.22c-0.15-0.37-0.27-0.7-0.13-1.1
				c0.08-0.22,0.18-0.32,0.27-0.43c0.1-0.11,0.2-0.21,0.27-0.44c0.13-0.41,0.09-0.87-0.13-1.38c0.03-0.53,0.7-0.85,0.73-0.86
				l0.03-0.02l0.03,0.02l1.41,0.92l1.48-0.95l0.03,0.05c0.54,0.77,0.73,1.42,0.57,1.96c-0.09,0.27-0.25,0.45-0.4,0.62
				c-0.16,0.19-0.32,0.37-0.37,0.66c-0.07,0.39,0.08,0.83,0.44,1.3l-0.1,0.08c-0.38-0.5-0.54-0.98-0.46-1.41
				c0.06-0.32,0.23-0.53,0.41-0.72c0.15-0.17,0.29-0.34,0.37-0.58c0.15-0.48-0.02-1.08-0.51-1.79l-1.33,0.85l0.98,0.63l-0.06,0.06
				l-0.95,1.01l0.67,0.71h-1.53l0.11-0.11l0.56-0.6l-1.01-1.07l0.06-0.04l0.92-0.58l-1.34-0.86c-0.13,0.07-0.61,0.34-0.63,0.71
				c0.23,0.51,0.28,1,0.14,1.44c-0.08,0.26-0.2,0.38-0.3,0.49c-0.09,0.1-0.18,0.2-0.24,0.38c-0.12,0.37-0.01,0.65,0.13,1.02
				c0.13,0.34,0.27,0.72,0.27,1.26C21.93,26.53,21.88,26.85,21.77,27.17z M23.56,24.06h0.92l-0.46-0.49L23.56,24.06z M23.13,22.43
				l0.9,0.95l0.89-0.95l-0.89-0.58L23.13,22.43z"/>
		</g>
		<g>
			<path d="M22.87,10.53l-0.09-0.09c0.25-0.24,0.24-0.99,0.24-0.99h0.13C23.15,9.48,23.16,10.26,22.87,10.53z"/>
		</g>
	</g>
</g>
</svg>
