<?xml version="1.0" standalone="no"?>
<!DOCTYPE svg PUBLIC "-//W3C//DTD SVG 20010904//EN"
 "http://www.w3.org/TR/2001/REC-SVG-20010904/DTD/svg10.dtd">
<svg version="1.0" xmlns="http://www.w3.org/2000/svg"
 width="512.000000pt" height="512.000000pt" viewBox="0 0 512.000000 512.000000"
 preserveAspectRatio="xMidYMid meet">

<g transform="translate(0.000000,512.000000) scale(0.100000,-0.100000)"
fill="#000000" stroke="none">
<path d="M682 5018 c-11 -13 -44 -68 -74 -122 l-53 -100 -97 -51 c-124 -65
-138 -78 -138 -126 0 -47 24 -68 149 -133 l91 -47 44 -88 c61 -121 88 -151
135 -151 48 0 63 17 130 143 l53 98 87 44 c121 60 151 87 151 134 0 48 -13 59
-142 130 l-103 56 -50 97 c-28 53 -59 106 -69 117 -27 29 -86 28 -114 -1z m84
-250 c28 -62 56 -91 113 -118 28 -13 51 -26 51 -30 0 -4 -23 -17 -51 -30 -57
-27 -85 -56 -113 -118 -10 -23 -22 -42 -26 -42 -4 0 -16 19 -26 42 -28 62 -56
91 -113 118 -28 13 -51 26 -51 30 0 4 23 17 51 30 57 27 85 56 113 118 10 23
22 42 26 42 4 0 16 -19 26 -42z"/>
<path d="M4135 4755 c-21 -20 -25 -34 -25 -83 0 -75 25 -112 74 -112 53 0 76
33 76 111 0 56 -4 69 -23 87 -31 29 -72 28 -102 -3z"/>
<path d="M3895 4515 c-14 -13 -25 -36 -25 -50 0 -14 11 -37 25 -50 20 -21 34
-25 88 -25 77 0 107 21 107 75 0 50 -37 75 -112 75 -49 0 -63 -4 -83 -25z"/>
<path d="M4305 4515 c-14 -13 -25 -36 -25 -50 0 -14 11 -37 25 -50 20 -21 33
-25 88 -25 53 0 67 4 85 23 31 33 29 80 -4 106 -41 32 -136 30 -169 -4z"/>
<path d="M2370 4454 c-14 -2 -59 -9 -100 -15 -588 -84 -1124 -487 -1385 -1041
-250 -532 -229 -1171 55 -1682 270 -485 745 -826 1295 -927 162 -30 457 -33
619 -6 223 38 461 124 642 232 125 74 149 112 105 166 -28 35 -74 30 -146 -16
-79 -51 -260 -136 -360 -169 -341 -111 -720 -112 -1062 -1 -141 46 -344 148
-463 232 -122 88 -307 272 -392 393 -205 289 -318 644 -318 995 1 729 470
1379 1161 1609 203 68 287 80 539 80 196 0 238 -3 329 -22 163 -36 286 -78
426 -148 432 -214 746 -591 879 -1057 50 -171 60 -258 60 -472 0 -177 -3 -214
-27 -326 -65 -309 -193 -565 -401 -803 -94 -107 -102 -130 -61 -171 43 -44 71
-35 155 53 506 529 633 1368 311 2047 -92 194 -187 330 -346 494 -279 288
-603 461 -1010 538 -76 14 -448 27 -505 17z"/>
<path d="M4131 4344 c-16 -20 -21 -41 -21 -84 0 -73 25 -110 74 -110 53 0 76
33 76 111 0 56 -4 69 -23 87 -33 31 -80 29 -106 -4z"/>
<path d="M2420 4049 c-167 -16 -344 -66 -495 -141 -98 -49 -125 -73 -125 -110
0 -33 39 -78 68 -78 11 0 45 14 77 31 642 342 1444 90 1769 -557 56 -112 100
-244 121 -361 20 -115 19 -324 -1 -444 -79 -461 -417 -853 -864 -1003 -752
-251 -1555 231 -1685 1013 -25 150 -17 389 18 523 54 206 135 363 272 525 103
123 110 133 101 166 -9 37 -61 62 -97 48 -33 -12 -150 -143 -217 -242 -101
-150 -178 -333 -218 -519 -27 -120 -27 -448 -1 -570 62 -287 196 -536 400
-739 206 -204 445 -333 737 -397 68 -15 126 -19 285 -19 181 1 211 3 312 27
558 132 979 564 1100 1128 26 122 26 449 -1 570 -69 319 -242 610 -480 810
-240 201 -507 312 -821 340 -114 11 -137 10 -255 -1z"/>
<path d="M231 3647 c-42 -46 -131 -288 -170 -465 -69 -310 -78 -689 -25 -1012
44 -267 152 -574 215 -609 35 -20 83 -1 99 40 11 26 9 37 -18 97 -75 162 -127
346 -159 561 -22 144 -24 540 -5 676 31 218 84 413 153 567 43 94 44 126 6
153 -31 22 -70 18 -96 -8z"/>
<path d="M4793 3655 c-38 -27 -37 -59 6 -153 120 -267 180 -620 168 -977 -12
-322 -69 -587 -179 -827 -27 -60 -29 -71 -18 -97 16 -41 64 -60 99 -40 29 17
75 105 120 234 191 541 169 1268 -55 1774 -43 95 -88 123 -141 86z"/>
<path d="M2648 3246 c-223 -41 -359 -71 -379 -82 -18 -11 -40 -35 -50 -54 -17
-32 -19 -62 -19 -365 l0 -330 -82 0 c-108 0 -187 -34 -256 -110 -69 -75 -87
-149 -57 -223 36 -85 106 -126 215 -126 129 1 237 60 298 162 l27 47 3 302 3
302 27 5 c15 3 155 28 312 56 157 27 293 52 303 54 15 4 17 -5 17 -77 l0 -82
-88 0 c-75 0 -94 -4 -142 -28 -109 -56 -172 -143 -172 -237 0 -114 93 -192
231 -191 131 0 254 75 300 181 21 49 22 60 19 420 l-3 370 -32 31 c-48 48 -82
46 -475 -25z m358 -203 c-2 -3 -150 -31 -328 -62 l-323 -58 -3 55 c-2 30 -2
56 0 58 2 2 150 29 328 61 l325 58 3 -54 c2 -29 1 -55 -2 -58z m-15 -473 c43
-23 10 -94 -62 -130 -43 -23 -138 -27 -157 -8 -32 32 4 98 72 129 45 20 117
25 147 9z m-803 -324 c16 -15 15 -19 -3 -54 -49 -90 -232 -124 -243 -45 -4 30
53 90 103 109 48 17 121 12 143 -10z"/>
<path d="M477 3188 c-26 -20 -75 -139 -103 -251 -21 -83 -27 -134 -31 -277 -6
-200 8 -310 57 -462 49 -152 86 -194 149 -168 49 20 54 55 19 141 -52 129 -69
220 -75 390 -4 121 -2 180 11 258 17 97 50 213 76 262 19 35 14 81 -11 101
-25 21 -68 23 -92 6z"/>
<path d="M4557 3189 c-39 -23 -38 -52 3 -161 49 -131 70 -258 70 -418 0 -184
-18 -274 -95 -479 -17 -46 -3 -85 36 -101 63 -26 100 16 149 167 77 238 81
553 11 795 -26 92 -71 187 -92 198 -23 13 -59 12 -82 -1z"/>
<path d="M4505 1249 c-121 -33 -231 -68 -245 -78 -14 -10 -35 -33 -47 -51 -23
-32 -23 -39 -23 -318 0 -267 -1 -284 -17 -277 -34 15 -141 17 -180 5 -56 -19
-108 -56 -139 -102 -39 -56 -45 -148 -14 -212 43 -91 143 -142 259 -134 100 7
170 50 214 133 21 38 22 56 25 301 l3 262 177 46 c292 78 302 82 333 150 27
60 27 228 -1 273 -21 36 -67 63 -102 62 -13 0 -122 -28 -243 -60z m215 -157
l0 -58 -190 -50 -190 -50 0 57 0 57 113 30 c61 17 144 39 182 50 39 11 73 20
78 21 4 0 7 -25 7 -57z m-574 -721 c79 -48 32 -141 -71 -141 -96 0 -140 79
-74 134 38 32 99 35 145 7z"/>
<path d="M903 1065 c-37 -16 -43 -31 -43 -106 0 -50 4 -64 25 -84 13 -14 36
-25 50 -25 14 0 37 11 50 25 21 20 25 34 25 83 0 91 -43 134 -107 107z"/>
<path d="M640 810 c-27 -27 -26 -81 1 -106 17 -15 36 -19 91 -19 61 0 72 3 89
24 26 32 24 73 -4 99 -33 31 -147 32 -177 2z"/>
<path d="M1050 810 c-26 -26 -26 -81 0 -105 21 -19 95 -31 135 -21 62 16 85
83 42 124 -33 31 -147 32 -177 2z"/>
<path d="M903 660 c-32 -13 -43 -41 -43 -110 0 -51 4 -65 25 -85 29 -30 64
-32 95 -7 18 14 24 32 28 75 6 72 -10 112 -50 126 -17 6 -31 11 -32 10 -1 0
-11 -4 -23 -9z"/>
</g>
</svg>
