<?xml version="1.0" encoding="utf-8"?>
<!-- Generator: Adobe Illustrator 23.0.0, SVG Export Plug-In . SVG Version: 6.00 Build 0)  -->
<svg version="1.1" id="Calque_1" xmlns="http://www.w3.org/2000/svg" xmlns:xlink="http://www.w3.org/1999/xlink" x="0px" y="0px"
	 viewBox="0 0 48 48" style="enable-background:new 0 0 48 48;" xml:space="preserve">
<g>
	<g>
		<path d="M21.19,48c-9.5,0-17.24-7.73-17.24-17.23s7.73-17.24,17.24-17.24c1.48,0,2.92,0.19,4.13,0.54
			c5.03,1.27,9.16,4.67,11.32,9.34l-0.48,0.22c-2.09-4.52-6.09-7.82-10.96-9.05c-1.19-0.35-2.57-0.52-4.01-0.52
			c-9.21,0-16.7,7.49-16.7,16.7s7.49,16.71,16.7,16.71c9.11,0,16.53-7.5,16.53-16.71c0-0.88,0-1.72-0.34-2.55l0.5-0.19
			c0.37,0.92,0.37,1.85,0.37,2.74C38.25,40.27,30.59,48,21.19,48z"/>
	</g>
	<g>
		<path d="M8.02,29.73l-0.54-0.03c0.36-6.42,5.03-11.54,11.37-12.44l0.07,0.52C12.85,18.64,8.36,23.56,8.02,29.73z"/>
	</g>
	<g>
		<path d="M21.31,34.86c-2.37,0-4.3-1.93-4.3-4.3s1.93-4.3,4.3-4.3s4.29,1.93,4.29,4.3S23.67,34.86,21.31,34.86z M21.31,26.8
			c-2.08,0-3.76,1.68-3.76,3.76s1.68,3.76,3.76,3.76c2.07,0,3.75-1.68,3.75-3.76S23.38,26.8,21.31,26.8z"/>
	</g>
	<g>
		<g>
			<rect x="43.52" y="8.24" width="0.54" height="16.43"/>
		</g>
		<g>
			<g>
				<path d="M25.06,14.73V6.29L44.05,0v8.43L25.06,14.73z M25.6,6.67v7.32l17.92-5.94V0.74L25.6,6.67z"/>
			</g>
			<g>
				<rect x="25.06" y="14.36" width="0.54" height="16.42"/>
			</g>
		</g>
	</g>
	<g>
		<path d="M39.94,29.24c-2.27,0-4.12-1.85-4.12-4.11s1.85-4.11,4.12-4.11c2.26,0,4.11,1.85,4.11,4.11S42.2,29.24,39.94,29.24z
			 M39.94,21.55c-1.98,0-3.58,1.61-3.58,3.57s1.61,3.57,3.58,3.57c1.97,0,3.57-1.61,3.57-3.57S41.91,21.55,39.94,21.55z"/>
	</g>
</g>
</svg>
