<?xml version="1.0" encoding="utf-8"?>
<!-- Generator: Adobe Illustrator 23.0.0, SVG Export Plug-In . SVG Version: 6.00 Build 0)  -->
<svg version="1.1" id="Calque_1" xmlns="http://www.w3.org/2000/svg" xmlns:xlink="http://www.w3.org/1999/xlink" x="0px" y="0px"
	 viewBox="0 0 48 48" style="enable-background:new 0 0 48 48;" xml:space="preserve">
<style type="text/css">
	.st0{fill:#290000;}
</style>
<g>
	<g>
		<path class="st0" d="M27.6,47.2c-0.4,0-0.8-0.1-1.1-0.3l-0.3-0.2c-0.7-0.5-0.7-0.5-1.6-0.2l-0.2,0.1c-1,0.3-1.9,0.7-2.8,0.2
			c-0.4-0.2-0.5-0.4-0.6-0.5c-0.1-0.1,0-0.1-0.7-0.1c-0.1,0-0.2,0-0.3,0c-1.1,0-1.9-0.4-2-0.4l-0.2-0.1l0-0.2c0,0,0.6-3.3,1.5-7.4
			c0.8-3.4,1.1-4.6,1.4-5.6l0.2-0.8c0.3-1,0.7-2.6,1.1-3.8l0,0l-0.2,0.1c-0.2,0.2-0.4,0.2-0.6,0.1c-0.1-0.1-0.2-0.1-0.2-0.2
			c-0.2,0.1-0.4,0.1-0.6,0c-0.2-0.1-0.3-0.2-0.3-0.4l0,0c-0.1,0-0.3,0.1-0.4,0.1c-0.3,0.1-0.5-0.1-0.5-0.1c-0.1-0.1-0.1-0.3,0-0.5
			c0.1-0.1,0.2-0.3,0.2-0.5l0,0c-0.1,0-0.1,0-0.2-0.1l-0.2-0.1c0,0-0.1,0-0.1,0c-0.1,0.9-0.2,4.1-0.2,4.1l0,0.6l-0.1-0.1
			c0,0.4-0.1,0.9-0.1,1.4c-0.1,0.8-0.4,2.5-0.8,4.1l0,0.2c-0.4,1.9-0.7,2.6-0.8,2.7c-0.1,0.2-0.1,0.3-0.2,0.6l0,0.2
			c0,0.3,0,0.4-0.2,0.7c0,0.1-0.1,0.3-0.2,0.6c-0.1,0.3-0.3,0.7-0.4,0.9c0,0.1,0,0.2-0.1,0.3c-0.1,0.5-0.1,0.9-0.2,1.4l-0.1,0.7
			c0,0.1,0,0.3-0.1,0.4h0c0.1,0.1,0.5,0,0.7,0.2l0.1,0c0.3,0,0.8,0.1,0.9,0.3c0.1,0.1,0.1,0.3,0,0.5c-0.1,0.2-0.2,0.3-0.5,0.4
			c-0.6,0.2-1.8,0.3-2.1,0.2c-0.1,0-0.2-0.1-0.3-0.1c-0.1,0-0.1-0.1-0.2-0.1c0,0.1-0.2,0-0.3,0h-1c-0.3,0-0.5-0.1-0.6-0.1l-0.2-0.1
			l0-0.1h-0.2c-0.3,0-0.5-0.1-0.5-0.1L11,45.9l0.1-0.6L11,45c0,0,0-0.2,0-0.5c0-0.1,0-0.3,0-0.4c0-0.1,0.1-0.2,0.1-0.3
			c0-0.5,0.1-0.7,0.3-0.8c0.1-0.1,0.1-0.1,0.1-0.2c0.1-0.2,0.1-0.6,0-0.9c0-0.2,0-0.4,0-0.6c0.1-1,0.3-2.1,0.5-3.1l0.1-0.6
			c0.4-2.1,0.6-4.2,0.8-6.2c-0.1-0.2-0.1-0.3-0.2-0.5c-0.1-0.2-0.2-0.6-0.2-0.9c0-0.1,0-0.1,0-0.2H12l0-0.3c0-0.1,0.1-1.6,0.3-2.3
			c0.1-0.3,0.2-0.4,0.2-0.5c0-0.1,0.1-0.1,0.1-0.3c0-0.1,0-0.1,0-0.2c-0.1-0.2-0.1-0.4,0.1-0.6c0.1-0.1,0.2-0.2,0.2-0.3
			c0-0.3,0-0.4,0.1-0.5l0-0.1c0-0.1,0-0.1-0.1-0.2c0,0,0,0-0.1-0.1c-0.4-0.3-0.7-0.6-0.8-1.8c-0.1-1.1-0.1-2.2-0.1-2.9l0-0.2
			c0-0.6,0.1-1.4,0.6-2c0.5-0.6,0.9-1.1,1.3-1.2H14c0.1-0.1,0.2-0.3,0.3-0.4c0.1-0.1,0.1-0.2,0.1-0.3c0.1-0.3,0.2-0.5,0.3-0.7
			C14.9,15,15,15,15.2,15c0-0.1,0-0.3,0-0.6c-0.1-0.7-0.5-2.4,0.5-3.2c0.7-0.6,1.6-0.8,2.3-0.4l0.2,0.1c0.6,0.3,1.3,0.6,1.3,1.1
			c0,0.2,0,0.4-0.1,0.6c0,0.2-0.1,0.4-0.1,0.5c0,0.4,0,0.7,0,0.8c0,0.2-0.1,0.3-0.2,0.3c0,0,0,0.1,0,0.2c0.1,0.2,0.1,0.5,0.1,0.6
			l0,0.1l-0.1,0.1c-0.1,0.1-0.2,0.1-0.3,0.1c0,0.1-0.1,0.2-0.1,0.2c0,0.1-0.1,0.3-0.1,0.3c0,0,0,0,0,0.1c0,0.3-0.1,0.4-0.2,0.5
			c-0.1,0.1-0.3,0.2-0.5,0.1c0,0-0.1,0-0.1,0v0c0,0.1,0,0.2,0,0.2c0.1,0.1,0.2,0.1,0.3,0.2c0.1,0.2,0.1,0.4,0.1,0.7
			c0.1,0.1,0.1,0.3,0,0.5c0,0.1-0.1,0.1-0.1,0.2l0.6,2.1c0.1,0.6,0.2,1.3,0.2,1.7c0,0.1,0,0.4,0,0.7v0c0.1-0.1,0.3-0.1,0.4-0.1
			c0.1,0,0.3,0.1,0.3,0.1c0.2,0,0.3-0.1,0.4-0.1l0,0c0.2,0,0.4,0.1,0.4,0.2c0-0.5,0.3-0.5,0.4-0.5c0.1,0,0.1,0,0.2,0
			c0-0.2,0-0.4,0.1-0.5l0.1-0.1l0.1,0c0.2,0,0.3,0.2,0.3,0.3c0.1,0,0.1,0,0.1-0.1l0.5-0.1c0.2,0.3,0.3,0.6,0.2,1l-0.1,0.2
			c0.3-0.2,0.4-0.1,0.5,0l0.1,0.1l0,0.2l0.2,0c0.2,0.1,0.3,0.2,0.3,0.4c0.4-1,0.1-1.8,0-2.3c-0.1-0.2-0.1-0.3-0.1-0.4
			c0.1-0.5,0.6-1,1.1-1.5c0.2-0.2,0.4-0.3,0.5-0.5c0.6-0.7,0.6-0.7,0.6-1c0-0.3-0.2-0.5-0.4-0.7c-0.1-0.2-0.2-0.1-0.3-0.1
			c-0.4,0.2-0.8,0.2-1,0.1c-0.2-0.2-0.2-0.4-0.2-0.5L23.9,17c0-0.1-0.1-0.2,0-0.3c0,0,0-0.1,0-0.1l0-0.1c-0.1,0-0.1-0.1-0.2-0.2
			c-0.1-0.2,0-0.3,0.1-0.5c0,0,0.1-0.1,0.1-0.1c0,0,0.1-0.1,0.1-0.2c0,0,0.1-0.1,0.1-0.2c0,0-0.1-0.4,0-0.8c0-0.3,0.2-0.5,0.3-0.7
			c0-0.1,0.1-0.3,0.2-0.4c0.2-0.2,0.3-0.2,0.6-0.3c0.1-0.1,0.2,0,0.3,0l0.2-0.1c0.4-0.3,0.9-0.5,1.5-0.4c0,0,0,0,0,0
			c0.3,0,0.7,0.1,1,0.3c1.3,0.8,2.7,1.9,3.6,5.1c0.4,1.4,0.7,2.7,1,4.1c0.3,1.3,0.6,2.5,1,3.8l0.1,0.4c0.4,1.3,0.7,2.7,1.2,4
			c0.1,0.2,0.2,0.5,0.3,0.8c0.2,0.7,0.8,2.5,1.2,2.6l-0.1,0.5l0,0l0,0h0c-0.7-0.2-1-0.9-1.3-1.4c-0.1-0.3-0.5-1-1-1c0,0,0,0,0,0
			c-0.1,0-0.2,0.1-0.4,0.1c-0.3,0.1-0.7,0.2-1,0c-0.2-0.1-0.3-0.4-0.3-0.6c-0.2-1-0.6-1.6-1.1-1.8c-0.2-0.1-0.4-0.1-0.6-0.1
			c-0.2,0-0.5-0.1-0.7-0.2c0,0,0.1,0.1,0.1,0.1c0.8,0.9,1.6,1.8,2.3,3.2c1.1,2.2,2.3,4.1,3.6,5.8c1.4,1.9,4.1,5.3,4.4,5.7l0,0
			c0.2,0.2,0.2,0.5,0,0.8c-0.3,0.5-1,1-1.7,1c-0.1,0-0.3-0.1-0.4-0.1c-0.3,0-0.6,0.1-0.9,0.3c-0.3,0.1-0.7,0.3-1.2,0.4
			c-0.7,0.1-1.6,0-2.7-0.1c-1-0.1-2.1-0.3-2.6-0.1C29.8,46.7,28.6,47.2,27.6,47.2z M25.4,45.8c0.4,0,0.6,0.1,1.1,0.4l0.3,0.2
			c0.8,0.5,2.6-0.1,3.7-0.5c0.7-0.2,1.8-0.1,3,0.1c0.9,0.1,1.9,0.2,2.5,0.1c0.5-0.1,0.8-0.3,1.2-0.4c0.5-0.2,0.8-0.4,1.5-0.3
			c0,0,0.1,0,0.1,0c0.4,0,1-0.3,1.2-0.7c0.1-0.1,0.1-0.2,0.1-0.2l0,0c-0.3-0.4-3-3.9-4.4-5.7c-1.3-1.7-2.5-3.6-3.6-5.9
			c-0.7-1.3-1.4-2.1-2.3-3.1c-0.5-0.6-1-1.2-1.6-1.9c-1.2-1.6-1.2-1.8-1.2-2.1c0-0.4,0.1-0.6,0.4-1c0.2-0.3,0.5-0.7,0.8-1.3
			c0.7-1.2,1-2.1,1.1-2.9l0.2-2.7l0.4,2.7c0.3,2.6,0.3,5.1,0.1,7.5c0,0.2,0,0.4,0,0.5c0.1,0.2,0.4,0.3,0.9,0.4
			c0.2,0,0.5,0.1,0.7,0.2c0.7,0.3,1.1,1,1.4,2.1c0.1,0.2,0.1,0.3,0.1,0.3c0.1,0.1,0.3,0,0.5-0.1c0.2-0.1,0.4-0.1,0.6-0.1
			c0.3,0,0.6,0.1,0.8,0.3c0-0.1-0.1-0.2-0.1-0.3c-0.1-0.3-0.2-0.6-0.3-0.8c-0.5-1.3-0.9-2.7-1.3-4.1l-0.1-0.4
			c-0.3-1.2-0.6-2.5-1-3.8c-0.3-1.4-0.7-2.7-1-4.1c-0.9-3-2.2-4.1-3.4-4.8c-0.4-0.2-0.8-0.2-1.1-0.3c-0.3,0-0.5,0.1-0.8,0.3
			c-0.1,0.1-0.3,0.2-0.5,0.2l-0.1,0c-0.4,0-0.4,0.1-0.5,0.1c0,0-0.1,0.1-0.1,0.2l-0.1,0.2c0,0-0.2,0.2-0.2,0.4c-0.1,0.3,0,0.6,0,0.6
			c0.1,0.2,0,0.4-0.1,0.6L24.3,16c0,0,0,0.1-0.1,0.1l0.2,0.2l0.1,0.2l-0.1,0.1c0.1,0.1,0.1,0.2,0,0.2l0,0.1c0,0,0,0.1,0,0.1l0,0
			l0,0.1c0,0,0,0,0,0c0.1,0,0.3-0.1,0.4-0.1l0,0l0.1,0c0.3-0.1,0.6,0,0.8,0.2c0.2,0.3,0.5,0.5,0.5,1c0.1,0.5-0.1,0.7-0.7,1.4
			c-0.1,0.2-0.3,0.3-0.5,0.5c-0.4,0.4-0.9,0.8-1,1.2c0,0,0,0.1,0.1,0.2c0.2,0.5,0.5,1.7-0.2,3c-0.1,0.2-0.2,0.3-0.3,0.4L23.6,25
			l-0.1-0.1c0,0,0,0-0.1,0l-0.2,0.1l-0.1-0.4l0.1-0.4c-0.2-0.1-0.4-0.1-0.5-0.3c-0.3,0.1-0.5,0-0.6-0.3c-0.1-0.2,0-0.4,0-0.5
			c0,0,0,0,0,0C22,23,21.8,23,21.7,23c0,0-0.1,0-0.1-0.1c-0.1,0.4-0.3,0.4-0.4,0.4c-0.1,0-0.1,0-0.2,0c0.1,0.1,0.1,0.2,0,0.3
			c0,0.1-0.1,0.2-0.2,0.2c-0.1,0.1-0.2,0.1-0.3,0c-0.1,0-0.2-0.1-0.3-0.2c-0.2,0-0.4,0.1-0.5,0c-0.1,0-0.2-0.1-0.2-0.1
			c-0.1,0-0.1,0.1,0,0.1l-0.9,0l0-0.6c0-0.3,0-0.6,0-0.7c0-0.3-0.1-1.2-0.2-1.8l-0.1-0.5l-0.3-0.8c-0.1-0.3-0.3-0.6-0.3-0.6
			l-0.1-0.1l0.1-0.2l0.2-0.2c0.1-0.1,0.1-0.1,0-0.2l-0.1-0.1l0-0.1c0.1-0.3,0-0.4,0-0.4s0-0.1-0.2-0.1l-0.2-0.1V17
			c0-0.1,0-0.1,0-0.2L17,16.7l0-0.1c0-0.1,0-0.3,0-0.3l0-0.1l0.1-0.1c0.1-0.1,0.2-0.2,0.3-0.2c0,0,0.1,0,0.4,0.1
			c0.1,0,0.2,0.1,0.2,0.1c0-0.2,0-0.4,0.2-0.5l0-0.1l0.3-0.2l-0.1-0.3l0.3,0h0h0c0-0.1-0.1-0.2-0.1-0.3c-0.1-0.3-0.1-0.4-0.1-0.4V14
			l0.3-0.1c0,0,0-0.3,0-0.6c0-0.2,0-0.5,0.1-0.7c0-0.1,0.1-0.3,0.1-0.4c0-0.2-0.7-0.5-1-0.6l-0.2-0.1c-0.3-0.1-0.9-0.3-1.7,0.3
			c-0.6,0.5-0.5,1.7-0.3,2.7c0.1,0.5,0.1,0.9-0.1,1.1l-0.1,0.1l-0.2,0.1l-0.2,0c-0.1,0-0.1,0.2-0.2,0.4c-0.1,0.2-0.1,0.3-0.2,0.5
			c-0.1,0.2-0.3,0.4-0.5,0.6l-0.1,0.1L14,17.1c-0.2,0.1-0.8,0.7-1,0.9c-0.5,0.6-0.5,1.3-0.6,1.8l0,0.2c-0.1,0.6,0,1.7,0.1,2.8
			c0.1,1.1,0.3,1.2,0.6,1.4c0.3,0.2,0.3,0.3,0.3,0.5c0.1,0.3,0.1,0.4,0.1,0.5c0,0.1,0,0.1,0,0.2c0,0.3-0.1,0.4-0.2,0.6
			c0,0-0.1,0.1-0.1,0.2c0,0.1,0,0.2,0,0.4c0,0.3,0,0.4-0.1,0.5c0,0.1-0.1,0.2-0.1,0.4c-0.1,0.4-0.2,1.4-0.3,1.9h0.2l0.1,0.1
			c0,0,0.1,0.1,0.1,0.4c0.1,0.3,0.1,0.6,0.2,0.8c0.1,0.2,0.2,0.4,0.2,0.7c-0.2,2.1-0.4,4.2-0.8,6.3l-0.1,0.6c-0.2,1-0.4,2-0.5,3
			c0,0.1,0,0.3,0,0.5c0,0.4,0.1,0.8-0.1,1.2c-0.1,0.2-0.2,0.3-0.3,0.4l-0.3,0.2l0.3-0.1c0.1,0.2-0.1,0.4-0.1,0.5
			c-0.1,0.2-0.1,0.3-0.1,0.4c0,0.1,0,0.3,0,0.3l0.1,0.2l0,0.4c0.1,0,0.1,0,0.2,0h0.8l0,0.3c0.1,0,0.1,0,0.2,0h0.5v-0.3l0.4,0.2
			c0.1,0.1,0.2,0.1,0.2,0.1c0.1,0,0.2,0.1,0.4,0.1c0.2,0.1,0.3,0.1,0.4,0.1c0.1,0.1,0.2,0.2,0.6,0.2c0.5,0,1.4-0.2,1.5-0.3
			c-0.1,0-0.4-0.1-0.5-0.1l-0.3-0.1l-0.1-0.2l0,0c0,0-0.1-0.1-0.4-0.1c-0.2-0.1-0.3-0.2-0.4-0.2L14.8,45l-0.2-0.4H15
			c0,0,0-0.1,0-0.1l0.1-0.8c0.1-0.5,0.1-0.9,0.2-1.4c0-0.1,0-0.2,0.1-0.3c0.1-0.3,0.2-0.7,0.4-1c0.1-0.2,0.2-0.4,0.2-0.5
			c0.1-0.3,0.1-0.3,0.1-0.6l0-0.2c0.1-0.4,0.1-0.5,0.2-0.9c0.1-0.1,0.4-0.7,0.8-2.6l0-0.2c0.3-1.5,0.7-3.2,0.8-4
			c0.1-0.8,0.1-1.9,0.1-1.9l0-0.6l0.1,0.1c0-1,0.1-2.9,0.2-3.6c0-0.1,0-0.2,0-0.3v-0.4l0.3,0.1c0.2,0.1,0.4,0.1,0.6,0.2l0.1,0.1
			c0.2,0.1,0.3,0.1,0.4,0.1c0.1,0.1,0.2,0.2,0.2,0.3l0,0.1L20,26.6c-0.1,0.1-0.1,0.3-0.2,0.4c0.1,0,0.2,0,0.3-0.1l0.2,0
			c0.3,0.1,0.4,0.3,0.4,0.4l0.1,0.1c0.1,0,0.2-0.1,0.3-0.1c0.2,0,0.3,0.2,0.4,0.2c0.1-0.1,0.2-0.2,0.3-0.3l1,0.1l-0.1,0.2
			c-0.4,1.1-1,3.2-1.3,4.2l-0.2,0.8c-0.3,1-0.6,2.2-1.4,5.6c-0.8,3.5-1.3,6.4-1.4,7.2c0.3,0.1,0.9,0.2,1.6,0.2c0.2,0,0.4,0,0.6,0
			c0.6,0,0.8,0.1,0.9,0.4c0.1,0.1,0.1,0.2,0.4,0.3c0.7,0.4,1.4,0.1,2.3-0.2l0.2-0.1C24.9,45.9,25.2,45.8,25.4,45.8z M29.3,22.2
			c-0.2,0.5-0.4,1-0.8,1.6c-0.4,0.7-0.7,1.1-0.9,1.3c-0.2,0.3-0.3,0.4-0.3,0.5c0,0.1,0,0.2,0,0.3c0,0.1,0.1,0.4,1.1,1.7
			c0.3,0.4,0.6,0.7,0.8,1c0-0.2,0-0.4,0-0.5C29.4,26.2,29.5,24.2,29.3,22.2z M20.3,27.3L20.3,27.3L20.3,27.3L20.3,27.3z M18.3,19.8
			V20V19.8L18.3,19.8z M23.9,16.3C23.9,16.3,23.9,16.3,23.9,16.3L23.9,16.3z"/>
	</g>
	<g>
		<g>
			<path d="M46.4,43.4h-0.5V23.2c0-12-9.8-21.8-21.8-21.8S2.2,11.2,2.2,23.2v20.2H1.7V23.2c0-12.3,10-22.3,22.3-22.3
				c12.3,0,22.4,10,22.4,22.3V43.4z"/>
		</g>
		<g>
			<path d="M43.6,43.4h-0.5V23.2c0-1-0.1-2.3-0.3-3.8c-1.9-8.8-9.5-15.1-18.3-15.3h-1C14.7,4.3,7.2,10.6,5.2,19.4
				c-0.2,1.5-0.3,2.8-0.3,3.8v20.2H4.4V23.2c0-1.1,0.1-2.4,0.3-3.9c2-9.1,9.7-15.6,18.8-15.7h1c9.1,0.1,16.8,6.6,18.8,15.7
				c0.2,1.5,0.3,2.8,0.3,3.9V43.4z"/>
		</g>
		<g>
			<path d="M5.4,45.7H1.1c-0.6,0-1.1-0.5-1.1-1.1v-0.5c0-0.6,0.5-1,1.1-1h4.3c0.6,0,1.1,0.5,1.1,1v0.5C6.4,45.3,6,45.7,5.4,45.7z
				 M1.1,43.6c-0.3,0-0.5,0.2-0.5,0.5v0.5c0,0.3,0.2,0.5,0.5,0.5h4.3c0.3,0,0.5-0.2,0.5-0.5v-0.5c0-0.3-0.2-0.5-0.5-0.5H1.1z"/>
		</g>
		<g>
			<path d="M46.9,45.7h-4.3c-0.6,0-1.1-0.5-1.1-1.1v-0.5c0-0.6,0.5-1,1.1-1h4.3c0.6,0,1.1,0.5,1.1,1v0.5
				C48,45.3,47.5,45.7,46.9,45.7z M42.6,43.6c-0.3,0-0.5,0.2-0.5,0.5v0.5c0,0.3,0.2,0.5,0.5,0.5h4.3c0.3,0,0.5-0.2,0.5-0.5v-0.5
				c0-0.3-0.2-0.5-0.5-0.5H42.6z"/>
		</g>
	</g>
</g>
</svg>
