<?xml version="1.0" standalone="no"?>
<!DOCTYPE svg PUBLIC "-//W3C//DTD SVG 20010904//EN"
 "http://www.w3.org/TR/2001/REC-SVG-20010904/DTD/svg10.dtd">
<svg version="1.0" xmlns="http://www.w3.org/2000/svg"
 width="512.000000pt" height="512.000000pt" viewBox="0 0 512.000000 512.000000"
 preserveAspectRatio="xMidYMid meet">

<g transform="translate(0.000000,512.000000) scale(0.100000,-0.100000)"
fill="#000000" stroke="none">
<path d="M1373 4946 c-196 -64 -292 -262 -222 -453 20 -52 44 -81 252 -290
126 -127 242 -237 258 -243 55 -23 83 -3 317 234 263 265 277 287 277 426 0
73 -4 93 -28 142 -92 187 -326 255 -492 142 -37 -25 -40 -25 -65 -10 -87 58
-214 79 -297 52z m150 -200 c18 -7 48 -30 67 -51 77 -81 118 -81 210 1 33 29
72 57 85 60 97 24 195 -75 170 -173 -4 -18 -73 -95 -186 -208 l-179 -180 -166
165 c-91 91 -172 177 -180 192 -8 15 -14 46 -14 69 0 102 98 166 193 125z"/>
<path d="M3212 4946 c-13 -7 -50 -56 -82 -109 -113 -189 -345 -496 -525 -697
-111 -124 -363 -377 -496 -500 -68 -63 -129 -123 -136 -135 -48 -81 51 -179
134 -132 12 7 99 84 195 173 349 324 672 694 898 1031 116 172 160 250 160
282 0 75 -83 124 -148 87z"/>
<path d="M3872 4923 c-7 -3 -73 -84 -146 -181 -351 -465 -753 -898 -1186
-1278 -757 -666 -1151 -1295 -1277 -2041 -14 -85 -18 -162 -18 -358 0 -283 17
-411 81 -622 65 -216 107 -283 174 -283 50 0 100 49 100 99 0 9 -15 55 -34
102 -40 98 -78 235 -103 369 -14 75 -18 148 -17 340 0 212 3 261 22 365 128
681 518 1287 1214 1888 415 357 863 844 1229 1331 95 128 104 143 104 184 0
36 -5 48 -28 68 -27 23 -80 31 -115 17z"/>
<path d="M4508 4918 c-9 -7 -58 -69 -109 -138 -239 -323 -488 -610 -814 -936
-132 -132 -312 -303 -400 -380 -842 -730 -1264 -1482 -1301 -2316 -14 -302 48
-662 151 -884 39 -85 68 -109 123 -101 72 12 77 25 90 283 13 232 33 383 71
531 127 494 412 828 841 986 160 59 179 61 490 32 397 -37 530 -41 608 -21 85
21 146 59 192 117 55 70 74 135 75 251 l0 97 38 17 c111 50 174 209 107 269
-24 22 -26 35 -4 35 29 0 72 33 93 70 29 52 26 106 -9 195 -16 42 -30 77 -30
80 0 2 42 27 93 54 132 72 142 84 142 179 0 110 -22 145 -145 227 -111 74
-206 169 -240 239 -46 97 -39 218 46 733 24 149 44 287 44 306 0 50 -40 87
-94 87 -23 0 -49 -6 -58 -12z m-137 -635 c-16 -109 -24 -205 -25 -308 -1 -169
9 -208 83 -322 60 -93 198 -220 289 -267 17 -9 32 -21 32 -25 0 -5 -52 -37
-115 -71 -113 -60 -145 -89 -145 -135 0 -8 16 -55 35 -102 35 -86 38 -113 14
-113 -20 0 -78 -49 -94 -80 -24 -46 -19 -127 10 -179 30 -51 27 -55 -52 -71
-66 -14 -107 -57 -100 -104 3 -17 10 -67 17 -111 15 -94 5 -148 -36 -189 -56
-55 -104 -57 -567 -16 -277 24 -351 28 -409 20 -168 -24 -436 -142 -599 -265
-104 -77 -256 -235 -325 -335 -116 -170 -204 -368 -259 -584 -27 -111 -33
-124 -38 -96 -10 48 -8 214 3 331 45 451 217 878 527 1307 176 243 398 480
683 731 353 311 690 656 979 1004 63 75 115 137 115 137 1 0 -9 -71 -23 -157z"/>
<path d="M363 4142 c-251 -90 -272 -432 -35 -549 81 -40 183 -40 264 0 107 53
163 144 163 267 0 85 -21 142 -74 203 -72 81 -213 117 -318 79z m146 -196 c67
-35 65 -143 -4 -174 -51 -23 -107 -7 -131 39 -47 91 44 182 135 135z"/>
<path d="M1515 3508 c-68 -38 -449 -407 -586 -568 -613 -715 -859 -1515 -704
-2285 45 -223 134 -454 186 -481 52 -27 115 -8 137 41 18 39 16 47 -34 172
-159 397 -177 879 -49 1323 152 529 526 1079 1040 1527 126 110 155 144 155
180 0 75 -82 126 -145 91z"/>
<path d="M1112 2447 c-51 -29 -156 -195 -221 -350 -191 -460 -209 -1085 -51
-1767 27 -115 38 -138 71 -155 55 -29 117 -8 139 45 12 28 9 49 -19 178 -72
335 -95 528 -94 817 0 242 20 415 68 595 47 172 125 346 201 445 17 23 37 52
43 63 44 82 -54 175 -137 129z"/>
<path d="M3177 1360 c-101 -26 -198 -105 -239 -198 -16 -35 -22 -68 -22 -132
-2 -140 18 -170 286 -437 222 -221 250 -242 301 -230 12 4 128 113 258 244
216 218 238 243 259 298 18 49 21 74 18 140 -6 98 -32 158 -99 225 -113 113
-313 127 -436 30 -23 -18 -28 -19 -42 -6 -57 52 -204 86 -284 66z m113 -200
c20 -5 54 -28 75 -51 84 -86 122 -89 205 -15 34 30 77 60 97 67 49 16 103 -2
142 -46 25 -29 31 -45 31 -81 0 -25 -6 -57 -14 -72 -8 -15 -90 -102 -183 -195
l-169 -167 -176 178 c-149 150 -177 183 -183 216 -17 87 42 165 130 175 6 0
26 -4 45 -9z"/>
<path d="M4463 1342 c-251 -90 -272 -432 -35 -549 47 -23 70 -28 132 -28 174
0 295 121 295 295 0 85 -21 142 -74 203 -72 81 -213 117 -318 79z m146 -196
c47 -25 63 -83 37 -135 -35 -66 -137 -66 -172 0 -47 91 44 182 135 135z"/>
</g>
</svg>
