<?xml version="1.0" encoding="utf-8"?>
<!-- Generator: Adobe Illustrator 23.0.0, SVG Export Plug-In . SVG Version: 6.00 Build 0)  -->
<svg version="1.1" id="Calque_1" xmlns="http://www.w3.org/2000/svg" xmlns:xlink="http://www.w3.org/1999/xlink" x="0px" y="0px"
	 viewBox="0 0 48 48" style="enable-background:new 0 0 48 48;" xml:space="preserve">
<g>
	<g>
		<g>
			<path d="M26.56,47.99c-0.91,0-1.82-0.1-2.62-0.18l0.02-0.15c2.3,0.24,5.44,0.58,7.06-1.56c1.65-2.2,1.49-5.51,1.35-8.16
				l-0.02-0.39c-0.03-0.6-0.06-1.21-0.08-1.82c-0.17-3.79-0.35-7.72-0.89-11.54c-0.34-2.4-0.79-4.52-1.36-6.5
				c-0.42-1.46-1.09-2.7-1.79-4.02l-0.32-0.6c-1.22-2.31-0.26-4.01,0.85-5.98c0.16-0.28,0.32-0.57,0.49-0.87
				c0.07-0.12,0.13-0.25,0.2-0.37c0.49-0.93,0.99-1.9,1.97-2.42c1.28-0.68,1.88-1.29,1.75-1.76c-0.33-1.2-5.23-1.53-7.19-1.49
				c-0.15,0.3-0.28,0.58-0.41,0.86c-0.14,0.3-0.28,0.59-0.44,0.91c-0.08,0.15-0.17,0.31-0.26,0.47c-0.24,0.43-0.48,0.87-0.77,1.28
				l-0.13-0.09c0.29-0.4,0.53-0.84,0.76-1.26c0.09-0.16,0.17-0.32,0.26-0.47c0.16-0.31,0.29-0.61,0.43-0.9
				c0.14-0.3,0.28-0.59,0.44-0.91l0.02-0.04h0.05c1.04-0.05,6.99,0.09,7.39,1.6c0.15,0.56-0.44,1.2-1.83,1.94
				c-0.94,0.5-1.43,1.44-1.91,2.35c-0.07,0.13-0.13,0.25-0.2,0.38c-0.16,0.3-0.32,0.59-0.49,0.87c-1.09,1.93-2.03,3.59-0.85,5.82
				l0.32,0.6c0.71,1.33,1.38,2.58,1.81,4.05c0.58,1.99,1.02,4.12,1.36,6.53c0.54,3.83,0.72,7.76,0.89,11.56
				c0.03,0.6,0.05,1.21,0.08,1.81l0.02,0.39c0.13,2.68,0.3,6.01-1.39,8.26C30.05,47.64,28.3,47.99,26.56,47.99z"/>
		</g>
		<g>
			<path d="M21.4,48c-1.71,0-3.44-0.36-4.54-1.82c-1.68-2.24-1.52-5.57-1.39-8.25l0.1-2.15c0.17-3.82,0.35-7.77,0.9-11.62
				c0.33-2.37,0.78-4.51,1.36-6.53c0.44-1.49,1.11-2.75,1.83-4.1l0.3-0.55c1.18-2.23,0.24-3.9-0.85-5.82
				c-0.16-0.29-0.32-0.57-0.49-0.87c-0.07-0.13-0.14-0.27-0.21-0.4c-0.47-0.91-0.96-1.84-1.9-2.34c-1.38-0.74-1.98-1.38-1.83-1.94
				C15.06,0.23,20.02,0,21.7,0c0.16,0,0.29,0,0.39,0.01h0.05l0.02,0.04c0.16,0.32,0.3,0.61,0.44,0.91c0.13,0.29,0.27,0.59,0.43,0.91
				c0.08,0.15,0.17,0.3,0.26,0.46c0.24,0.42,0.48,0.86,0.76,1.26l-0.13,0.09c-0.29-0.41-0.53-0.85-0.77-1.28
				c-0.08-0.16-0.17-0.31-0.26-0.46c-0.16-0.32-0.3-0.62-0.44-0.91c-0.13-0.28-0.26-0.56-0.41-0.86c-0.14,0-0.3-0.01-0.48-0.01
				c-2.18,0-6.41,0.38-6.71,1.5c-0.13,0.47,0.48,1.08,1.75,1.76c0.97,0.52,1.48,1.48,1.96,2.4c0.07,0.13,0.14,0.26,0.21,0.39
				c0.16,0.3,0.32,0.59,0.49,0.87c1.11,1.97,2.07,3.66,0.85,5.98l-0.29,0.55c-0.72,1.34-1.39,2.6-1.82,4.07
				c-0.59,2.01-1.03,4.13-1.36,6.5c-0.54,3.85-0.72,7.79-0.9,11.61l-0.1,2.15c-0.13,2.65-0.29,5.95,1.36,8.15
				c1.64,2.17,4.76,1.82,7.06,1.56l0.02,0.15C23.24,47.9,22.33,48,21.4,48z"/>
		</g>
		<g>
			<g>
				<path d="M31.51,9.95l0-0.25l-0.16-6.22l0.15-0.01l0.15,5.97l0.01-0.01c0.01-0.24,0.14-0.34,0.25-0.36
					c0.04-0.12,0.09-0.18,0.17-0.2c0.03-0.01,0.07-0.01,0.09,0c0.04-0.13,0.07-0.18,0.13-0.19c0.02-0.08,0.06-0.12,0.1-0.13
					c0.08-0.05,0.21,0.01,0.29,0.05V2.67h0.15v6.24l-0.13-0.1c-0.09-0.07-0.2-0.12-0.25-0.12c0,0-0.01,0.02-0.01,0.06v0.08h-0.08
					c-0.03,0.01-0.05,0.08-0.08,0.18l-0.04,0.12l-0.09-0.09c-0.01,0-0.02-0.02-0.03-0.02h0c-0.01,0-0.04,0.04-0.07,0.14l-0.02,0.06
					h-0.06c-0.03,0-0.16,0.02-0.16,0.24L31.81,9.5L31.51,9.95z"/>
			</g>
			<g>
				<path d="M32.26,7.21c-0.02-0.07-0.01-2.06,0-2.67h0.08c-0.01,1.02-0.02,2.57,0,2.64L32.26,7.21z"/>
			</g>
			<g>
				<path d="M32.01,8.28l-0.08-0.02l0.04,0.01l-0.04-0.01c0.02-0.08,0.01-1.62,0-2.64h0.08C32.01,6.04,32.03,8.2,32.01,8.28z"/>
			</g>
		</g>
		<g>
			<g>
				<path d="M16.49,9.95l-0.31-0.49c0-0.24-0.15-0.24-0.16-0.24h-0.06l-0.02-0.06c-0.03-0.13-0.07-0.14-0.07-0.14l-0.09,0.09
					l-0.07-0.1c-0.03-0.1-0.06-0.17-0.07-0.19h-0.08l-0.01-0.07c0-0.05-0.01-0.06-0.02-0.06c0,0-0.01,0-0.01,0
					c-0.05,0-0.16,0.05-0.24,0.12l-0.13,0.1V2.67h0.15V8.6c0.09-0.05,0.22-0.1,0.3-0.05c0.04,0.02,0.08,0.05,0.1,0.13
					c0.06,0.02,0.08,0.07,0.13,0.19c0.03-0.01,0.06-0.01,0.09,0c0.07,0.02,0.13,0.08,0.16,0.2c0.11,0.03,0.25,0.12,0.25,0.37
					l0.01,0.01l0.15-5.97l0.15,0.01L16.49,9.95z"/>
			</g>
			<g>
				<path d="M15.74,7.21l-0.08-0.02c0.02-0.08,0.01-1.62,0-2.64h0.08C15.74,5.15,15.76,7.14,15.74,7.21z"/>
			</g>
			<g>
				<path d="M15.99,8.28c-0.02-0.07,0-2.23,0-2.67h0.08c-0.01,1.02-0.02,2.57,0,2.64L15.99,8.28z"/>
			</g>
		</g>
		<g>
			<path d="M23.9,10.96c-1.11,0-2.26-0.1-3.44-0.3l0.02-0.15c2.5,0.43,4.85,0.4,7-0.08l0.03,0.15
				C26.37,10.83,25.16,10.96,23.9,10.96z"/>
		</g>
		<g>
			<path d="M24.07,11.73c-1.07,0-2.28-0.1-3.61-0.37l0.03-0.15c3.05,0.6,5.49,0.34,6.99,0l0.03,0.15
				C26.65,11.56,25.48,11.73,24.07,11.73z"/>
		</g>
	</g>
</g>
</svg>
