<?xml version="1.0" encoding="utf-8"?>
<!-- Generator: Adobe Illustrator 23.0.0, SVG Export Plug-In . SVG Version: 6.00 Build 0)  -->
<svg version="1.1" id="Calque_1" xmlns="http://www.w3.org/2000/svg" xmlns:xlink="http://www.w3.org/1999/xlink" x="0px" y="0px"
	 viewBox="0 0 48 48" style="enable-background:new 0 0 48 48;" xml:space="preserve">
<g>
	<g>
		<path d="M41.72,30.87h-0.59c0-9.44-7.68-17.12-17.12-17.12S6.89,21.43,6.89,30.87H6.29c0-9.77,7.95-17.72,17.72-17.72
			C33.78,13.15,41.72,21.1,41.72,30.87z"/>
	</g>
	<g>
		<rect x="3.76" y="31.94" width="40.47" height="0.59"/>
	</g>
	<g>
		<path d="M26.1,13.78l-0.52-0.28c0.14-0.28,0.26-0.53,0.26-0.75c0-0.99-0.87-1.93-1.78-1.93c-1.03,0-1.93,0.9-1.93,1.93
			c0,0.22,0.12,0.46,0.25,0.72l-0.25,0.17l-0.27,0.13c-0.17-0.35-0.33-0.67-0.33-1.02c0-1.34,1.18-2.52,2.52-2.52
			c1.25,0,2.38,1.2,2.38,2.52C26.43,13.11,26.28,13.43,26.1,13.78z"/>
	</g>
	<g>
		<path d="M40.17,19.51l-0.46-0.36c1.35-1.72,2.03-3.43,2.02-5.09c0-0.93-0.22-1.59-0.46-2.38c-0.22-0.7-0.46-1.48-0.6-2.58
			c-0.2-1.67-0.06-3.39,0.43-5.1l0.57,0.16c-0.46,1.64-0.59,3.28-0.4,4.87c0.12,1.04,0.36,1.77,0.58,2.47
			c0.25,0.8,0.48,1.54,0.49,2.56C42.33,15.85,41.61,17.68,40.17,19.51z"/>
	</g>
	<g>
		<path d="M36.78,15.52l-0.46-0.36c1.35-1.71,2.03-3.43,2.03-5.09c-0.01-0.92-0.22-1.59-0.46-2.37c-0.22-0.7-0.46-1.49-0.6-2.59
			c-0.2-1.68-0.07-3.4,0.42-5.11l0.57,0.16c-0.46,1.63-0.59,3.28-0.39,4.88c0.12,1.05,0.36,1.78,0.57,2.49
			c0.25,0.79,0.49,1.53,0.49,2.54C38.95,11.87,38.22,13.7,36.78,15.52z"/>
	</g>
	<g>
		<path d="M12.93,45.54l-1.5-9.46l0.23-0.09l5.1-1.82c0.31-0.01,7.57-0.31,8.43-0.31c0.59,0,1.13,0.57,1.2,1.26
			c0.07,0.56-0.21,1.23-1.16,1.44c-0.88,0.2-2.57,0.65-3.86,1l5.21,0.33c0.62-0.22,6-2.17,7.59-2.95l0,0
			c1.08-0.54,1.82-0.05,2.14,0.49c0.38,0.66,0.25,1.46-0.29,1.83c-0.12,0.08-0.34,0.22-0.65,0.43c-3.66,2.46-7.98,5.31-8.97,5.5
			c-0.97,0.2-6.61,0.1-9.66,0.03c-0.79-0.01-1.37-0.03-1.59-0.03c-0.7,0-1.56,1.2-1.81,1.62L12.93,45.54z M12.1,36.47l1.17,7.42
			c0.43-0.57,1.13-1.28,1.88-1.28c0.22,0,0.81,0,1.6,0.01c2.8,0.07,8.62,0.16,9.54-0.01c0.66-0.13,3.6-1.95,8.75-5.41
			c0.3-0.21,0.54-0.36,0.65-0.43c0.3-0.2,0.3-0.7,0.11-1.04c-0.12-0.22-0.49-0.66-1.36-0.25l0,0c-1.7,0.83-7.46,2.9-7.71,2.99
			l-0.12,0.01l-8.82-0.54l1.7-0.47c0.04-0.01,4.06-1.13,5.61-1.49c0.5-0.11,0.75-0.39,0.7-0.8c-0.04-0.38-0.33-0.73-0.62-0.73
			c-0.82,0-7.73,0.28-8.36,0.31L12.1,36.47z"/>
	</g>
	<g>
		<path d="M4.89,48V37.1l0.24-0.04l5.24-1.01l0.04,0.3l1.7,10.19L4.89,48z M5.48,37.59v9.69l5.94-1.22l-1.55-9.32L5.48,37.59z"/>
	</g>
</g>
</svg>
